<?xml version="1.0" encoding="utf-8"?>
<!-- Generator: Adobe Illustrator 19.2.0, SVG Export Plug-In . SVG Version: 6.00 Build 0)  -->
<svg version="1.1" id="Layer_1" xmlns="http://www.w3.org/2000/svg" xmlns:xlink="http://www.w3.org/1999/xlink" x="0px" y="0px"
	 viewBox="0 0 50 50" enable-background="new 0 0 50 50" xml:space="preserve">
<g>
	<g>
		<g>
			<path fill="#1890FF" d="M34.333,35.467c-2.599,0-4.714-2.114-4.714-4.713c0-2.6,2.115-4.715,4.714-4.715s4.714,2.115,4.714,4.715
				C39.048,33.352,36.933,35.467,34.333,35.467z M34.333,27.844c-1.604,0-2.909,1.305-2.909,2.91c0,1.604,1.305,2.908,2.909,2.908
				s2.909-1.304,2.909-2.908C37.242,29.149,35.937,27.844,34.333,27.844z"/>
		</g>
		<g>
			<path fill="#1890FF" d="M34.333,33.458c-1.493,0-2.707-1.213-2.707-2.705c0-1.493,1.214-2.707,2.707-2.707
				c1.492,0,2.706,1.214,2.706,2.707C37.039,32.245,35.825,33.458,34.333,33.458z M34.333,29.852c-0.497,0-0.901,0.404-0.901,0.901
				c0,0.496,0.404,0.899,0.901,0.899c0.496,0,0.9-0.404,0.9-0.899C35.234,30.256,34.83,29.852,34.333,29.852z"/>
		</g>
		<g>
			<path fill="#1890FF" d="M30.982,33.444H6.315c-0.499,0-0.903-0.404-0.903-0.903c0-0.499,0.404-0.903,0.903-0.903h24.667
				c0.499,0,0.903,0.404,0.903,0.903C31.885,33.04,31.481,33.444,30.982,33.444z"/>
		</g>
		<g>
			<path fill="#1890FF" d="M40.683,31.296h-0.442c-0.478,0-0.873-0.372-0.901-0.849c-0.159-2.645-2.358-4.718-5.007-4.718
				c-2.648,0-4.847,2.073-5.007,4.719c-0.029,0.476-0.423,0.848-0.901,0.848H15.924c-2.153,0-3.904-1.751-3.904-3.904V16.246
				c0-2.153,1.751-3.904,3.904-3.904h24.759c2.153,0,3.904,1.751,3.904,3.904v11.146C44.587,29.545,42.836,31.296,40.683,31.296z
				 M15.924,14.148c-1.157,0-2.098,0.941-2.098,2.098v11.146c0,1.157,0.941,2.098,2.098,2.098h11.704
				c0.596-3.182,3.393-5.567,6.705-5.567c3.304,0,6.093,2.37,6.7,5.538c0.991-0.167,1.748-1.032,1.748-2.069V16.246
				c0-1.157-0.942-2.098-2.098-2.098H15.924z"/>
		</g>
	</g>
	<g>
		<path fill="#1890FF" d="M43.685,21.473H12.923c-0.499,0-0.903-0.404-0.903-0.903s0.404-0.903,0.903-0.903h30.762
			c0.499,0,0.903,0.404,0.903,0.903S44.184,21.473,43.685,21.473z"/>
	</g>
</g>
</svg>
