<?xml version="1.0" encoding="utf-8"?>
<!-- Generator: Adobe Illustrator 24.0.1, SVG Export Plug-In . SVG Version: 6.00 Build 0)  -->
<svg version="1.1" id="artwork" xmlns="http://www.w3.org/2000/svg" xmlns:xlink="http://www.w3.org/1999/xlink" x="0px" y="0px"
	 viewBox="0 0 474 596.8" style="enable-background:new 0 0 474 596.8;" xml:space="preserve">
<style type="text/css">
	.st0{fill:#FFFFFF;stroke:#FFFFFF;stroke-width:0.2;stroke-miterlimit:10;}
	.st1{fill:#FFFFFF;}
	.st2{fill:url(#SVGID_1_);}
	.st3{fill:url(#SVGID_2_);}
	.st4{fill:url(#SVGID_3_);}
	.st5{fill:url(#SVGID_4_);}
	.st6{opacity:0.2;enable-background:new    ;}
	.st7{opacity:0.12;enable-background:new    ;}
	.st8{opacity:0.25;fill:#FFFFFF;enable-background:new    ;}
	.st9{fill:none;}
</style>
<g>
	<path d="M17.6,455.3h438.8c9.7,0,17.6-30.8,17.6-21v144.8c0,9.8-7.9,17.7-17.6,17.7H17.6c-9.7,0-17.6-7.9-17.6-17.7V434.3
		C0.1,424.5,7.9,455.3,17.6,455.3z"/>
	<g>
		<path class="st0" d="M166.6,491.5c0.1,2.6-0.8,5.2-2.6,7.1c-2,2.1-4.8,3.3-7.7,3.1c-6,0.1-10.9-4.8-11-10.8c0-0.1,0-0.2,0-0.2
			c-0.1-6,4.7-11,10.7-11.1c0.1,0,0.2,0,0.2,0c1.5,0,3,0.3,4.3,0.9c1.3,0.5,2.4,1.3,3.3,2.4l-1.9,1.9c-1.4-1.7-3.6-2.6-5.8-2.5
			c-4.5,0-8.2,3.6-8.2,8.2c0,0.1,0,0.2,0,0.3c-0.1,4.6,3.6,8.4,8.2,8.5c2.2,0,4.3-0.8,5.9-2.3c1.1-1.2,1.7-2.7,1.8-4.3h-7.6v-2.5
			h10.2C166.5,490.5,166.6,491,166.6,491.5z"/>
		<path class="st0" d="M182.6,482.7h-9.5v6.7h8.6v2.5h-8.6v6.7h9.5v2.6h-12.3V480h12.3V482.7z"/>
		<path class="st0" d="M194.1,501.3h-2.7v-18.6h-5.9v-2.6h14.6v2.6h-6L194.1,501.3L194.1,501.3z"/>
		<path class="st0" d="M210.5,501.3v-21.2h2.7v21.2H210.5z"/>
		<path class="st0" d="M225.2,501.3h-2.7v-18.6h-5.9v-2.6h14.5v2.6h-5.9L225.2,501.3L225.2,501.3z"/>
		<path class="st0" d="M258.5,498.5c-4.3,4.3-11.2,4.3-15.4,0c-2-2.1-3.2-4.9-3.1-7.9c-0.1-2.9,1-5.8,3.1-7.9
			c4.2-4.3,11.1-4.3,15.4-0.1c0,0,0,0,0.1,0.1c2,2.1,3.2,4.9,3.1,7.9S260.5,496.4,258.5,498.5z M245,496.8c3.2,3.2,8.3,3.2,11.4,0
			c1.6-1.6,2.4-3.8,2.4-6.1c0-2.3-0.9-4.5-2.5-6.1c-3.2-3.2-8.3-3.2-11.4,0c-1.5,1.6-2.3,3.8-2.2,6.1
			C242.6,492.9,243.5,495.1,245,496.8z"/>
		<path class="st0" d="M265.4,501.3v-21.2h3.3l10.3,16.5l0,0v-4.1v-12.4h2.7v21.2h-2.8L268.1,484l0,0v4.1v13.2L265.4,501.3
			L265.4,501.3z"/>
	</g>
	<path class="st1" d="M239.3,532.2c-8.2,0-14.9,6.8-14.8,15.1c0,8.3,6.7,15,15,15c8.2,0,14.8-6.8,14.8-15c0.1-8.2-6.4-14.9-14.5-15
		C239.6,532.2,239.5,532.2,239.3,532.2z M239.3,556.4c-5,0.4-9.3-3.4-9.7-8.5c-0.3-5,3.4-9.4,8.4-9.7c5-0.4,9.3,3.4,9.7,8.5
		c0,0.2,0,0.4,0,0.6c0.2,4.8-3.4,8.9-8.2,9.1C239.4,556.4,239.4,556.4,239.3,556.4z M206.6,532.2c-8.2,0-14.9,6.8-14.9,15.1
		s6.7,15,15,15c8.2,0,14.9-6.7,14.9-15c0.1-8.2-6.4-14.9-14.5-15C206.9,532.2,206.7,532.2,206.6,532.2L206.6,532.2z M206.6,556.4
		c-5,0.4-9.3-3.4-9.7-8.4s3.4-9.4,8.4-9.8c5-0.4,9.3,3.4,9.7,8.4c0,0.2,0,0.4,0,0.6c0.2,4.8-3.4,8.9-8.2,9.1
		C206.7,556.4,206.6,556.4,206.6,556.4L206.6,556.4z M167.7,536.9v6.4h15.2c-0.2,3-1.5,5.8-3.5,8c-3.1,3.1-7.3,4.8-11.7,4.7
		c-9.3,0-16.9-7.6-16.9-17s7.5-17,16.9-17c4.3-0.1,8.4,1.6,11.5,4.6l4.5-4.5c-4.2-4.3-9.9-6.7-15.9-6.6
		c-12.8-0.5-23.6,9.6-24.1,22.5s9.5,23.8,22.3,24.3c0.6,0,1.2,0,1.8,0c6.1,0.3,12-2.1,16.2-6.5c3.7-4.1,5.6-9.4,5.5-14.9
		c0-1.3-0.1-2.7-0.4-4h-21.3l0,0H167.7z M326.7,541.8c-1.9-5.6-7-9.4-12.8-9.6c-7.8,0-14.1,6.3-14.1,14.1c0,0.3,0,0.6,0,0.9
		c-0.2,8.1,6.2,14.9,14.3,15c0.2,0,0.4,0,0.5,0c5,0,9.7-2.5,12.4-6.6l-5.1-3.5c-1.5,2.6-4.3,4.2-7.3,4.2c-3.1,0.1-6-1.7-7.2-4.6
		l20-8.3L326.7,541.8z M306.4,546.8c-0.3-4.5,3.1-8.5,7.6-8.8c0.1,0,0.1,0,0.2,0c2.3-0.2,4.5,1.1,5.5,3.2L306.4,546.8z M290.2,561.4
		h6.6v-44.2h-6.6V561.4z M279.4,535.6h-0.2c-2-2.3-4.9-3.5-7.9-3.5c-8.2,0.4-14.6,7.5-14.2,15.8c0.4,7.7,6.5,13.9,14.2,14.3
		c3,0.1,5.9-1.2,7.9-3.5h0.2v2.4c0,5.8-3.1,8.8-8,8.8c-3.3-0.1-6.3-2.2-7.5-5.3l-5.7,2.4c2.2,5.4,7.4,8.9,13.2,8.9
		c7.7,0,14-4.6,14-15.7v-27.1h-6V535.6z M271.9,556.4c-5-0.4-8.7-4.9-8.3-9.9c0.4-4.4,3.9-7.9,8.3-8.3c4.6,0.2,8.2,4.2,8,8.9
		c0,0.1,0,0.1,0,0.2c0.4,4.6-3,8.7-7.6,9.1C272.1,556.4,272,556.4,271.9,556.4L271.9,556.4z M357.5,517.2h-15.7v44.2h6.6v-16.8h9.2
		c7.5,0.5,14.1-5.2,14.6-12.7s-5.1-14.2-12.6-14.7C358.8,517.2,358.1,517.2,357.5,517.2z M357.5,538.4h-9.2v-15.1h9.3
		c4.1,0,7.5,3.4,7.5,7.6S361.7,538.5,357.5,538.4L357.5,538.4L357.5,538.4z M398,532.1c-4.9-0.3-9.5,2.4-11.7,6.8l5.8,2.4
		c1.2-2.2,3.5-3.5,6-3.3c3.5-0.4,6.6,2.1,7,5.6v0.1v0.5c-2.1-1.1-4.5-1.7-6.8-1.7c-6.3,0-12.6,3.5-12.6,9.9c0.3,5.6,5,10,10.6,9.7
		c0.1,0,0.2,0,0.3,0c3.4,0.2,6.6-1.4,8.4-4.2h0.2v3.5h6.3v-17c0-7.7-5.8-12.2-13.3-12.2L398,532.1z M397.2,556.3
		c-2.4,0.3-4.7-1.3-5.1-3.7c0-3.5,3.7-4.7,7-4.7c2.1-0.1,4.1,0.5,6,1.5c-0.5,4-3.7,7-7.7,7.1L397.2,556.3z M434.5,533.1l-7.5,19.2
		h-0.2l-7.8-19.2h-7l11.7,26.8l-6.7,14.9h6.8l18-41.7H434.5L434.5,533.1z M375.5,561.4h6.6v-44.2h-6.6V561.4z"/>
	<g>
		
			<linearGradient id="SVGID_1_" gradientUnits="userSpaceOnUse" x1="76.9003" y1="-786.1497" x2="17.5734" y2="-845.4766" gradientTransform="matrix(1 0 0 -1 0 -300)">
			<stop  offset="0" style="stop-color:#00A0FF"/>
			<stop  offset="1.000000e-02" style="stop-color:#00A1FF"/>
			<stop  offset="0.26" style="stop-color:#00BEFF"/>
			<stop  offset="0.51" style="stop-color:#00D2FF"/>
			<stop  offset="0.76" style="stop-color:#00DFFF"/>
			<stop  offset="1" style="stop-color:#00E3FF"/>
		</linearGradient>
		<path class="st2" d="M36.7,482c-1.1,1.4-1.7,3.2-1.5,5v78.2c-0.1,1.8,0.5,3.6,1.6,5l0.2,0.2l43.4-43.8v-1.1L37,481.7L36.7,482z"/>
		
			<linearGradient id="SVGID_2_" gradientUnits="userSpaceOnUse" x1="118.8447" y1="-826.05" x2="33.9261" y2="-826.05" gradientTransform="matrix(1 0 0 -1 0 -300)">
			<stop  offset="0" style="stop-color:#FFE000"/>
			<stop  offset="0.41" style="stop-color:#FFBD00"/>
			<stop  offset="0.78" style="stop-color:#FFA500"/>
			<stop  offset="1" style="stop-color:#FF9C00"/>
		</linearGradient>
		<path class="st3" d="M94.9,541.2l-14.4-14.6v-1.1l14.4-14.6l0.3,0.2l17.2,9.9c4.9,2.8,4.9,7.4,0,10.2L95.3,541L94.9,541.2z"/>
		
			<linearGradient id="SVGID_3_" gradientUnits="userSpaceOnUse" x1="87.2425" y1="-834.1572" x2="7.0808" y2="-914.2837" gradientTransform="matrix(1 0 0 -1 0 -300)">
			<stop  offset="0" style="stop-color:#FF3A44"/>
			<stop  offset="1" style="stop-color:#C31162"/>
		</linearGradient>
		<path class="st4" d="M95.3,541l-14.8-15l-43.7,44.1c2.1,1.8,5.1,1.9,7.3,0.2L95.3,541"/>
		
			<linearGradient id="SVGID_4_" gradientUnits="userSpaceOnUse" x1="25.53" y1="-756.18" x2="61.3309" y2="-791.9809" gradientTransform="matrix(1 0 0 -1 0 -300)">
			<stop  offset="0" style="stop-color:#32A071"/>
			<stop  offset="7.000000e-02" style="stop-color:#2DA771"/>
			<stop  offset="0.48" style="stop-color:#15CF74"/>
			<stop  offset="0.8" style="stop-color:#06E775"/>
			<stop  offset="1" style="stop-color:#00F076"/>
		</linearGradient>
		<path class="st5" d="M95.3,511.1L44,481.8c-2.2-1.7-5.2-1.6-7.3,0.2l43.8,44L95.3,511.1z"/>
		<g>
			<path class="st6" d="M94.9,540.7L44,569.8c-2.1,1.6-4.9,1.6-7,0l0,0l-0.2,0.2l0,0l0.2,0.2l0,0c2.1,1.6,4.9,1.6,7,0L95.3,541
				L94.9,540.7z"/>
			<path class="st7" d="M36.7,569.6c-1.1-1.4-1.7-3.2-1.6-5v0.5c-0.1,1.8,0.5,3.6,1.6,5l0.2-0.2L36.7,569.6z"/>
		</g>
		<path class="st7" d="M112.4,530.6l-17.6,10l0.3,0.3l17.2-9.8c2-0.9,3.3-2.9,3.5-5.1l0,0C115.5,528,114.2,529.7,112.4,530.6z"/>
		<path class="st8" d="M44,482.3l68.4,39.2c1.8,0.9,3.1,2.6,3.5,4.6l0,0c-0.2-2.2-1.5-4.2-3.5-5.1L44,481.8
			c-4.9-2.8-8.8-0.5-8.8,5.2v0.5C35.2,481.8,39.1,479.5,44,482.3z"/>
	</g>
</g>
<g>
	<path class="st1" d="M29.6,5h414.7C458,5,469,16,469,29.6v414.7c0,13.6-11,24.6-24.6,24.6H29.6C16,469,5,458,5,444.4V29.6
		C5,16,16,5,29.6,5z"/>
	<path d="M444.4,474H29.6C13.3,474,0,460.7,0,444.4V29.6C0,13.3,13.3,0,29.6,0h414.7C460.7,0,474,13.3,474,29.6v414.7
		C474,460.7,460.7,474,444.4,474z M29.6,10C18.8,10,10,18.8,10,29.6v414.7c0,10.8,8.8,19.6,19.6,19.6h414.7
		c10.8,0,19.6-8.8,19.6-19.6V29.6c0-10.8-8.8-19.6-19.6-19.6H29.6z"/>
</g>
<g transform="translate(32,32)">
	<g transform="translate(128,0) scale(0.16,0.16)">
		<g transform="">
			<rect x="31.2" y="37.5" width="100" height="100"/>
		</g>
	</g>
	<g transform="translate(144,0) scale(0.16,0.16)">
		<g transform="">
			<rect x="31.2" y="37.5" width="100" height="100"/>
		</g>
	</g>
	<g transform="translate(208,0) scale(0.16,0.16)">
		<g transform="">
			<rect x="31.2" y="37.5" width="100" height="100"/>
		</g>
	</g>
	<g transform="translate(224,0) scale(0.16,0.16)">
		<g transform="">
			<rect x="31.2" y="37.5" width="100" height="100"/>
		</g>
	</g>
	<g transform="translate(144,16) scale(0.16,0.16)">
		<g transform="">
			<rect x="31.2" y="37.5" width="100" height="100"/>
		</g>
	</g>
	<g transform="translate(192,16) scale(0.16,0.16)">
		<g transform="">
			<rect x="31.2" y="37.5" width="100" height="100"/>
		</g>
	</g>
	<g transform="translate(128,32) scale(0.16,0.16)">
		<g transform="">
			<rect x="31.2" y="37.5" width="100" height="100"/>
		</g>
	</g>
	<g transform="translate(176,32) scale(0.16,0.16)">
		<g transform="">
			<rect x="31.2" y="37.5" width="100" height="100"/>
		</g>
	</g>
	<g transform="translate(192,32) scale(0.16,0.16)">
		<g transform="">
			<rect x="31.2" y="37.5" width="100" height="100"/>
		</g>
	</g>
	<g transform="translate(208,32) scale(0.16,0.16)">
		<g transform="">
			<rect x="31.2" y="37.5" width="100" height="100"/>
		</g>
	</g>
	<g transform="translate(160,48) scale(0.16,0.16)">
		<g transform="">
			<rect x="31.2" y="37.5" width="100" height="100"/>
		</g>
	</g>
	<g transform="translate(192,48) scale(0.16,0.16)">
		<g transform="">
			<rect x="31.2" y="37.5" width="100" height="100"/>
		</g>
	</g>
	<g transform="translate(208,48) scale(0.16,0.16)">
		<g transform="">
			<rect x="31.2" y="37.5" width="100" height="100"/>
		</g>
	</g>
	<g transform="translate(224,48) scale(0.16,0.16)">
		<g transform="">
			<rect x="31.2" y="37.5" width="100" height="100"/>
		</g>
	</g>
	<g transform="translate(240,48) scale(0.16,0.16)">
		<g transform="">
			<rect x="31.2" y="37.5" width="100" height="100"/>
		</g>
	</g>
	<g transform="translate(192,64) scale(0.16,0.16)">
		<g transform="">
			<rect x="31.2" y="37.5" width="100" height="100"/>
		</g>
	</g>
	<g transform="translate(208,64) scale(0.16,0.16)">
		<g transform="">
			<rect x="31.2" y="37.5" width="100" height="100"/>
		</g>
	</g>
	<g transform="translate(256,64) scale(0.16,0.16)">
		<g transform="">
			<rect x="31.2" y="37.5" width="100" height="100"/>
		</g>
	</g>
	<g transform="translate(128,80) scale(0.16,0.16)">
		<g transform="">
			<rect x="31.2" y="37.5" width="100" height="100"/>
		</g>
	</g>
	<g transform="translate(160,80) scale(0.16,0.16)">
		<g transform="">
			<rect x="31.2" y="37.5" width="100" height="100"/>
		</g>
	</g>
	<g transform="translate(176,80) scale(0.16,0.16)">
		<g transform="">
			<rect x="31.2" y="37.5" width="100" height="100"/>
		</g>
	</g>
	<g transform="translate(192,80) scale(0.16,0.16)">
		<g transform="">
			<rect x="31.2" y="37.5" width="100" height="100"/>
		</g>
	</g>
	<g transform="translate(224,80) scale(0.16,0.16)">
		<g transform="">
			<rect x="31.2" y="37.5" width="100" height="100"/>
		</g>
	</g>
	<g transform="translate(128,96) scale(0.16,0.16)">
		<g transform="">
			<rect x="31.2" y="37.5" width="100" height="100"/>
		</g>
	</g>
	<g transform="translate(160,96) scale(0.16,0.16)">
		<g transform="">
			<rect x="31.2" y="37.5" width="100" height="100"/>
		</g>
	</g>
	<g transform="translate(192,96) scale(0.16,0.16)">
		<g transform="">
			<rect x="31.2" y="37.5" width="100" height="100"/>
		</g>
	</g>
	<g transform="translate(224,96) scale(0.16,0.16)">
		<g transform="">
			<rect x="31.2" y="37.5" width="100" height="100"/>
		</g>
	</g>
	<g transform="translate(256,96) scale(0.16,0.16)">
		<g transform="">
			<rect x="31.2" y="37.5" width="100" height="100"/>
		</g>
	</g>
	<g transform="translate(144,112) scale(0.16,0.16)">
		<g transform="">
			<rect x="31.2" y="37.5" width="100" height="100"/>
		</g>
	</g>
	<g transform="translate(160,112) scale(0.16,0.16)">
		<g transform="">
			<rect x="31.2" y="37.5" width="100" height="100"/>
		</g>
	</g>
	<g transform="translate(176,112) scale(0.16,0.16)">
		<g transform="">
			<rect x="31.2" y="37.5" width="100" height="100"/>
		</g>
	</g>
	<g transform="translate(256,112) scale(0.16,0.16)">
		<g transform="">
			<rect x="31.2" y="37.5" width="100" height="100"/>
		</g>
	</g>
	<g transform="translate(0,128) scale(0.16,0.16)">
		<g transform="">
			<rect x="31.2" y="37.5" width="100" height="100"/>
		</g>
	</g>
	<g transform="translate(32,128) scale(0.16,0.16)">
		<g transform="">
			<rect x="31.2" y="37.5" width="100" height="100"/>
		</g>
	</g>
	<g transform="translate(96,128) scale(0.16,0.16)">
		<g transform="">
			<rect x="31.2" y="37.5" width="100" height="100"/>
		</g>
	</g>
	<g transform="translate(112,128) scale(0.16,0.16)">
		<g transform="">
			<rect x="31.2" y="37.5" width="100" height="100"/>
		</g>
	</g>
	<g transform="translate(144,128) scale(0.16,0.16)">
		<g transform="">
			<rect x="31.2" y="37.5" width="100" height="100"/>
		</g>
	</g>
	<g transform="translate(192,128) scale(0.16,0.16)">
		<g transform="">
			<rect x="31.2" y="37.5" width="100" height="100"/>
		</g>
	</g>
	<g transform="translate(224,128) scale(0.16,0.16)">
		<g transform="">
			<rect x="31.2" y="37.5" width="100" height="100"/>
		</g>
	</g>
	<g transform="translate(256,128) scale(0.16,0.16)">
		<g transform="">
			<rect x="31.2" y="37.5" width="100" height="100"/>
		</g>
	</g>
	<g transform="translate(304,128) scale(0.16,0.16)">
		<g transform="">
			<rect x="31.2" y="37.5" width="100" height="100"/>
		</g>
	</g>
	<g transform="translate(352,128) scale(0.16,0.16)">
		<g transform="">
			<rect x="31.2" y="37.5" width="100" height="100"/>
		</g>
	</g>
	<g transform="translate(384,128) scale(0.16,0.16)">
		<g transform="">
			<rect x="31.2" y="37.5" width="100" height="100"/>
		</g>
	</g>
	<g transform="translate(32,144) scale(0.16,0.16)">
		<g transform="">
			<rect x="31.2" y="37.5" width="100" height="100"/>
		</g>
	</g>
	<g transform="translate(48,144) scale(0.16,0.16)">
		<g transform="">
			<rect x="31.2" y="37.5" width="100" height="100"/>
		</g>
	</g>
	<g transform="translate(80,144) scale(0.16,0.16)">
		<g transform="">
			<rect x="31.2" y="37.5" width="100" height="100"/>
		</g>
	</g>
	<g transform="translate(112,144) scale(0.16,0.16)">
		<g transform="">
			<rect x="31.2" y="37.5" width="100" height="100"/>
		</g>
	</g>
	<g transform="translate(144,144) scale(0.16,0.16)">
		<g transform="">
			<rect x="31.2" y="37.5" width="100" height="100"/>
		</g>
	</g>
	<g transform="translate(176,144) scale(0.16,0.16)">
		<g transform="">
			<rect x="31.2" y="37.5" width="100" height="100"/>
		</g>
	</g>
	<g transform="translate(192,144) scale(0.16,0.16)">
		<g transform="">
			<rect x="31.2" y="37.5" width="100" height="100"/>
		</g>
	</g>
	<g transform="translate(208,144) scale(0.16,0.16)">
		<g transform="">
			<rect x="31.2" y="37.5" width="100" height="100"/>
		</g>
	</g>
	<g transform="translate(240,144) scale(0.16,0.16)">
		<g transform="">
			<rect x="31.2" y="37.5" width="100" height="100"/>
		</g>
	</g>
	<g transform="translate(256,144) scale(0.16,0.16)">
		<g transform="">
			<rect x="31.2" y="37.5" width="100" height="100"/>
		</g>
	</g>
	<g transform="translate(288,144) scale(0.16,0.16)">
		<g transform="">
			<rect x="31.2" y="37.5" width="100" height="100"/>
		</g>
	</g>
	<g transform="translate(304,144) scale(0.16,0.16)">
		<g transform="">
			<rect x="31.2" y="37.5" width="100" height="100"/>
		</g>
	</g>
	<g transform="translate(336,144) scale(0.16,0.16)">
		<g transform="">
			<rect x="31.2" y="37.5" width="100" height="100"/>
		</g>
	</g>
	<g transform="translate(368,144) scale(0.16,0.16)">
		<g transform="">
			<rect x="31.2" y="37.5" width="100" height="100"/>
		</g>
	</g>
	<g transform="translate(384,144) scale(0.16,0.16)">
		<g transform="">
			<rect x="31.2" y="37.5" width="100" height="100"/>
		</g>
	</g>
	<g transform="translate(0,160) scale(0.16,0.16)">
		<g transform="">
			<rect x="31.2" y="37.5" width="100" height="100"/>
		</g>
	</g>
	<g transform="translate(16,160) scale(0.16,0.16)">
		<g transform="">
			<rect x="31.2" y="37.5" width="100" height="100"/>
		</g>
	</g>
	<g transform="translate(32,160) scale(0.16,0.16)">
		<g transform="">
			<rect x="31.2" y="37.5" width="100" height="100"/>
		</g>
	</g>
	<g transform="translate(64,160) scale(0.16,0.16)">
		<g transform="">
			<rect x="31.2" y="37.5" width="100" height="100"/>
		</g>
	</g>
	<g transform="translate(96,160) scale(0.16,0.16)">
		<g transform="">
			<rect x="31.2" y="37.5" width="100" height="100"/>
		</g>
	</g>
	<g transform="translate(128,160) scale(0.16,0.16)">
		<g transform="">
			<rect x="31.2" y="37.5" width="100" height="100"/>
		</g>
	</g>
	<g transform="translate(144,160) scale(0.16,0.16)">
		<g transform="">
			<rect x="31.2" y="37.5" width="100" height="100"/>
		</g>
	</g>
	<g transform="translate(192,160) scale(0.16,0.16)">
		<g transform="">
			<rect x="31.2" y="37.5" width="100" height="100"/>
		</g>
	</g>
	<g transform="translate(240,160) scale(0.16,0.16)">
		<g transform="">
			<rect x="31.2" y="37.5" width="100" height="100"/>
		</g>
	</g>
	<g transform="translate(256,160) scale(0.16,0.16)">
		<g transform="">
			<rect x="31.2" y="37.5" width="100" height="100"/>
		</g>
	</g>
	<g transform="translate(272,160) scale(0.16,0.16)">
		<g transform="">
			<rect x="31.2" y="37.5" width="100" height="100"/>
		</g>
	</g>
	<g transform="translate(336,160) scale(0.16,0.16)">
		<g transform="">
			<rect x="31.2" y="37.5" width="100" height="100"/>
		</g>
	</g>
	<g transform="translate(352,160) scale(0.16,0.16)">
		<g transform="">
			<rect x="31.2" y="37.5" width="100" height="100"/>
		</g>
	</g>
	<g transform="translate(384,160) scale(0.16,0.16)">
		<g transform="">
			<rect x="31.2" y="37.5" width="100" height="100"/>
		</g>
	</g>
	<g transform="translate(48,176) scale(0.16,0.16)">
		<g transform="">
			<rect x="31.2" y="37.5" width="100" height="100"/>
		</g>
	</g>
	<g transform="translate(64,176) scale(0.16,0.16)">
		<g transform="">
			<rect x="31.2" y="37.5" width="100" height="100"/>
		</g>
	</g>
	<g transform="translate(80,176) scale(0.16,0.16)">
		<g transform="">
			<rect x="31.2" y="37.5" width="100" height="100"/>
		</g>
	</g>
	<g transform="translate(128,176) scale(0.16,0.16)">
		<g transform="">
			<rect x="31.2" y="37.5" width="100" height="100"/>
		</g>
	</g>
	<g transform="translate(160,176) scale(0.16,0.16)">
		<g transform="">
			<rect x="31.2" y="37.5" width="100" height="100"/>
		</g>
	</g>
	<g transform="translate(176,176) scale(0.16,0.16)">
		<g transform="">
			<rect x="31.2" y="37.5" width="100" height="100"/>
		</g>
	</g>
	<g transform="translate(224,176) scale(0.16,0.16)">
		<g transform="">
			<rect x="31.2" y="37.5" width="100" height="100"/>
		</g>
	</g>
	<g transform="translate(240,176) scale(0.16,0.16)">
		<g transform="">
			<rect x="31.2" y="37.5" width="100" height="100"/>
		</g>
	</g>
	<g transform="translate(336,176) scale(0.16,0.16)">
		<g transform="">
			<rect x="31.2" y="37.5" width="100" height="100"/>
		</g>
	</g>
	<g transform="translate(0,192) scale(0.16,0.16)">
		<g transform="">
			<rect x="31.2" y="37.5" width="100" height="100"/>
		</g>
	</g>
	<g transform="translate(48,192) scale(0.16,0.16)">
		<g transform="">
			<rect x="31.2" y="37.5" width="100" height="100"/>
		</g>
	</g>
	<g transform="translate(64,192) scale(0.16,0.16)">
		<g transform="">
			<rect x="31.2" y="37.5" width="100" height="100"/>
		</g>
	</g>
	<g transform="translate(96,192) scale(0.16,0.16)">
		<g transform="">
			<rect x="31.2" y="37.5" width="100" height="100"/>
		</g>
	</g>
	<g transform="translate(112,192) scale(0.16,0.16)">
		<g transform="">
			<rect x="31.2" y="37.5" width="100" height="100"/>
		</g>
	</g>
	<g transform="translate(128,192) scale(0.16,0.16)">
		<g transform="">
			<rect x="31.2" y="37.5" width="100" height="100"/>
		</g>
	</g>
	<g transform="translate(192,192) scale(0.16,0.16)">
		<g transform="">
			<rect x="31.2" y="37.5" width="100" height="100"/>
		</g>
	</g>
	<g transform="translate(240,192) scale(0.16,0.16)">
		<g transform="">
			<rect x="31.2" y="37.5" width="100" height="100"/>
		</g>
	</g>
	<g transform="translate(288,192) scale(0.16,0.16)">
		<g transform="">
			<rect x="31.2" y="37.5" width="100" height="100"/>
		</g>
	</g>
	<g transform="translate(384,192) scale(0.16,0.16)">
		<g transform="">
			<rect x="31.2" y="37.5" width="100" height="100"/>
		</g>
	</g>
	<g transform="translate(16,208) scale(0.16,0.16)">
		<g transform="">
			<rect x="31.2" y="37.5" width="100" height="100"/>
		</g>
	</g>
	<g transform="translate(32,208) scale(0.16,0.16)">
		<g transform="">
			<rect x="31.2" y="37.5" width="100" height="100"/>
		</g>
	</g>
	<g transform="translate(48,208) scale(0.16,0.16)">
		<g transform="">
			<rect x="31.2" y="37.5" width="100" height="100"/>
		</g>
	</g>
	<g transform="translate(80,208) scale(0.16,0.16)">
		<g transform="">
			<rect x="31.2" y="37.5" width="100" height="100"/>
		</g>
	</g>
	<g transform="translate(112,208) scale(0.16,0.16)">
		<g transform="">
			<rect x="31.2" y="37.5" width="100" height="100"/>
		</g>
	</g>
	<g transform="translate(160,208) scale(0.16,0.16)">
		<g transform="">
			<rect x="31.2" y="37.5" width="100" height="100"/>
		</g>
	</g>
	<g transform="translate(192,208) scale(0.16,0.16)">
		<g transform="">
			<rect x="31.2" y="37.5" width="100" height="100"/>
		</g>
	</g>
	<g transform="translate(208,208) scale(0.16,0.16)">
		<g transform="">
			<rect x="31.2" y="37.5" width="100" height="100"/>
		</g>
	</g>
	<g transform="translate(240,208) scale(0.16,0.16)">
		<g transform="">
			<rect x="31.2" y="37.5" width="100" height="100"/>
		</g>
	</g>
	<g transform="translate(256,208) scale(0.16,0.16)">
		<g transform="">
			<rect x="31.2" y="37.5" width="100" height="100"/>
		</g>
	</g>
	<g transform="translate(288,208) scale(0.16,0.16)">
		<g transform="">
			<rect x="31.2" y="37.5" width="100" height="100"/>
		</g>
	</g>
	<g transform="translate(304,208) scale(0.16,0.16)">
		<g transform="">
			<rect x="31.2" y="37.5" width="100" height="100"/>
		</g>
	</g>
	<g transform="translate(368,208) scale(0.16,0.16)">
		<g transform="">
			<rect x="31.2" y="37.5" width="100" height="100"/>
		</g>
	</g>
	<g transform="translate(384,208) scale(0.16,0.16)">
		<g transform="">
			<rect x="31.2" y="37.5" width="100" height="100"/>
		</g>
	</g>
	<g transform="translate(0,224) scale(0.16,0.16)">
		<g transform="">
			<rect x="31.2" y="37.5" width="100" height="100"/>
		</g>
	</g>
	<g transform="translate(16,224) scale(0.16,0.16)">
		<g transform="">
			<rect x="31.2" y="37.5" width="100" height="100"/>
		</g>
	</g>
	<g transform="translate(64,224) scale(0.16,0.16)">
		<g transform="">
			<rect x="31.2" y="37.5" width="100" height="100"/>
		</g>
	</g>
	<g transform="translate(96,224) scale(0.16,0.16)">
		<g transform="">
			<rect x="31.2" y="37.5" width="100" height="100"/>
		</g>
	</g>
	<g transform="translate(112,224) scale(0.16,0.16)">
		<g transform="">
			<rect x="31.2" y="37.5" width="100" height="100"/>
		</g>
	</g>
	<g transform="translate(144,224) scale(0.16,0.16)">
		<g transform="">
			<rect x="31.2" y="37.5" width="100" height="100"/>
		</g>
	</g>
	<g transform="translate(192,224) scale(0.16,0.16)">
		<g transform="">
			<rect x="31.2" y="37.5" width="100" height="100"/>
		</g>
	</g>
	<g transform="translate(208,224) scale(0.16,0.16)">
		<g transform="">
			<rect x="31.2" y="37.5" width="100" height="100"/>
		</g>
	</g>
	<g transform="translate(240,224) scale(0.16,0.16)">
		<g transform="">
			<rect x="31.2" y="37.5" width="100" height="100"/>
		</g>
	</g>
	<g transform="translate(336,224) scale(0.16,0.16)">
		<g transform="">
			<rect x="31.2" y="37.5" width="100" height="100"/>
		</g>
	</g>
	<g transform="translate(352,224) scale(0.16,0.16)">
		<g transform="">
			<rect x="31.2" y="37.5" width="100" height="100"/>
		</g>
	</g>
	<g transform="translate(384,224) scale(0.16,0.16)">
		<g transform="">
			<rect x="31.2" y="37.5" width="100" height="100"/>
		</g>
	</g>
	<g transform="translate(32,240) scale(0.16,0.16)">
		<g transform="">
			<rect x="31.2" y="37.5" width="100" height="100"/>
		</g>
	</g>
	<g transform="translate(48,240) scale(0.16,0.16)">
		<g transform="">
			<rect x="31.2" y="37.5" width="100" height="100"/>
		</g>
	</g>
	<g transform="translate(64,240) scale(0.16,0.16)">
		<g transform="">
			<rect x="31.2" y="37.5" width="100" height="100"/>
		</g>
	</g>
	<g transform="translate(80,240) scale(0.16,0.16)">
		<g transform="">
			<rect x="31.2" y="37.5" width="100" height="100"/>
		</g>
	</g>
	<g transform="translate(112,240) scale(0.16,0.16)">
		<g transform="">
			<rect x="31.2" y="37.5" width="100" height="100"/>
		</g>
	</g>
	<g transform="translate(160,240) scale(0.16,0.16)">
		<g transform="">
			<rect x="31.2" y="37.5" width="100" height="100"/>
		</g>
	</g>
	<g transform="translate(176,240) scale(0.16,0.16)">
		<g transform="">
			<rect x="31.2" y="37.5" width="100" height="100"/>
		</g>
	</g>
	<g transform="translate(192,240) scale(0.16,0.16)">
		<g transform="">
			<rect x="31.2" y="37.5" width="100" height="100"/>
		</g>
	</g>
	<g transform="translate(256,240) scale(0.16,0.16)">
		<g transform="">
			<rect x="31.2" y="37.5" width="100" height="100"/>
		</g>
	</g>
	<g transform="translate(272,240) scale(0.16,0.16)">
		<g transform="">
			<rect x="31.2" y="37.5" width="100" height="100"/>
		</g>
	</g>
	<g transform="translate(288,240) scale(0.16,0.16)">
		<g transform="">
			<rect x="31.2" y="37.5" width="100" height="100"/>
		</g>
	</g>
	<g transform="translate(304,240) scale(0.16,0.16)">
		<g transform="">
			<rect x="31.2" y="37.5" width="100" height="100"/>
		</g>
	</g>
	<g transform="translate(320,240) scale(0.16,0.16)">
		<g transform="">
			<rect x="31.2" y="37.5" width="100" height="100"/>
		</g>
	</g>
	<g transform="translate(336,240) scale(0.16,0.16)">
		<g transform="">
			<rect x="31.2" y="37.5" width="100" height="100"/>
		</g>
	</g>
	<g transform="translate(0,256) scale(0.16,0.16)">
		<g transform="">
			<rect x="31.2" y="37.5" width="100" height="100"/>
		</g>
	</g>
	<g transform="translate(16,256) scale(0.16,0.16)">
		<g transform="">
			<rect x="31.2" y="37.5" width="100" height="100"/>
		</g>
	</g>
	<g transform="translate(48,256) scale(0.16,0.16)">
		<g transform="">
			<rect x="31.2" y="37.5" width="100" height="100"/>
		</g>
	</g>
	<g transform="translate(64,256) scale(0.16,0.16)">
		<g transform="">
			<rect x="31.2" y="37.5" width="100" height="100"/>
		</g>
	</g>
	<g transform="translate(96,256) scale(0.16,0.16)">
		<g transform="">
			<rect x="31.2" y="37.5" width="100" height="100"/>
		</g>
	</g>
	<g transform="translate(160,256) scale(0.16,0.16)">
		<g transform="">
			<rect x="31.2" y="37.5" width="100" height="100"/>
		</g>
	</g>
	<g transform="translate(192,256) scale(0.16,0.16)">
		<g transform="">
			<rect x="31.2" y="37.5" width="100" height="100"/>
		</g>
	</g>
	<g transform="translate(240,256) scale(0.16,0.16)">
		<g transform="">
			<rect x="31.2" y="37.5" width="100" height="100"/>
		</g>
	</g>
	<g transform="translate(256,256) scale(0.16,0.16)">
		<g transform="">
			<rect x="31.2" y="37.5" width="100" height="100"/>
		</g>
	</g>
	<g transform="translate(272,256) scale(0.16,0.16)">
		<g transform="">
			<rect x="31.2" y="37.5" width="100" height="100"/>
		</g>
	</g>
	<g transform="translate(288,256) scale(0.16,0.16)">
		<g transform="">
			<rect x="31.2" y="37.5" width="100" height="100"/>
		</g>
	</g>
	<g transform="translate(304,256) scale(0.16,0.16)">
		<g transform="">
			<rect x="31.2" y="37.5" width="100" height="100"/>
		</g>
	</g>
	<g transform="translate(320,256) scale(0.16,0.16)">
		<g transform="">
			<rect x="31.2" y="37.5" width="100" height="100"/>
		</g>
	</g>
	<g transform="translate(368,256) scale(0.16,0.16)">
		<g transform="">
			<rect x="31.2" y="37.5" width="100" height="100"/>
		</g>
	</g>
	<g transform="translate(128,272) scale(0.16,0.16)">
		<g transform="">
			<rect x="31.2" y="37.5" width="100" height="100"/>
		</g>
	</g>
	<g transform="translate(208,272) scale(0.16,0.16)">
		<g transform="">
			<rect x="31.2" y="37.5" width="100" height="100"/>
		</g>
	</g>
	<g transform="translate(240,272) scale(0.16,0.16)">
		<g transform="">
			<rect x="31.2" y="37.5" width="100" height="100"/>
		</g>
	</g>
	<g transform="translate(256,272) scale(0.16,0.16)">
		<g transform="">
			<rect x="31.2" y="37.5" width="100" height="100"/>
		</g>
	</g>
	<g transform="translate(320,272) scale(0.16,0.16)">
		<g transform="">
			<rect x="31.2" y="37.5" width="100" height="100"/>
		</g>
	</g>
	<g transform="translate(384,272) scale(0.16,0.16)">
		<g transform="">
			<rect x="31.2" y="37.5" width="100" height="100"/>
		</g>
	</g>
	<g transform="translate(128,288) scale(0.16,0.16)">
		<g transform="">
			<rect x="31.2" y="37.5" width="100" height="100"/>
		</g>
	</g>
	<g transform="translate(160,288) scale(0.16,0.16)">
		<g transform="">
			<rect x="31.2" y="37.5" width="100" height="100"/>
		</g>
	</g>
	<g transform="translate(176,288) scale(0.16,0.16)">
		<g transform="">
			<rect x="31.2" y="37.5" width="100" height="100"/>
		</g>
	</g>
	<g transform="translate(256,288) scale(0.16,0.16)">
		<g transform="">
			<rect x="31.2" y="37.5" width="100" height="100"/>
		</g>
	</g>
	<g transform="translate(288,288) scale(0.16,0.16)">
		<g transform="">
			<rect x="31.2" y="37.5" width="100" height="100"/>
		</g>
	</g>
	<g transform="translate(320,288) scale(0.16,0.16)">
		<g transform="">
			<rect x="31.2" y="37.5" width="100" height="100"/>
		</g>
	</g>
	<g transform="translate(384,288) scale(0.16,0.16)">
		<g transform="">
			<rect x="31.2" y="37.5" width="100" height="100"/>
		</g>
	</g>
	<g transform="translate(144,304) scale(0.16,0.16)">
		<g transform="">
			<rect x="31.2" y="37.5" width="100" height="100"/>
		</g>
	</g>
	<g transform="translate(160,304) scale(0.16,0.16)">
		<g transform="">
			<rect x="31.2" y="37.5" width="100" height="100"/>
		</g>
	</g>
	<g transform="translate(176,304) scale(0.16,0.16)">
		<g transform="">
			<rect x="31.2" y="37.5" width="100" height="100"/>
		</g>
	</g>
	<g transform="translate(224,304) scale(0.16,0.16)">
		<g transform="">
			<rect x="31.2" y="37.5" width="100" height="100"/>
		</g>
	</g>
	<g transform="translate(240,304) scale(0.16,0.16)">
		<g transform="">
			<rect x="31.2" y="37.5" width="100" height="100"/>
		</g>
	</g>
	<g transform="translate(256,304) scale(0.16,0.16)">
		<g transform="">
			<rect x="31.2" y="37.5" width="100" height="100"/>
		</g>
	</g>
	<g transform="translate(320,304) scale(0.16,0.16)">
		<g transform="">
			<rect x="31.2" y="37.5" width="100" height="100"/>
		</g>
	</g>
	<g transform="translate(368,304) scale(0.16,0.16)">
		<g transform="">
			<rect x="31.2" y="37.5" width="100" height="100"/>
		</g>
	</g>
	<g transform="translate(144,320) scale(0.16,0.16)">
		<g transform="">
			<rect x="31.2" y="37.5" width="100" height="100"/>
		</g>
	</g>
	<g transform="translate(160,320) scale(0.16,0.16)">
		<g transform="">
			<rect x="31.2" y="37.5" width="100" height="100"/>
		</g>
	</g>
	<g transform="translate(176,320) scale(0.16,0.16)">
		<g transform="">
			<rect x="31.2" y="37.5" width="100" height="100"/>
		</g>
	</g>
	<g transform="translate(208,320) scale(0.16,0.16)">
		<g transform="">
			<rect x="31.2" y="37.5" width="100" height="100"/>
		</g>
	</g>
	<g transform="translate(240,320) scale(0.16,0.16)">
		<g transform="">
			<rect x="31.2" y="37.5" width="100" height="100"/>
		</g>
	</g>
	<g transform="translate(256,320) scale(0.16,0.16)">
		<g transform="">
			<rect x="31.2" y="37.5" width="100" height="100"/>
		</g>
	</g>
	<g transform="translate(272,320) scale(0.16,0.16)">
		<g transform="">
			<rect x="31.2" y="37.5" width="100" height="100"/>
		</g>
	</g>
	<g transform="translate(288,320) scale(0.16,0.16)">
		<g transform="">
			<rect x="31.2" y="37.5" width="100" height="100"/>
		</g>
	</g>
	<g transform="translate(304,320) scale(0.16,0.16)">
		<g transform="">
			<rect x="31.2" y="37.5" width="100" height="100"/>
		</g>
	</g>
	<g transform="translate(320,320) scale(0.16,0.16)">
		<g transform="">
			<rect x="31.2" y="37.5" width="100" height="100"/>
		</g>
	</g>
	<g transform="translate(368,320) scale(0.16,0.16)">
		<g transform="">
			<rect x="31.2" y="37.5" width="100" height="100"/>
		</g>
	</g>
	<g transform="translate(160,336) scale(0.16,0.16)">
		<g transform="">
			<rect x="31.2" y="37.5" width="100" height="100"/>
		</g>
	</g>
	<g transform="translate(192,336) scale(0.16,0.16)">
		<g transform="">
			<rect x="31.2" y="37.5" width="100" height="100"/>
		</g>
	</g>
	<g transform="translate(208,336) scale(0.16,0.16)">
		<g transform="">
			<rect x="31.2" y="37.5" width="100" height="100"/>
		</g>
	</g>
	<g transform="translate(272,336) scale(0.16,0.16)">
		<g transform="">
			<rect x="31.2" y="37.5" width="100" height="100"/>
		</g>
	</g>
	<g transform="translate(320,336) scale(0.16,0.16)">
		<g transform="">
			<rect x="31.2" y="37.5" width="100" height="100"/>
		</g>
	</g>
	<g transform="translate(352,336) scale(0.16,0.16)">
		<g transform="">
			<rect x="31.2" y="37.5" width="100" height="100"/>
		</g>
	</g>
	<g transform="translate(368,336) scale(0.16,0.16)">
		<g transform="">
			<rect x="31.2" y="37.5" width="100" height="100"/>
		</g>
	</g>
	<g transform="translate(128,352) scale(0.16,0.16)">
		<g transform="">
			<rect x="31.2" y="37.5" width="100" height="100"/>
		</g>
	</g>
	<g transform="translate(160,352) scale(0.16,0.16)">
		<g transform="">
			<rect x="31.2" y="37.5" width="100" height="100"/>
		</g>
	</g>
	<g transform="translate(176,352) scale(0.16,0.16)">
		<g transform="">
			<rect x="31.2" y="37.5" width="100" height="100"/>
		</g>
	</g>
	<g transform="translate(224,352) scale(0.16,0.16)">
		<g transform="">
			<rect x="31.2" y="37.5" width="100" height="100"/>
		</g>
	</g>
	<g transform="translate(256,352) scale(0.16,0.16)">
		<g transform="">
			<rect x="31.2" y="37.5" width="100" height="100"/>
		</g>
	</g>
	<g transform="translate(304,352) scale(0.16,0.16)">
		<g transform="">
			<rect x="31.2" y="37.5" width="100" height="100"/>
		</g>
	</g>
	<g transform="translate(320,352) scale(0.16,0.16)">
		<g transform="">
			<rect x="31.2" y="37.5" width="100" height="100"/>
		</g>
	</g>
	<g transform="translate(336,352) scale(0.16,0.16)">
		<g transform="">
			<rect x="31.2" y="37.5" width="100" height="100"/>
		</g>
	</g>
	<g transform="translate(368,352) scale(0.16,0.16)">
		<g transform="">
			<rect x="31.2" y="37.5" width="100" height="100"/>
		</g>
	</g>
	<g transform="translate(384,352) scale(0.16,0.16)">
		<g transform="">
			<rect x="31.2" y="37.5" width="100" height="100"/>
		</g>
	</g>
	<g transform="translate(160,368) scale(0.16,0.16)">
		<g transform="">
			<rect x="31.2" y="37.5" width="100" height="100"/>
		</g>
	</g>
	<g transform="translate(176,368) scale(0.16,0.16)">
		<g transform="">
			<rect x="31.2" y="37.5" width="100" height="100"/>
		</g>
	</g>
	<g transform="translate(192,368) scale(0.16,0.16)">
		<g transform="">
			<rect x="31.2" y="37.5" width="100" height="100"/>
		</g>
	</g>
	<g transform="translate(224,368) scale(0.16,0.16)">
		<g transform="">
			<rect x="31.2" y="37.5" width="100" height="100"/>
		</g>
	</g>
	<g transform="translate(240,368) scale(0.16,0.16)">
		<g transform="">
			<rect x="31.2" y="37.5" width="100" height="100"/>
		</g>
	</g>
	<g transform="translate(256,368) scale(0.16,0.16)">
		<g transform="">
			<rect x="31.2" y="37.5" width="100" height="100"/>
		</g>
	</g>
	<g transform="translate(304,368) scale(0.16,0.16)">
		<g transform="">
			<rect x="31.2" y="37.5" width="100" height="100"/>
		</g>
	</g>
	<g transform="translate(320,368) scale(0.16,0.16)">
		<g transform="">
			<rect x="31.2" y="37.5" width="100" height="100"/>
		</g>
	</g>
	<g transform="translate(128,384) scale(0.16,0.16)">
		<g transform="">
			<rect x="31.2" y="37.5" width="100" height="100"/>
		</g>
	</g>
	<g transform="translate(192,384) scale(0.16,0.16)">
		<g transform="">
			<rect x="31.2" y="37.5" width="100" height="100"/>
		</g>
	</g>
	<g transform="translate(208,384) scale(0.16,0.16)">
		<g transform="">
			<rect x="31.2" y="37.5" width="100" height="100"/>
		</g>
	</g>
	<g transform="translate(256,384) scale(0.16,0.16)">
		<g transform="">
			<rect x="31.2" y="37.5" width="100" height="100"/>
		</g>
	</g>
	<g transform="translate(272,384) scale(0.16,0.16)">
		<g transform="">
			<rect x="31.2" y="37.5" width="100" height="100"/>
		</g>
	</g>
	<g transform="translate(336,384) scale(0.16,0.16)">
		<g transform="">
			<rect x="31.2" y="37.5" width="100" height="100"/>
		</g>
	</g>
	<g transform="translate(384,384) scale(0.16,0.16)">
		<g transform="">
			<rect x="31.2" y="37.5" width="100" height="100"/>
		</g>
	</g>
	<g transform="translate(0,0) scale(1.12, 1.12)">
		<g transform="">
			<g>
				<path class="st9" d="M70.3,20.4H38.6c-4.1,0-7.9,1.3-11,3.4c-2.4,1.7-4.4,3.9-5.8,6.4c-1.5,2.7-2.3,5.7-2.3,8.9v32.5
					c0,10.3,8.6,18.8,19.1,18.8l15.9,0l15.9,0c10.6,0,19.1-8.4,19.1-18.8V39.1C89.5,28.8,80.9,20.4,70.3,20.4z"/>
				<path d="M70.3,5.4H38.6l0,0c-15.5,0-28.6,10.2-32.7,24.2c-0.4,1.4-0.8,2.9-1,4.4c-0.3,1.7-0.4,3.4-0.4,5.1v32.5
					c0,18.6,15.3,33.8,34.1,33.8l15.9,0l15.9,0c18.8,0,34.1-15.1,34.1-33.8V39.1C104.5,20.5,89.1,5.4,70.3,5.4z M89.5,71.6
					c0,10.3-8.6,18.8-19.1,18.8l-15.9,0l-15.9,0c-10.6,0-19.1-8.4-19.1-18.8V39.1c0-3.2,0.8-6.3,2.3-8.9c1.4-2.6,3.4-4.8,5.8-6.4
					c3.1-2.1,6.9-3.4,11-3.4h31.7c10.6,0,19.1,8.4,19.1,18.8V71.6z"/>
			</g>
		</g>
	</g>
	<g transform="translate(288,0) scale(1.12, 1.12)">
		<g transform="">
			<g>
				<path class="st9" d="M70.3,20.4H38.6c-4.1,0-7.9,1.3-11,3.4c-2.4,1.7-4.4,3.9-5.8,6.4c-1.5,2.7-2.3,5.7-2.3,8.9v32.5
					c0,10.3,8.6,18.8,19.1,18.8l15.9,0l15.9,0c10.6,0,19.1-8.4,19.1-18.8V39.1C89.5,28.8,80.9,20.4,70.3,20.4z"/>
				<path d="M70.3,5.4H38.6l0,0c-15.5,0-28.6,10.2-32.7,24.2c-0.4,1.4-0.8,2.9-1,4.4c-0.3,1.7-0.4,3.4-0.4,5.1v32.5
					c0,18.6,15.3,33.8,34.1,33.8l15.9,0l15.9,0c18.8,0,34.1-15.1,34.1-33.8V39.1C104.5,20.5,89.1,5.4,70.3,5.4z M89.5,71.6
					c0,10.3-8.6,18.8-19.1,18.8l-15.9,0l-15.9,0c-10.6,0-19.1-8.4-19.1-18.8V39.1c0-3.2,0.8-6.3,2.3-8.9c1.4-2.6,3.4-4.8,5.8-6.4
					c3.1-2.1,6.9-3.4,11-3.4h31.7c10.6,0,19.1,8.4,19.1,18.8V71.6z"/>
			</g>
		</g>
	</g>
	<g transform="translate(0,288) scale(1.12, 1.12)">
		<g transform="">
			<g>
				<path class="st9" d="M70.3,20.4H38.6c-4.1,0-7.9,1.3-11,3.4c-2.4,1.7-4.4,3.9-5.8,6.4c-1.5,2.7-2.3,5.7-2.3,8.9v32.5
					c0,10.3,8.6,18.8,19.1,18.8l15.9,0l15.9,0c10.6,0,19.1-8.4,19.1-18.8V39.1C89.5,28.8,80.9,20.4,70.3,20.4z"/>
				<path d="M70.3,5.4H38.6l0,0c-15.5,0-28.6,10.2-32.7,24.2c-0.4,1.4-0.8,2.9-1,4.4c-0.3,1.7-0.4,3.4-0.4,5.1v32.5
					c0,18.6,15.3,33.8,34.1,33.8l15.9,0l15.9,0c18.8,0,34.1-15.1,34.1-33.8V39.1C104.5,20.5,89.1,5.4,70.3,5.4z M89.5,71.6
					c0,10.3-8.6,18.8-19.1,18.8l-15.9,0l-15.9,0c-10.6,0-19.1-8.4-19.1-18.8V39.1c0-3.2,0.8-6.3,2.3-8.9c1.4-2.6,3.4-4.8,5.8-6.4
					c3.1-2.1,6.9-3.4,11-3.4h31.7c10.6,0,19.1,8.4,19.1,18.8V71.6z"/>
			</g>
		</g>
	</g>
	<g transform="translate(32,32) scale(0.48, 0.48)">
		<g transform="">
			<rect x="10.4" y="12.5" width="100" height="100"/>
		</g>
	</g>
	<g transform="translate(320,32) scale(0.48, 0.48)">
		<g transform="">
			<rect x="10.4" y="12.5" width="100" height="100"/>
		</g>
	</g>
	<g transform="translate(32,320) scale(0.48, 0.48)">
		<g transform="">
			<rect x="10.4" y="12.5" width="100" height="100"/>
		</g>
	</g>
</g>
</svg>
