<?xml version="1.0" encoding="utf-8"?>
<!-- Generator: Adobe Illustrator 19.2.0, SVG Export Plug-In . SVG Version: 6.00 Build 0)  -->
<svg version="1.1" id="Layer_1" xmlns="http://www.w3.org/2000/svg" xmlns:xlink="http://www.w3.org/1999/xlink" x="0px" y="0px"
	 viewBox="0 0 50 50" enable-background="new 0 0 50 50" xml:space="preserve">
<g>
	<g>
		<path fill="#1890FF" d="M9.832,35.671c-2.316,0-4.2-1.885-4.2-4.202c0-2.315,1.884-4.199,4.2-4.199c2.316,0,4.2,1.884,4.2,4.199
			C14.031,33.787,12.147,35.671,9.832,35.671z M9.832,28.757c-1.496,0-2.714,1.217-2.714,2.713c0,1.497,1.218,2.716,2.714,2.716
			c1.496,0,2.713-1.218,2.713-2.716C12.545,29.974,11.328,28.757,9.832,28.757z"/>
	</g>
	<g>
		<path fill="#1890FF" d="M9.832,33.706c-1.233,0-2.237-1.004-2.237-2.237c0-1.232,1.003-2.235,2.237-2.235s2.237,1.003,2.237,2.235
			C12.068,32.702,11.065,33.706,9.832,33.706z M9.832,30.721c-0.414,0-0.75,0.336-0.75,0.749c0,0.414,0.337,0.75,0.75,0.75
			s0.75-0.337,0.75-0.75C10.582,31.057,10.245,30.721,9.832,30.721z"/>
	</g>
	<g>
		<path fill="#1890FF" d="M40.167,35.629c-2.294,0-4.16-1.866-4.16-4.16c0-2.293,1.866-4.158,4.16-4.158
			c2.293,0,4.158,1.865,4.158,4.158C44.325,33.763,42.46,35.629,40.167,35.629z M40.167,28.798c-1.474,0-2.673,1.199-2.673,2.672
			c0,1.474,1.199,2.673,2.673,2.673c1.474,0,2.672-1.2,2.672-2.673C42.839,29.996,41.64,28.798,40.167,28.798z"/>
	</g>
	<g>
		<path fill="#1890FF" d="M40.167,33.697c-1.229,0-2.228-0.999-2.228-2.228s0.999-2.228,2.228-2.228
			c1.228,0,2.226,0.999,2.226,2.228S41.394,33.697,40.167,33.697z M40.167,30.728c-0.409,0-0.742,0.332-0.742,0.742
			s0.333,0.742,0.742,0.742c0.408,0,0.74-0.332,0.74-0.742S40.575,30.728,40.167,30.728z"/>
	</g>
	<g>
		<path fill="#1890FF" d="M14.955,23.744c-0.311,0-0.59-0.194-0.698-0.488c-0.11-0.299-0.016-0.635,0.233-0.835
			c0,0,1.737-1.395,2.444-1.972c5.049-4.121,10.5-4.121,12.828-4.121h1.335c2.225,0,5.766,0.642,8.427,2.451
			c1.964,1.337,3.16,3.05,3.209,3.123c0.155,0.225,0.175,0.516,0.051,0.759c-0.124,0.243-0.371,0.399-0.644,0.406l-27.167,0.676
			C14.967,23.744,14.961,23.744,14.955,23.744z M29.762,17.815c-2.169,0-7.249,0-11.889,3.786c-0.191,0.156-0.456,0.371-0.743,0.602
			l23.433-0.583c-0.475-0.5-1.113-1.092-1.876-1.611c-2.381-1.619-5.577-2.193-7.591-2.193H29.762z"/>
	</g>
	<g>
		<path fill="#1890FF" d="M26.994,32.226c-0.41,0-0.743-0.332-0.743-0.743V17.308c0-0.41,0.333-0.743,0.743-0.743
			s0.743,0.333,0.743,0.743v14.174C27.737,31.893,27.405,32.226,26.994,32.226z"/>
	</g>
	<g>
		<path fill="#1890FF" d="M49.257,32.213h-3.93c-0.41,0-0.743-0.332-0.743-0.743c0-2.435-1.981-4.417-4.417-4.417
			c-2.436,0-4.418,1.981-4.418,4.417c0,0.411-0.333,0.743-0.743,0.743h-20c-0.41,0-0.743-0.332-0.743-0.743
			c0-2.443-1.988-4.431-4.431-4.431s-4.431,1.988-4.431,4.431c0,0.411-0.333,0.743-0.743,0.743H0.743C0.333,32.213,0,31.88,0,31.47
			v-2.761c0-0.316,0.2-0.598,0.499-0.702l0.766-0.266l0.178-0.659c0.055-2.558,2.152-4.622,4.722-4.622l37.858-0.879
			c2.622,0,4.74,2.118,4.74,4.721v1.469l0.72,0.23C49.791,28.099,50,28.386,50,28.709v2.761C50,31.88,49.667,32.213,49.257,32.213z
			 M46.023,30.726h2.491v-1.475l-0.72-0.23c-0.308-0.098-0.517-0.384-0.517-0.708v-2.012c0-1.784-1.452-3.235-3.237-3.235
			L6.183,23.947c-1.803,0-3.255,1.453-3.255,3.238c0,0.066-0.009,0.131-0.026,0.194l-0.306,1.129
			c-0.064,0.237-0.241,0.427-0.474,0.508l-0.637,0.221v1.489h2.475c0.367-2.913,2.86-5.174,5.871-5.174s5.504,2.261,5.871,5.174
			h18.607c0.367-2.905,2.854-5.16,5.858-5.16C43.17,25.567,45.656,27.821,46.023,30.726z"/>
	</g>
	<g>
		<path fill="#1890FF" d="M39.353,27.117c-0.41,0-0.743-0.333-0.743-0.743v-3.801c0-0.41,0.333-0.743,0.743-0.743
			s0.743,0.333,0.743,0.743v3.801C40.096,26.784,39.763,27.117,39.353,27.117z"/>
	</g>
	<g>
		<path fill="#1890FF" d="M15.376,32.213c-0.41,0-0.743-0.332-0.743-0.743v-8.367c0-0.41,0.333-0.743,0.743-0.743
			s0.743,0.333,0.743,0.743v8.367C16.119,31.88,15.786,32.213,15.376,32.213z"/>
	</g>
</g>
</svg>
