<?xml version="1.0" encoding="utf-8"?>
<!-- Generator: Adobe Illustrator 24.0.1, SVG Export Plug-In . SVG Version: 6.00 Build 0)  -->
<svg version="1.1" id="artwork" xmlns="http://www.w3.org/2000/svg" xmlns:xlink="http://www.w3.org/1999/xlink" x="0px" y="0px"
	 viewBox="0 0 474 596.8" style="enable-background:new 0 0 474 596.8;" xml:space="preserve">
<style type="text/css">
	.st0{fill:#FFFFFF;}
	.st1{fill:none;}
</style>
<path d="M17.6,455.3h438.8c9.7,0,17.6-30.8,17.6-21v144.8c0,9.8-7.9,17.7-17.6,17.7H17.6c-9.7,0-17.6-7.9-17.6-17.7V434.3
	C0.1,424.5,7.9,455.3,17.6,455.3z"/>
<g>
	<path class="st0" d="M29.6,5h414.7C458,5,469,16,469,29.6v414.7c0,13.6-11,24.6-24.6,24.6H29.6C16,469,5,458,5,444.4V29.6
		C5,16,16,5,29.6,5z"/>
	<path d="M444.4,474H29.6C13.3,474,0,460.7,0,444.4V29.6C0,13.3,13.3,0,29.6,0h414.7C460.7,0,474,13.3,474,29.6v414.7
		C474,460.7,460.7,474,444.4,474z M29.6,10C18.8,10,10,18.8,10,29.6v414.7c0,10.8,8.8,19.6,19.6,19.6h414.7
		c10.8,0,19.6-8.8,19.6-19.6V29.6c0-10.8-8.8-19.6-19.6-19.6H29.6z"/>
</g>
<g>
	<g>
		<path class="st0" d="M106.4,524.6c0.1-7,3.8-13.4,9.7-17.1c-3.8-5.4-9.9-8.7-16.4-8.9c-7-0.7-13.6,4.1-17.1,4.1s-9-4.1-14.9-3.9
			C60,499,53,503.3,49.2,510c-8,13.8-2,34,5.6,45.2c3.8,5.4,8.3,11.6,14,11.3c5.8-0.2,7.8-3.5,14.7-3.5s8.8,3.5,14.8,3.5
			s10-5.5,13.7-11c2.7-3.9,4.8-8.2,6.2-12.7C111,539.8,106.3,532.6,106.4,524.6z"/>
		<path class="st0" d="M95.2,491.4c3.3-4,5-9.2,4.6-14.4c-5.1,0.5-9.8,3-13.2,6.8c-3.3,3.8-5,8.8-4.7,13.8
			C87,497.7,91.9,495.4,95.2,491.4z"/>
	</g>
	<g>
		<path class="st0" d="M188.9,565.8h-8l-4.4-13.7h-15.1l-4.2,13.7h-7.8l15-46.7h9.3L188.9,565.8z M175.3,546.5l-3.9-12.4
			c-0.4-1.2-1.2-4.2-2.4-8.8l0,0c-0.5,2-1.2,4.9-2.2,8.8l-4,12.4H175.3z"/>
		<path class="st0" d="M227.6,548.6c0.3,5-1.4,9.8-4.6,13.6c-2.6,2.9-6.4,4.5-10.3,4.4c-3.8,0.3-7.5-1.5-9.6-4.8l0,0v17.7h-7.7
			v-36.3c0-3.6-0.1-7.3-0.3-11.1h6.6l0.4,5.3l0,0c4-6.2,12.3-7.9,18.4-3.9c1.1,0.7,2.1,1.6,2.9,2.6
			C226.3,539.6,227.8,544.1,227.6,548.6z M220,548.8c0.1-2.9-0.7-5.7-2.3-8.1c-1.5-2.2-3.9-3.4-6.5-3.3c-1.8,0-3.6,0.6-5,1.8
			c-1.5,1.2-2.5,2.9-2.9,4.8c-0.2,0.7-0.3,1.5-0.4,2.3v5.6c-0.1,2.3,0.7,4.5,2.2,6.2s3.6,2.6,5.9,2.5c2.7,0.2,5.2-1.1,6.7-3.2
			C219.4,554.9,220.2,551.9,220,548.8z"/>
		<path class="st0" d="M266.4,548.6c0.3,5-1.4,9.8-4.6,13.6c-2.6,2.9-6.4,4.5-10.3,4.4c-3.8,0.3-7.5-1.5-9.6-4.8l0,0v17.7h-7.7
			v-36.3c0-3.6-0.1-7.3-0.3-11.1h6.6l0.4,5.3l0,0c4-6.2,12.3-7.9,18.4-3.9c1.1,0.7,2.1,1.6,2.9,2.6
			C265.1,539.6,266.6,544,266.4,548.6z M258.8,548.8c0.1-2.9-0.7-5.7-2.2-8.1c-1.5-2.2-3.9-3.4-6.5-3.3c-1.8,0-3.6,0.6-5,1.8
			c-1.5,1.2-2.5,2.9-2.9,4.8c-0.2,0.7-0.3,1.5-0.4,2.3v5.6c-0.1,2.3,0.7,4.5,2.2,6.2s3.6,2.6,5.9,2.5c2.6,0.1,5-1.1,6.5-3.2
			C258,554.9,258.9,551.9,258.8,548.8z"/>
		<path class="st0" d="M309.7,552.7c0.1,3.7-1.5,7.3-4.2,9.7c-3.6,2.9-8.1,4.3-12.6,4.1c-4.2,0.2-8.3-0.8-11.9-2.9l1.7-6.2
			c3.3,2,7,3,10.8,3c2.4,0.1,4.7-0.5,6.6-1.9c1.5-1.2,2.4-3.1,2.4-5.1c0-1.8-0.7-3.5-1.9-4.8c-1.9-1.6-4.1-2.8-6.5-3.5
			c-8.2-3-12.3-7.5-12.3-13.4c-0.2-3.7,1.3-7.3,4.1-9.7c3.3-2.5,7.3-3.8,11.4-3.5c3.6-0.1,7.3,0.6,10.5,2.2l-1.9,6.1
			c-2.8-1.5-5.8-2.2-9-2.1c-2.2-0.1-4.4,0.5-6.2,1.9c-1.2,1.1-1.9,2.6-1.9,4.2c0,1.8,0.8,3.5,2.1,4.6c2.1,1.5,4.4,2.7,6.8,3.5
			c3.4,1.2,6.4,3.1,8.9,5.7C308.8,546.8,309.8,549.7,309.7,552.7z"/>
		<path class="st0" d="M334.5,537.7h-8.3v16.4c0,4.2,1.5,6.2,4.4,6.2c1.1,0,2.2-0.1,3.3-0.4l0.2,5.7c-1.9,0.6-3.9,0.9-5.8,0.8
			c-2.6,0.2-5.2-0.8-7-2.7c-1.9-2.6-2.8-5.9-2.5-9.1v-17h-4.9V532h4.9v-6.2l7.3-2.2v8.4h8.3v5.6L334.5,537.7L334.5,537.7z"/>
		<path class="st0" d="M371.7,548.7c0.2,4.7-1.4,9.2-4.4,12.7c-3.2,3.5-7.7,5.3-12.4,5.1c-4.5,0.2-8.8-1.6-11.8-4.9
			c-3-3.4-4.6-7.9-4.4-12.4c-0.2-4.7,1.4-9.3,4.5-12.8c3.1-3.4,7.6-5.2,12.2-5c4.5-0.2,8.9,1.6,11.9,4.9
			C370.4,539.8,371.9,544.2,371.7,548.7z M363.9,548.9c0.1-2.8-0.6-5.6-2-8c-1.3-2.5-3.9-4.1-6.7-4c-2.9-0.1-5.7,1.4-7,4
			c-1.4,2.5-2.1,5.3-2,8.1c0,2.8,0.7,5.5,2.1,7.9c2,3.7,6.6,5.2,10.4,3.2c1.3-0.7,2.5-1.8,3.2-3.2
			C363.3,554.6,364,551.8,363.9,548.9z"/>
		<path class="st0" d="M396,538.7c-0.8-0.1-1.6-0.2-2.4-0.2c-2.4-0.1-4.7,1-6.1,3c-1.3,2-2,4.3-1.9,6.7v17.6h-7.5v-23.1
			c0-3.9-0.1-7.4-0.3-10.5h6.5l0.3,6.5h0.2c0.7-2.1,2-4,3.8-5.3c1.6-1.2,3.5-1.8,5.4-1.8c0.6,0,1.2,0,1.9,0v7L396,538.7z"/>
		<path class="st0" d="M429.5,547.4c0,1.2-0.1,2.4-0.3,3.5h-22.5c-0.1,2.9,1.1,5.7,3.3,7.6c2.1,1.6,4.7,2.5,7.3,2.4
			c3.1,0,6.2-0.5,9.1-1.6l1.2,5.2c-3.6,1.5-7.4,2.2-11.3,2.1c-4.6,0.3-9-1.4-12.3-4.6c-3.1-3.4-4.7-7.8-4.5-12.4
			c-0.2-4.6,1.3-9.2,4.2-12.8c2.8-3.6,7.2-5.6,11.8-5.4c4.4-0.2,8.5,1.8,11,5.4C428.6,539.9,429.7,543.6,429.5,547.4z M422.5,545.4
			c0.1-2-0.4-4-1.4-5.8c-1.3-2.1-3.6-3.3-6-3.1c-2.4-0.1-4.6,1.1-6,3.1c-1.3,1.7-2,3.7-2.2,5.8H422.5z"/>
	</g>
	<g>
		<path class="st0" d="M172.8,490.3c0.3,3.5-1.1,7-3.7,9.3c-2.8,2.1-6.3,3.1-9.8,2.9c-1.8,0-3.6-0.1-5.4-0.3v-22.5
			c2.1-0.3,4.2-0.5,6.4-0.5c3.2-0.2,6.5,0.7,9.1,2.6C171.8,484.1,173,487.1,172.8,490.3z M169,490.3c0.2-2.3-0.6-4.5-2.1-6.2
			c-1.7-1.5-3.9-2.3-6.2-2.1c-1,0-2,0.1-2.9,0.2v17.2c0.8,0.1,1.7,0.1,2.5,0c2.4,0.2,4.7-0.5,6.5-2.1
			C168.3,495.4,169.1,492.9,169,490.3L169,490.3z"/>
		<path class="st0" d="M193.4,493.8c0.1,2.3-0.7,4.5-2.2,6.2c-1.6,1.7-3.8,2.6-6.1,2.5c-2.2,0.1-4.3-0.8-5.8-2.4
			c-1.5-1.7-2.3-3.9-2.2-6.1c-0.1-2.3,0.7-4.6,2.2-6.3c1.5-1.7,3.7-2.6,6-2.5c2.2-0.1,4.4,0.8,5.9,2.4
			C192.7,489.4,193.5,491.6,193.4,493.8z M189.6,493.8c0-1.2-0.4-2.4-1-3.5c-0.6-1.3-1.9-2-3.3-2c-1.5-0.1-2.8,0.7-3.5,2
			c-0.7,1.2-1,2.6-1,4s0.3,2.7,1,3.9c0.7,1.3,2.1,2.1,3.5,2c1.4,0.1,2.7-0.7,3.3-2c0.7-1.3,1.1-2.7,1-4.1V493.8z"/>
		<path class="st0" d="M221,485.8l-5.2,16.5h-3.5l-2.1-7c-0.5-1.8-1-3.5-1.3-5.3l0,0c-0.3,1.8-0.8,3.6-1.3,5.3l-2.3,7h-3.5
			l-4.7-16.5h3.8l1.9,8c0.4,1.8,0.8,3.6,1.1,5.3l0,0c0.3-1.4,0.7-3.1,1.4-5.3l2.4-7.9h3.2l2.2,7.7c0.5,1.9,1,3.7,1.3,5.4l0,0
			c0.3-1.8,0.7-3.6,1.1-5.4l2-7.7h3.5L221,485.8z"/>
		<path class="st0" d="M240.1,502.4h-3.5v-9.5c0-2.9-1.1-4.4-3.3-4.4c-1,0-2,0.4-2.7,1.2c-0.7,0.8-1,1.8-1,2.8v9.8H226v-11.8
			c0-1.5,0-3,0-4.7h3.2v2.6l0,0c0.4-0.8,1.1-1.5,1.9-2c1-0.6,2.2-1,3.3-0.9c1.4,0,2.8,0.5,3.9,1.5c1.4,1.5,2.1,3.5,1.9,5.5
			L240.1,502.4L240.1,502.4z"/>
		<path class="st0" d="M250.2,502.4h-3.5v-24.1h3.5V502.4L250.2,502.4z"/>
		<path class="st0" d="M271.9,493.8c0.1,2.3-0.7,4.5-2.2,6.2c-1.6,1.7-3.8,2.6-6.1,2.5c-2.2,0.1-4.3-0.8-5.8-2.4
			c-1.5-1.7-2.2-3.9-2.1-6.1c-0.1-2.3,0.7-4.6,2.2-6.3c1.5-1.7,3.7-2.6,6-2.5c2.2-0.1,4.4,0.8,5.9,2.4
			C271.2,489.4,272,491.6,271.9,493.8z M268,493.8c0-1.2-0.4-2.4-1-3.5c-0.6-1.3-1.9-2-3.3-2c-1.5-0.1-2.9,0.6-3.5,2
			c-0.7,1.2-1,2.6-1,4s0.3,2.7,1,3.9c0.7,1.3,2.1,2.1,3.5,2s2.6-0.9,3.1-2.2c0.8-1.2,1.2-2.6,1.2-4L268,493.8z"/>
		<path class="st0" d="M289.7,502.4h-3.3l-0.3-1.9l0,0c-1.1,1.5-2.9,2.4-4.8,2.3c-1.4,0.1-2.9-0.5-3.9-1.5c-0.9-0.9-1.4-2.2-1.3-3.5
			c-0.1-1.9,0.9-3.7,2.5-4.6c2.1-1.2,4.6-1.7,7-1.6v-0.1c0.2-1.6-0.9-3.1-2.6-3.3c-0.3,0-0.6,0-1,0c-1.5,0-3,0.4-4.3,1.2l-0.4-2.5
			c1.7-1,3.7-1.5,5.7-1.4c3.2-0.4,6.2,1.9,6.5,5.2c0.1,0.6,0,1.1,0,1.7v6.1C289.5,499.7,289.5,501,289.7,502.4z M285.8,496.7v-2.5
			c-4,0-6.1,1.1-6.1,3.3c-0.1,0.7,0.2,1.4,0.7,1.9c0.5,0.4,1.1,0.7,1.8,0.6c0.8,0,1.5-0.3,2.1-0.7
			C285.3,498.7,285.8,497.7,285.8,496.7z"/>
		<path class="st0" d="M310.6,502.4h-3.3v-2.7l0,0c-1,2-3.1,3.2-5.3,3c-1.9,0-3.8-0.8-5-2.4c-1.4-1.7-2.2-3.8-2.1-6
			c-0.1-2.4,0.7-4.7,2.1-6.5c1.2-1.4,3-2.3,4.9-2.4c1.9-0.2,3.7,0.7,4.7,2.2l0,0v-9.5h3.5v19.7C310.3,499.5,310.5,501,310.6,502.4z
			 M306.8,495.3v-2.7c0-0.4,0-0.8,0-1.2c-0.2-0.9-0.6-1.7-1.3-2.2c-0.7-0.6-1.6-0.9-2.5-0.9c-1.3,0-2.5,0.6-3.2,1.7
			c-0.9,1.2-1.4,2.7-1.3,4.2c-0.1,1.4,0.3,2.8,1.1,4c0.7,1.1,1.9,1.7,3.2,1.7c1.1,0,2.2-0.5,2.9-1.4S306.8,496.5,306.8,495.3
			L306.8,495.3z"/>
		<path class="st0" d="M342.1,493.8c0.1,2.3-0.7,4.5-2.2,6.2s-3.8,2.6-6.1,2.5c-2.2,0.1-4.3-0.8-5.8-2.4c-1.5-1.7-2.2-3.9-2.1-6.1
			c-0.1-2.3,0.7-4.6,2.2-6.3c1.5-1.7,3.7-2.6,6-2.5c2.2-0.1,4.4,0.8,5.9,2.4C341.4,489.4,342.2,491.6,342.1,493.8z M338.2,493.8
			c0-1.2-0.4-2.4-1-3.5c-0.6-1.3-1.9-2-3.3-2c-1.5-0.1-2.8,0.7-3.5,2c-0.7,1.2-1,2.6-1,4s0.3,2.7,1,3.9c1,1.8,3.2,2.5,5.1,1.6
			c0.7-0.4,1.2-0.9,1.6-1.6c0.8-1.2,1.2-2.7,1.2-4.2v-0.2L338.2,493.8L338.2,493.8z"/>
		<path class="st0" d="M361.8,502.4h-3.5v-9.5c0-2.9-1.2-4.4-3.5-4.4c-1,0-2,0.4-2.7,1.2c-0.7,0.8-1,1.8-1,2.8v9.8h-3.5v-11.8
			c0-1.5,0-3,0-4.7h3.2v2.6l0,0c0.4-0.8,1.1-1.5,1.9-2c1-0.7,2.3-1,3.5-0.9c1.4,0,2.8,0.5,3.9,1.5c1.4,1.5,2.1,3.5,1.9,5.5v9.9
			H361.8z"/>
		<path class="st0" d="M386.6,488.6h-3.9v8c0,2,0.7,3.1,2.1,3.1c0.5,0.1,1.1,0.1,1.7,0v2.8c-0.9,0.3-1.9,0.4-2.8,0.4
			c-1.3,0.1-2.6-0.4-3.5-1.3c-0.9-1.3-1.4-2.9-1.2-4.5v-8.5h-2.4v-2.7h2.4v-3l3.5-1.1v4.1h4L386.6,488.6L386.6,488.6L386.6,488.6z"
			/>
		<path class="st0" d="M406.1,502.4h-3.5V493c0-3-1.1-4.5-3.3-4.5c-1.6-0.1-3.1,1-3.5,2.6c-0.1,0.4-0.1,0.9,0,1.3v10h-3.5v-24.1h3.5
			v10l0,0c1-1.6,2.7-2.7,4.6-2.7c1.4,0,2.8,0.5,3.8,1.5c1.3,1.5,2,3.5,1.9,5.5V502.4L406.1,502.4L406.1,502.4z"/>
		<path class="st0" d="M426.2,493.3c0.1,0.6,0.1,1.1,0,1.7h-11c0,1.4,0.5,2.8,1.6,3.8c1,0.8,2.2,1.2,3.5,1.2c1.6,0,3.1-0.2,4.6-0.8
			l0.6,2.6c-1.8,0.7-3.6,1.1-5.5,1c-2.2,0.1-4.4-0.7-6-2.2c-1.5-1.7-2.3-3.8-2.2-6.1c-0.1-2.2,0.6-4.5,2-6.2
			c1.4-1.8,3.5-2.8,5.8-2.7c2.1-0.1,4.2,0.9,5.4,2.7C425.8,489.7,426.3,491.5,426.2,493.3z M422.7,492.3c0.1-1-0.2-2-0.7-2.8
			c-0.6-1-1.7-1.6-2.9-1.5c-1.2,0-2.3,0.6-2.9,1.5c-0.6,0.8-1,1.8-1.1,2.8H422.7L422.7,492.3z"/>
	</g>
</g>
<g transform="translate(32,32)">
	<g transform="translate(128,0) scale(0.16,0.16)">
		<g transform="">
			<rect x="31.2" y="31.3" width="100" height="100"/>
		</g>
	</g>
	<g transform="translate(144,0) scale(0.16,0.16)">
		<g transform="">
			<rect x="31.2" y="31.3" width="100" height="100"/>
		</g>
	</g>
	<g transform="translate(176,0) scale(0.16,0.16)">
		<g transform="">
			<rect x="31.2" y="31.3" width="100" height="100"/>
		</g>
	</g>
	<g transform="translate(208,0) scale(0.16,0.16)">
		<g transform="">
			<rect x="31.2" y="31.3" width="100" height="100"/>
		</g>
	</g>
	<g transform="translate(224,0) scale(0.16,0.16)">
		<g transform="">
			<rect x="31.2" y="31.3" width="100" height="100"/>
		</g>
	</g>
	<g transform="translate(128,16) scale(0.16,0.16)">
		<g transform="">
			<rect x="31.2" y="31.3" width="100" height="100"/>
		</g>
	</g>
	<g transform="translate(144,16) scale(0.16,0.16)">
		<g transform="">
			<rect x="31.2" y="31.3" width="100" height="100"/>
		</g>
	</g>
	<g transform="translate(192,16) scale(0.16,0.16)">
		<g transform="">
			<rect x="31.2" y="31.3" width="100" height="100"/>
		</g>
	</g>
	<g transform="translate(208,16) scale(0.16,0.16)">
		<g transform="">
			<rect x="31.2" y="31.3" width="100" height="100"/>
		</g>
	</g>
	<g transform="translate(224,16) scale(0.16,0.16)">
		<g transform="">
			<rect x="31.2" y="31.3" width="100" height="100"/>
		</g>
	</g>
	<g transform="translate(128,32) scale(0.16,0.16)">
		<g transform="">
			<rect x="31.2" y="31.3" width="100" height="100"/>
		</g>
	</g>
	<g transform="translate(144,32) scale(0.16,0.16)">
		<g transform="">
			<rect x="31.2" y="31.3" width="100" height="100"/>
		</g>
	</g>
	<g transform="translate(208,32) scale(0.16,0.16)">
		<g transform="">
			<rect x="31.2" y="31.3" width="100" height="100"/>
		</g>
	</g>
	<g transform="translate(224,32) scale(0.16,0.16)">
		<g transform="">
			<rect x="31.2" y="31.3" width="100" height="100"/>
		</g>
	</g>
	<g transform="translate(144,48) scale(0.16,0.16)">
		<g transform="">
			<rect x="31.2" y="31.3" width="100" height="100"/>
		</g>
	</g>
	<g transform="translate(160,48) scale(0.16,0.16)">
		<g transform="">
			<rect x="31.2" y="31.3" width="100" height="100"/>
		</g>
	</g>
	<g transform="translate(208,48) scale(0.16,0.16)">
		<g transform="">
			<rect x="31.2" y="31.3" width="100" height="100"/>
		</g>
	</g>
	<g transform="translate(240,48) scale(0.16,0.16)">
		<g transform="">
			<rect x="31.2" y="31.3" width="100" height="100"/>
		</g>
	</g>
	<g transform="translate(256,48) scale(0.16,0.16)">
		<g transform="">
			<rect x="31.2" y="31.3" width="100" height="100"/>
		</g>
	</g>
	<g transform="translate(128,64) scale(0.16,0.16)">
		<g transform="">
			<rect x="31.2" y="31.3" width="100" height="100"/>
		</g>
	</g>
	<g transform="translate(144,64) scale(0.16,0.16)">
		<g transform="">
			<rect x="31.2" y="31.3" width="100" height="100"/>
		</g>
	</g>
	<g transform="translate(176,64) scale(0.16,0.16)">
		<g transform="">
			<rect x="31.2" y="31.3" width="100" height="100"/>
		</g>
	</g>
	<g transform="translate(192,80) scale(0.16,0.16)">
		<g transform="">
			<rect x="31.2" y="31.3" width="100" height="100"/>
		</g>
	</g>
	<g transform="translate(224,80) scale(0.16,0.16)">
		<g transform="">
			<rect x="31.2" y="31.3" width="100" height="100"/>
		</g>
	</g>
	<g transform="translate(256,80) scale(0.16,0.16)">
		<g transform="">
			<rect x="31.2" y="31.3" width="100" height="100"/>
		</g>
	</g>
	<g transform="translate(128,96) scale(0.16,0.16)">
		<g transform="">
			<rect x="31.2" y="31.3" width="100" height="100"/>
		</g>
	</g>
	<g transform="translate(160,96) scale(0.16,0.16)">
		<g transform="">
			<rect x="31.2" y="31.3" width="100" height="100"/>
		</g>
	</g>
	<g transform="translate(192,96) scale(0.16,0.16)">
		<g transform="">
			<rect x="31.2" y="31.3" width="100" height="100"/>
		</g>
	</g>
	<g transform="translate(224,96) scale(0.16,0.16)">
		<g transform="">
			<rect x="31.2" y="31.3" width="100" height="100"/>
		</g>
	</g>
	<g transform="translate(256,96) scale(0.16,0.16)">
		<g transform="">
			<rect x="31.2" y="31.3" width="100" height="100"/>
		</g>
	</g>
	<g transform="translate(160,112) scale(0.16,0.16)">
		<g transform="">
			<rect x="31.2" y="31.3" width="100" height="100"/>
		</g>
	</g>
	<g transform="translate(176,112) scale(0.16,0.16)">
		<g transform="">
			<rect x="31.2" y="31.3" width="100" height="100"/>
		</g>
	</g>
	<g transform="translate(192,112) scale(0.16,0.16)">
		<g transform="">
			<rect x="31.2" y="31.3" width="100" height="100"/>
		</g>
	</g>
	<g transform="translate(208,112) scale(0.16,0.16)">
		<g transform="">
			<rect x="31.2" y="31.3" width="100" height="100"/>
		</g>
	</g>
	<g transform="translate(224,112) scale(0.16,0.16)">
		<g transform="">
			<rect x="31.2" y="31.3" width="100" height="100"/>
		</g>
	</g>
	<g transform="translate(256,112) scale(0.16,0.16)">
		<g transform="">
			<rect x="31.2" y="31.3" width="100" height="100"/>
		</g>
	</g>
	<g transform="translate(0,128) scale(0.16,0.16)">
		<g transform="">
			<rect x="31.2" y="31.3" width="100" height="100"/>
		</g>
	</g>
	<g transform="translate(48,128) scale(0.16,0.16)">
		<g transform="">
			<rect x="31.2" y="31.3" width="100" height="100"/>
		</g>
	</g>
	<g transform="translate(64,128) scale(0.16,0.16)">
		<g transform="">
			<rect x="31.2" y="31.3" width="100" height="100"/>
		</g>
	</g>
	<g transform="translate(80,128) scale(0.16,0.16)">
		<g transform="">
			<rect x="31.2" y="31.3" width="100" height="100"/>
		</g>
	</g>
	<g transform="translate(96,128) scale(0.16,0.16)">
		<g transform="">
			<rect x="31.2" y="31.3" width="100" height="100"/>
		</g>
	</g>
	<g transform="translate(112,128) scale(0.16,0.16)">
		<g transform="">
			<rect x="31.2" y="31.3" width="100" height="100"/>
		</g>
	</g>
	<g transform="translate(128,128) scale(0.16,0.16)">
		<g transform="">
			<rect x="31.2" y="31.3" width="100" height="100"/>
		</g>
	</g>
	<g transform="translate(144,128) scale(0.16,0.16)">
		<g transform="">
			<rect x="31.2" y="31.3" width="100" height="100"/>
		</g>
	</g>
	<g transform="translate(160,128) scale(0.16,0.16)">
		<g transform="">
			<rect x="31.2" y="31.3" width="100" height="100"/>
		</g>
	</g>
	<g transform="translate(176,128) scale(0.16,0.16)">
		<g transform="">
			<rect x="31.2" y="31.3" width="100" height="100"/>
		</g>
	</g>
	<g transform="translate(192,128) scale(0.16,0.16)">
		<g transform="">
			<rect x="31.2" y="31.3" width="100" height="100"/>
		</g>
	</g>
	<g transform="translate(256,128) scale(0.16,0.16)">
		<g transform="">
			<rect x="31.2" y="31.3" width="100" height="100"/>
		</g>
	</g>
	<g transform="translate(272,128) scale(0.16,0.16)">
		<g transform="">
			<rect x="31.2" y="31.3" width="100" height="100"/>
		</g>
	</g>
	<g transform="translate(320,128) scale(0.16,0.16)">
		<g transform="">
			<rect x="31.2" y="31.3" width="100" height="100"/>
		</g>
	</g>
	<g transform="translate(352,128) scale(0.16,0.16)">
		<g transform="">
			<rect x="31.2" y="31.3" width="100" height="100"/>
		</g>
	</g>
	<g transform="translate(368,128) scale(0.16,0.16)">
		<g transform="">
			<rect x="31.2" y="31.3" width="100" height="100"/>
		</g>
	</g>
	<g transform="translate(384,128) scale(0.16,0.16)">
		<g transform="">
			<rect x="31.2" y="31.3" width="100" height="100"/>
		</g>
	</g>
	<g transform="translate(16,144) scale(0.16,0.16)">
		<g transform="">
			<rect x="31.2" y="31.3" width="100" height="100"/>
		</g>
	</g>
	<g transform="translate(32,144) scale(0.16,0.16)">
		<g transform="">
			<rect x="31.2" y="31.3" width="100" height="100"/>
		</g>
	</g>
	<g transform="translate(48,144) scale(0.16,0.16)">
		<g transform="">
			<rect x="31.2" y="31.3" width="100" height="100"/>
		</g>
	</g>
	<g transform="translate(80,144) scale(0.16,0.16)">
		<g transform="">
			<rect x="31.2" y="31.3" width="100" height="100"/>
		</g>
	</g>
	<g transform="translate(112,144) scale(0.16,0.16)">
		<g transform="">
			<rect x="31.2" y="31.3" width="100" height="100"/>
		</g>
	</g>
	<g transform="translate(128,144) scale(0.16,0.16)">
		<g transform="">
			<rect x="31.2" y="31.3" width="100" height="100"/>
		</g>
	</g>
	<g transform="translate(144,144) scale(0.16,0.16)">
		<g transform="">
			<rect x="31.2" y="31.3" width="100" height="100"/>
		</g>
	</g>
	<g transform="translate(176,144) scale(0.16,0.16)">
		<g transform="">
			<rect x="31.2" y="31.3" width="100" height="100"/>
		</g>
	</g>
	<g transform="translate(192,144) scale(0.16,0.16)">
		<g transform="">
			<rect x="31.2" y="31.3" width="100" height="100"/>
		</g>
	</g>
	<g transform="translate(208,144) scale(0.16,0.16)">
		<g transform="">
			<rect x="31.2" y="31.3" width="100" height="100"/>
		</g>
	</g>
	<g transform="translate(224,144) scale(0.16,0.16)">
		<g transform="">
			<rect x="31.2" y="31.3" width="100" height="100"/>
		</g>
	</g>
	<g transform="translate(240,144) scale(0.16,0.16)">
		<g transform="">
			<rect x="31.2" y="31.3" width="100" height="100"/>
		</g>
	</g>
	<g transform="translate(304,144) scale(0.16,0.16)">
		<g transform="">
			<rect x="31.2" y="31.3" width="100" height="100"/>
		</g>
	</g>
	<g transform="translate(320,144) scale(0.16,0.16)">
		<g transform="">
			<rect x="31.2" y="31.3" width="100" height="100"/>
		</g>
	</g>
	<g transform="translate(336,144) scale(0.16,0.16)">
		<g transform="">
			<rect x="31.2" y="31.3" width="100" height="100"/>
		</g>
	</g>
	<g transform="translate(352,144) scale(0.16,0.16)">
		<g transform="">
			<rect x="31.2" y="31.3" width="100" height="100"/>
		</g>
	</g>
	<g transform="translate(368,144) scale(0.16,0.16)">
		<g transform="">
			<rect x="31.2" y="31.3" width="100" height="100"/>
		</g>
	</g>
	<g transform="translate(16,160) scale(0.16,0.16)">
		<g transform="">
			<rect x="31.2" y="31.3" width="100" height="100"/>
		</g>
	</g>
	<g transform="translate(48,160) scale(0.16,0.16)">
		<g transform="">
			<rect x="31.2" y="31.3" width="100" height="100"/>
		</g>
	</g>
	<g transform="translate(80,160) scale(0.16,0.16)">
		<g transform="">
			<rect x="31.2" y="31.3" width="100" height="100"/>
		</g>
	</g>
	<g transform="translate(96,160) scale(0.16,0.16)">
		<g transform="">
			<rect x="31.2" y="31.3" width="100" height="100"/>
		</g>
	</g>
	<g transform="translate(112,160) scale(0.16,0.16)">
		<g transform="">
			<rect x="31.2" y="31.3" width="100" height="100"/>
		</g>
	</g>
	<g transform="translate(128,160) scale(0.16,0.16)">
		<g transform="">
			<rect x="31.2" y="31.3" width="100" height="100"/>
		</g>
	</g>
	<g transform="translate(208,160) scale(0.16,0.16)">
		<g transform="">
			<rect x="31.2" y="31.3" width="100" height="100"/>
		</g>
	</g>
	<g transform="translate(240,160) scale(0.16,0.16)">
		<g transform="">
			<rect x="31.2" y="31.3" width="100" height="100"/>
		</g>
	</g>
	<g transform="translate(272,160) scale(0.16,0.16)">
		<g transform="">
			<rect x="31.2" y="31.3" width="100" height="100"/>
		</g>
	</g>
	<g transform="translate(304,160) scale(0.16,0.16)">
		<g transform="">
			<rect x="31.2" y="31.3" width="100" height="100"/>
		</g>
	</g>
	<g transform="translate(336,160) scale(0.16,0.16)">
		<g transform="">
			<rect x="31.2" y="31.3" width="100" height="100"/>
		</g>
	</g>
	<g transform="translate(384,160) scale(0.16,0.16)">
		<g transform="">
			<rect x="31.2" y="31.3" width="100" height="100"/>
		</g>
	</g>
	<g transform="translate(16,176) scale(0.16,0.16)">
		<g transform="">
			<rect x="31.2" y="31.3" width="100" height="100"/>
		</g>
	</g>
	<g transform="translate(64,176) scale(0.16,0.16)">
		<g transform="">
			<rect x="31.2" y="31.3" width="100" height="100"/>
		</g>
	</g>
	<g transform="translate(128,176) scale(0.16,0.16)">
		<g transform="">
			<rect x="31.2" y="31.3" width="100" height="100"/>
		</g>
	</g>
	<g transform="translate(144,176) scale(0.16,0.16)">
		<g transform="">
			<rect x="31.2" y="31.3" width="100" height="100"/>
		</g>
	</g>
	<g transform="translate(176,176) scale(0.16,0.16)">
		<g transform="">
			<rect x="31.2" y="31.3" width="100" height="100"/>
		</g>
	</g>
	<g transform="translate(224,176) scale(0.16,0.16)">
		<g transform="">
			<rect x="31.2" y="31.3" width="100" height="100"/>
		</g>
	</g>
	<g transform="translate(240,176) scale(0.16,0.16)">
		<g transform="">
			<rect x="31.2" y="31.3" width="100" height="100"/>
		</g>
	</g>
	<g transform="translate(256,176) scale(0.16,0.16)">
		<g transform="">
			<rect x="31.2" y="31.3" width="100" height="100"/>
		</g>
	</g>
	<g transform="translate(272,176) scale(0.16,0.16)">
		<g transform="">
			<rect x="31.2" y="31.3" width="100" height="100"/>
		</g>
	</g>
	<g transform="translate(288,176) scale(0.16,0.16)">
		<g transform="">
			<rect x="31.2" y="31.3" width="100" height="100"/>
		</g>
	</g>
	<g transform="translate(336,176) scale(0.16,0.16)">
		<g transform="">
			<rect x="31.2" y="31.3" width="100" height="100"/>
		</g>
	</g>
	<g transform="translate(352,176) scale(0.16,0.16)">
		<g transform="">
			<rect x="31.2" y="31.3" width="100" height="100"/>
		</g>
	</g>
	<g transform="translate(368,176) scale(0.16,0.16)">
		<g transform="">
			<rect x="31.2" y="31.3" width="100" height="100"/>
		</g>
	</g>
	<g transform="translate(384,176) scale(0.16,0.16)">
		<g transform="">
			<rect x="31.2" y="31.3" width="100" height="100"/>
		</g>
	</g>
	<g transform="translate(0,192) scale(0.16,0.16)">
		<g transform="">
			<rect x="31.2" y="31.3" width="100" height="100"/>
		</g>
	</g>
	<g transform="translate(80,192) scale(0.16,0.16)">
		<g transform="">
			<rect x="31.2" y="31.3" width="100" height="100"/>
		</g>
	</g>
	<g transform="translate(96,192) scale(0.16,0.16)">
		<g transform="">
			<rect x="31.2" y="31.3" width="100" height="100"/>
		</g>
	</g>
	<g transform="translate(128,192) scale(0.16,0.16)">
		<g transform="">
			<rect x="31.2" y="31.3" width="100" height="100"/>
		</g>
	</g>
	<g transform="translate(144,192) scale(0.16,0.16)">
		<g transform="">
			<rect x="31.2" y="31.3" width="100" height="100"/>
		</g>
	</g>
	<g transform="translate(160,192) scale(0.16,0.16)">
		<g transform="">
			<rect x="31.2" y="31.3" width="100" height="100"/>
		</g>
	</g>
	<g transform="translate(176,192) scale(0.16,0.16)">
		<g transform="">
			<rect x="31.2" y="31.3" width="100" height="100"/>
		</g>
	</g>
	<g transform="translate(192,192) scale(0.16,0.16)">
		<g transform="">
			<rect x="31.2" y="31.3" width="100" height="100"/>
		</g>
	</g>
	<g transform="translate(240,192) scale(0.16,0.16)">
		<g transform="">
			<rect x="31.2" y="31.3" width="100" height="100"/>
		</g>
	</g>
	<g transform="translate(288,192) scale(0.16,0.16)">
		<g transform="">
			<rect x="31.2" y="31.3" width="100" height="100"/>
		</g>
	</g>
	<g transform="translate(384,192) scale(0.16,0.16)">
		<g transform="">
			<rect x="31.2" y="31.3" width="100" height="100"/>
		</g>
	</g>
	<g transform="translate(0,208) scale(0.16,0.16)">
		<g transform="">
			<rect x="31.2" y="31.3" width="100" height="100"/>
		</g>
	</g>
	<g transform="translate(80,208) scale(0.16,0.16)">
		<g transform="">
			<rect x="31.2" y="31.3" width="100" height="100"/>
		</g>
	</g>
	<g transform="translate(128,208) scale(0.16,0.16)">
		<g transform="">
			<rect x="31.2" y="31.3" width="100" height="100"/>
		</g>
	</g>
	<g transform="translate(144,208) scale(0.16,0.16)">
		<g transform="">
			<rect x="31.2" y="31.3" width="100" height="100"/>
		</g>
	</g>
	<g transform="translate(224,208) scale(0.16,0.16)">
		<g transform="">
			<rect x="31.2" y="31.3" width="100" height="100"/>
		</g>
	</g>
	<g transform="translate(240,208) scale(0.16,0.16)">
		<g transform="">
			<rect x="31.2" y="31.3" width="100" height="100"/>
		</g>
	</g>
	<g transform="translate(256,208) scale(0.16,0.16)">
		<g transform="">
			<rect x="31.2" y="31.3" width="100" height="100"/>
		</g>
	</g>
	<g transform="translate(320,208) scale(0.16,0.16)">
		<g transform="">
			<rect x="31.2" y="31.3" width="100" height="100"/>
		</g>
	</g>
	<g transform="translate(368,208) scale(0.16,0.16)">
		<g transform="">
			<rect x="31.2" y="31.3" width="100" height="100"/>
		</g>
	</g>
	<g transform="translate(0,224) scale(0.16,0.16)">
		<g transform="">
			<rect x="31.2" y="31.3" width="100" height="100"/>
		</g>
	</g>
	<g transform="translate(16,224) scale(0.16,0.16)">
		<g transform="">
			<rect x="31.2" y="31.3" width="100" height="100"/>
		</g>
	</g>
	<g transform="translate(48,224) scale(0.16,0.16)">
		<g transform="">
			<rect x="31.2" y="31.3" width="100" height="100"/>
		</g>
	</g>
	<g transform="translate(64,224) scale(0.16,0.16)">
		<g transform="">
			<rect x="31.2" y="31.3" width="100" height="100"/>
		</g>
	</g>
	<g transform="translate(80,224) scale(0.16,0.16)">
		<g transform="">
			<rect x="31.2" y="31.3" width="100" height="100"/>
		</g>
	</g>
	<g transform="translate(96,224) scale(0.16,0.16)">
		<g transform="">
			<rect x="31.2" y="31.3" width="100" height="100"/>
		</g>
	</g>
	<g transform="translate(112,224) scale(0.16,0.16)">
		<g transform="">
			<rect x="31.2" y="31.3" width="100" height="100"/>
		</g>
	</g>
	<g transform="translate(128,224) scale(0.16,0.16)">
		<g transform="">
			<rect x="31.2" y="31.3" width="100" height="100"/>
		</g>
	</g>
	<g transform="translate(176,224) scale(0.16,0.16)">
		<g transform="">
			<rect x="31.2" y="31.3" width="100" height="100"/>
		</g>
	</g>
	<g transform="translate(192,224) scale(0.16,0.16)">
		<g transform="">
			<rect x="31.2" y="31.3" width="100" height="100"/>
		</g>
	</g>
	<g transform="translate(240,224) scale(0.16,0.16)">
		<g transform="">
			<rect x="31.2" y="31.3" width="100" height="100"/>
		</g>
	</g>
	<g transform="translate(272,224) scale(0.16,0.16)">
		<g transform="">
			<rect x="31.2" y="31.3" width="100" height="100"/>
		</g>
	</g>
	<g transform="translate(320,224) scale(0.16,0.16)">
		<g transform="">
			<rect x="31.2" y="31.3" width="100" height="100"/>
		</g>
	</g>
	<g transform="translate(336,224) scale(0.16,0.16)">
		<g transform="">
			<rect x="31.2" y="31.3" width="100" height="100"/>
		</g>
	</g>
	<g transform="translate(352,224) scale(0.16,0.16)">
		<g transform="">
			<rect x="31.2" y="31.3" width="100" height="100"/>
		</g>
	</g>
	<g transform="translate(368,224) scale(0.16,0.16)">
		<g transform="">
			<rect x="31.2" y="31.3" width="100" height="100"/>
		</g>
	</g>
	<g transform="translate(384,224) scale(0.16,0.16)">
		<g transform="">
			<rect x="31.2" y="31.3" width="100" height="100"/>
		</g>
	</g>
	<g transform="translate(0,240) scale(0.16,0.16)">
		<g transform="">
			<rect x="31.2" y="31.3" width="100" height="100"/>
		</g>
	</g>
	<g transform="translate(48,240) scale(0.16,0.16)">
		<g transform="">
			<rect x="31.2" y="31.3" width="100" height="100"/>
		</g>
	</g>
	<g transform="translate(80,240) scale(0.16,0.16)">
		<g transform="">
			<rect x="31.2" y="31.3" width="100" height="100"/>
		</g>
	</g>
	<g transform="translate(176,240) scale(0.16,0.16)">
		<g transform="">
			<rect x="31.2" y="31.3" width="100" height="100"/>
		</g>
	</g>
	<g transform="translate(224,240) scale(0.16,0.16)">
		<g transform="">
			<rect x="31.2" y="31.3" width="100" height="100"/>
		</g>
	</g>
	<g transform="translate(272,240) scale(0.16,0.16)">
		<g transform="">
			<rect x="31.2" y="31.3" width="100" height="100"/>
		</g>
	</g>
	<g transform="translate(304,240) scale(0.16,0.16)">
		<g transform="">
			<rect x="31.2" y="31.3" width="100" height="100"/>
		</g>
	</g>
	<g transform="translate(336,240) scale(0.16,0.16)">
		<g transform="">
			<rect x="31.2" y="31.3" width="100" height="100"/>
		</g>
	</g>
	<g transform="translate(352,240) scale(0.16,0.16)">
		<g transform="">
			<rect x="31.2" y="31.3" width="100" height="100"/>
		</g>
	</g>
	<g transform="translate(384,240) scale(0.16,0.16)">
		<g transform="">
			<rect x="31.2" y="31.3" width="100" height="100"/>
		</g>
	</g>
	<g transform="translate(0,256) scale(0.16,0.16)">
		<g transform="">
			<rect x="31.2" y="31.3" width="100" height="100"/>
		</g>
	</g>
	<g transform="translate(80,256) scale(0.16,0.16)">
		<g transform="">
			<rect x="31.2" y="31.3" width="100" height="100"/>
		</g>
	</g>
	<g transform="translate(96,256) scale(0.16,0.16)">
		<g transform="">
			<rect x="31.2" y="31.3" width="100" height="100"/>
		</g>
	</g>
	<g transform="translate(128,256) scale(0.16,0.16)">
		<g transform="">
			<rect x="31.2" y="31.3" width="100" height="100"/>
		</g>
	</g>
	<g transform="translate(160,256) scale(0.16,0.16)">
		<g transform="">
			<rect x="31.2" y="31.3" width="100" height="100"/>
		</g>
	</g>
	<g transform="translate(192,256) scale(0.16,0.16)">
		<g transform="">
			<rect x="31.2" y="31.3" width="100" height="100"/>
		</g>
	</g>
	<g transform="translate(240,256) scale(0.16,0.16)">
		<g transform="">
			<rect x="31.2" y="31.3" width="100" height="100"/>
		</g>
	</g>
	<g transform="translate(256,256) scale(0.16,0.16)">
		<g transform="">
			<rect x="31.2" y="31.3" width="100" height="100"/>
		</g>
	</g>
	<g transform="translate(272,256) scale(0.16,0.16)">
		<g transform="">
			<rect x="31.2" y="31.3" width="100" height="100"/>
		</g>
	</g>
	<g transform="translate(288,256) scale(0.16,0.16)">
		<g transform="">
			<rect x="31.2" y="31.3" width="100" height="100"/>
		</g>
	</g>
	<g transform="translate(304,256) scale(0.16,0.16)">
		<g transform="">
			<rect x="31.2" y="31.3" width="100" height="100"/>
		</g>
	</g>
	<g transform="translate(320,256) scale(0.16,0.16)">
		<g transform="">
			<rect x="31.2" y="31.3" width="100" height="100"/>
		</g>
	</g>
	<g transform="translate(352,256) scale(0.16,0.16)">
		<g transform="">
			<rect x="31.2" y="31.3" width="100" height="100"/>
		</g>
	</g>
	<g transform="translate(368,256) scale(0.16,0.16)">
		<g transform="">
			<rect x="31.2" y="31.3" width="100" height="100"/>
		</g>
	</g>
	<g transform="translate(128,272) scale(0.16,0.16)">
		<g transform="">
			<rect x="31.2" y="31.3" width="100" height="100"/>
		</g>
	</g>
	<g transform="translate(144,272) scale(0.16,0.16)">
		<g transform="">
			<rect x="31.2" y="31.3" width="100" height="100"/>
		</g>
	</g>
	<g transform="translate(176,272) scale(0.16,0.16)">
		<g transform="">
			<rect x="31.2" y="31.3" width="100" height="100"/>
		</g>
	</g>
	<g transform="translate(192,272) scale(0.16,0.16)">
		<g transform="">
			<rect x="31.2" y="31.3" width="100" height="100"/>
		</g>
	</g>
	<g transform="translate(240,272) scale(0.16,0.16)">
		<g transform="">
			<rect x="31.2" y="31.3" width="100" height="100"/>
		</g>
	</g>
	<g transform="translate(256,272) scale(0.16,0.16)">
		<g transform="">
			<rect x="31.2" y="31.3" width="100" height="100"/>
		</g>
	</g>
	<g transform="translate(320,272) scale(0.16,0.16)">
		<g transform="">
			<rect x="31.2" y="31.3" width="100" height="100"/>
		</g>
	</g>
	<g transform="translate(352,272) scale(0.16,0.16)">
		<g transform="">
			<rect x="31.2" y="31.3" width="100" height="100"/>
		</g>
	</g>
	<g transform="translate(368,272) scale(0.16,0.16)">
		<g transform="">
			<rect x="31.2" y="31.3" width="100" height="100"/>
		</g>
	</g>
	<g transform="translate(128,288) scale(0.16,0.16)">
		<g transform="">
			<rect x="31.2" y="31.3" width="100" height="100"/>
		</g>
	</g>
	<g transform="translate(144,288) scale(0.16,0.16)">
		<g transform="">
			<rect x="31.2" y="31.3" width="100" height="100"/>
		</g>
	</g>
	<g transform="translate(160,288) scale(0.16,0.16)">
		<g transform="">
			<rect x="31.2" y="31.3" width="100" height="100"/>
		</g>
	</g>
	<g transform="translate(176,288) scale(0.16,0.16)">
		<g transform="">
			<rect x="31.2" y="31.3" width="100" height="100"/>
		</g>
	</g>
	<g transform="translate(224,288) scale(0.16,0.16)">
		<g transform="">
			<rect x="31.2" y="31.3" width="100" height="100"/>
		</g>
	</g>
	<g transform="translate(256,288) scale(0.16,0.16)">
		<g transform="">
			<rect x="31.2" y="31.3" width="100" height="100"/>
		</g>
	</g>
	<g transform="translate(288,288) scale(0.16,0.16)">
		<g transform="">
			<rect x="31.2" y="31.3" width="100" height="100"/>
		</g>
	</g>
	<g transform="translate(320,288) scale(0.16,0.16)">
		<g transform="">
			<rect x="31.2" y="31.3" width="100" height="100"/>
		</g>
	</g>
	<g transform="translate(384,288) scale(0.16,0.16)">
		<g transform="">
			<rect x="31.2" y="31.3" width="100" height="100"/>
		</g>
	</g>
	<g transform="translate(128,304) scale(0.16,0.16)">
		<g transform="">
			<rect x="31.2" y="31.3" width="100" height="100"/>
		</g>
	</g>
	<g transform="translate(192,304) scale(0.16,0.16)">
		<g transform="">
			<rect x="31.2" y="31.3" width="100" height="100"/>
		</g>
	</g>
	<g transform="translate(208,304) scale(0.16,0.16)">
		<g transform="">
			<rect x="31.2" y="31.3" width="100" height="100"/>
		</g>
	</g>
	<g transform="translate(240,304) scale(0.16,0.16)">
		<g transform="">
			<rect x="31.2" y="31.3" width="100" height="100"/>
		</g>
	</g>
	<g transform="translate(256,304) scale(0.16,0.16)">
		<g transform="">
			<rect x="31.2" y="31.3" width="100" height="100"/>
		</g>
	</g>
	<g transform="translate(320,304) scale(0.16,0.16)">
		<g transform="">
			<rect x="31.2" y="31.3" width="100" height="100"/>
		</g>
	</g>
	<g transform="translate(368,304) scale(0.16,0.16)">
		<g transform="">
			<rect x="31.2" y="31.3" width="100" height="100"/>
		</g>
	</g>
	<g transform="translate(384,304) scale(0.16,0.16)">
		<g transform="">
			<rect x="31.2" y="31.3" width="100" height="100"/>
		</g>
	</g>
	<g transform="translate(128,320) scale(0.16,0.16)">
		<g transform="">
			<rect x="31.2" y="31.3" width="100" height="100"/>
		</g>
	</g>
	<g transform="translate(144,320) scale(0.16,0.16)">
		<g transform="">
			<rect x="31.2" y="31.3" width="100" height="100"/>
		</g>
	</g>
	<g transform="translate(208,320) scale(0.16,0.16)">
		<g transform="">
			<rect x="31.2" y="31.3" width="100" height="100"/>
		</g>
	</g>
	<g transform="translate(224,320) scale(0.16,0.16)">
		<g transform="">
			<rect x="31.2" y="31.3" width="100" height="100"/>
		</g>
	</g>
	<g transform="translate(240,320) scale(0.16,0.16)">
		<g transform="">
			<rect x="31.2" y="31.3" width="100" height="100"/>
		</g>
	</g>
	<g transform="translate(256,320) scale(0.16,0.16)">
		<g transform="">
			<rect x="31.2" y="31.3" width="100" height="100"/>
		</g>
	</g>
	<g transform="translate(272,320) scale(0.16,0.16)">
		<g transform="">
			<rect x="31.2" y="31.3" width="100" height="100"/>
		</g>
	</g>
	<g transform="translate(288,320) scale(0.16,0.16)">
		<g transform="">
			<rect x="31.2" y="31.3" width="100" height="100"/>
		</g>
	</g>
	<g transform="translate(304,320) scale(0.16,0.16)">
		<g transform="">
			<rect x="31.2" y="31.3" width="100" height="100"/>
		</g>
	</g>
	<g transform="translate(320,320) scale(0.16,0.16)">
		<g transform="">
			<rect x="31.2" y="31.3" width="100" height="100"/>
		</g>
	</g>
	<g transform="translate(128,336) scale(0.16,0.16)">
		<g transform="">
			<rect x="31.2" y="31.3" width="100" height="100"/>
		</g>
	</g>
	<g transform="translate(160,336) scale(0.16,0.16)">
		<g transform="">
			<rect x="31.2" y="31.3" width="100" height="100"/>
		</g>
	</g>
	<g transform="translate(176,336) scale(0.16,0.16)">
		<g transform="">
			<rect x="31.2" y="31.3" width="100" height="100"/>
		</g>
	</g>
	<g transform="translate(192,336) scale(0.16,0.16)">
		<g transform="">
			<rect x="31.2" y="31.3" width="100" height="100"/>
		</g>
	</g>
	<g transform="translate(224,336) scale(0.16,0.16)">
		<g transform="">
			<rect x="31.2" y="31.3" width="100" height="100"/>
		</g>
	</g>
	<g transform="translate(256,336) scale(0.16,0.16)">
		<g transform="">
			<rect x="31.2" y="31.3" width="100" height="100"/>
		</g>
	</g>
	<g transform="translate(272,336) scale(0.16,0.16)">
		<g transform="">
			<rect x="31.2" y="31.3" width="100" height="100"/>
		</g>
	</g>
	<g transform="translate(288,336) scale(0.16,0.16)">
		<g transform="">
			<rect x="31.2" y="31.3" width="100" height="100"/>
		</g>
	</g>
	<g transform="translate(368,336) scale(0.16,0.16)">
		<g transform="">
			<rect x="31.2" y="31.3" width="100" height="100"/>
		</g>
	</g>
	<g transform="translate(384,336) scale(0.16,0.16)">
		<g transform="">
			<rect x="31.2" y="31.3" width="100" height="100"/>
		</g>
	</g>
	<g transform="translate(160,352) scale(0.16,0.16)">
		<g transform="">
			<rect x="31.2" y="31.3" width="100" height="100"/>
		</g>
	</g>
	<g transform="translate(176,352) scale(0.16,0.16)">
		<g transform="">
			<rect x="31.2" y="31.3" width="100" height="100"/>
		</g>
	</g>
	<g transform="translate(320,352) scale(0.16,0.16)">
		<g transform="">
			<rect x="31.2" y="31.3" width="100" height="100"/>
		</g>
	</g>
	<g transform="translate(336,352) scale(0.16,0.16)">
		<g transform="">
			<rect x="31.2" y="31.3" width="100" height="100"/>
		</g>
	</g>
	<g transform="translate(352,352) scale(0.16,0.16)">
		<g transform="">
			<rect x="31.2" y="31.3" width="100" height="100"/>
		</g>
	</g>
	<g transform="translate(368,352) scale(0.16,0.16)">
		<g transform="">
			<rect x="31.2" y="31.3" width="100" height="100"/>
		</g>
	</g>
	<g transform="translate(384,352) scale(0.16,0.16)">
		<g transform="">
			<rect x="31.2" y="31.3" width="100" height="100"/>
		</g>
	</g>
	<g transform="translate(176,368) scale(0.16,0.16)">
		<g transform="">
			<rect x="31.2" y="31.3" width="100" height="100"/>
		</g>
	</g>
	<g transform="translate(192,368) scale(0.16,0.16)">
		<g transform="">
			<rect x="31.2" y="31.3" width="100" height="100"/>
		</g>
	</g>
	<g transform="translate(240,368) scale(0.16,0.16)">
		<g transform="">
			<rect x="31.2" y="31.3" width="100" height="100"/>
		</g>
	</g>
	<g transform="translate(272,368) scale(0.16,0.16)">
		<g transform="">
			<rect x="31.2" y="31.3" width="100" height="100"/>
		</g>
	</g>
	<g transform="translate(288,368) scale(0.16,0.16)">
		<g transform="">
			<rect x="31.2" y="31.3" width="100" height="100"/>
		</g>
	</g>
	<g transform="translate(304,368) scale(0.16,0.16)">
		<g transform="">
			<rect x="31.2" y="31.3" width="100" height="100"/>
		</g>
	</g>
	<g transform="translate(320,368) scale(0.16,0.16)">
		<g transform="">
			<rect x="31.2" y="31.3" width="100" height="100"/>
		</g>
	</g>
	<g transform="translate(352,368) scale(0.16,0.16)">
		<g transform="">
			<rect x="31.2" y="31.3" width="100" height="100"/>
		</g>
	</g>
	<g transform="translate(368,368) scale(0.16,0.16)">
		<g transform="">
			<rect x="31.2" y="31.3" width="100" height="100"/>
		</g>
	</g>
	<g transform="translate(384,368) scale(0.16,0.16)">
		<g transform="">
			<rect x="31.2" y="31.3" width="100" height="100"/>
		</g>
	</g>
	<g transform="translate(128,384) scale(0.16,0.16)">
		<g transform="">
			<rect x="31.2" y="31.3" width="100" height="100"/>
		</g>
	</g>
	<g transform="translate(160,384) scale(0.16,0.16)">
		<g transform="">
			<rect x="31.2" y="31.3" width="100" height="100"/>
		</g>
	</g>
	<g transform="translate(208,384) scale(0.16,0.16)">
		<g transform="">
			<rect x="31.2" y="31.3" width="100" height="100"/>
		</g>
	</g>
	<g transform="translate(256,384) scale(0.16,0.16)">
		<g transform="">
			<rect x="31.2" y="31.3" width="100" height="100"/>
		</g>
	</g>
	<g transform="translate(272,384) scale(0.16,0.16)">
		<g transform="">
			<rect x="31.2" y="31.3" width="100" height="100"/>
		</g>
	</g>
	<g transform="translate(336,384) scale(0.16,0.16)">
		<g transform="">
			<rect x="31.2" y="31.3" width="100" height="100"/>
		</g>
	</g>
	<g transform="translate(384,384) scale(0.16,0.16)">
		<g transform="">
			<rect x="31.2" y="31.3" width="100" height="100"/>
		</g>
	</g>
	<g transform="translate(0,0) scale(1.12, 1.12)">
		<g transform="">
			<g>
				<path class="st1" d="M70.3,19.5H38.6c-4.1,0-7.9,1.3-11,3.4c-2.4,1.7-4.4,3.9-5.8,6.4c-1.5,2.7-2.3,5.7-2.3,8.9v32.5
					c0,10.3,8.6,18.8,19.1,18.8l15.9,0l15.9,0c10.6,0,19.1-8.4,19.1-18.8V38.2C89.5,27.9,80.9,19.5,70.3,19.5z"/>
				<path d="M70.3,4.5H38.6l0,0c-15.5,0-28.6,10.2-32.7,24.2c-0.4,1.4-0.8,2.9-1,4.4c-0.3,1.7-0.4,3.4-0.4,5.1v32.5
					c0,18.6,15.3,33.8,34.1,33.8l15.9,0l15.9,0c18.8,0,34.1-15.1,34.1-33.8V38.2C104.5,19.6,89.1,4.5,70.3,4.5z M89.5,70.7
					c0,10.3-8.6,18.8-19.1,18.8l-15.9,0l-15.9,0c-10.6,0-19.1-8.4-19.1-18.8V38.2c0-3.2,0.8-6.3,2.3-8.9c1.4-2.6,3.4-4.8,5.8-6.4
					c3.1-2.1,6.9-3.4,11-3.4h31.7c10.6,0,19.1,8.4,19.1,18.8V70.7z"/>
			</g>
		</g>
	</g>
	<g transform="translate(288,0) scale(1.12, 1.12)">
		<g transform="">
			<g>
				<path class="st1" d="M70.3,19.5H38.6c-4.1,0-7.9,1.3-11,3.4c-2.4,1.7-4.4,3.9-5.8,6.4c-1.5,2.7-2.3,5.7-2.3,8.9v32.5
					c0,10.3,8.6,18.8,19.1,18.8l15.9,0l15.9,0c10.6,0,19.1-8.4,19.1-18.8V38.2C89.5,27.9,80.9,19.5,70.3,19.5z"/>
				<path d="M70.3,4.5H38.6l0,0c-15.5,0-28.6,10.2-32.7,24.2c-0.4,1.4-0.8,2.9-1,4.4c-0.3,1.7-0.4,3.4-0.4,5.1v32.5
					c0,18.6,15.3,33.8,34.1,33.8l15.9,0l15.9,0c18.8,0,34.1-15.1,34.1-33.8V38.2C104.5,19.6,89.1,4.5,70.3,4.5z M89.5,70.7
					c0,10.3-8.6,18.8-19.1,18.8l-15.9,0l-15.9,0c-10.6,0-19.1-8.4-19.1-18.8V38.2c0-3.2,0.8-6.3,2.3-8.9c1.4-2.6,3.4-4.8,5.8-6.4
					c3.1-2.1,6.9-3.4,11-3.4h31.7c10.6,0,19.1,8.4,19.1,18.8V70.7z"/>
			</g>
		</g>
	</g>
	<g transform="translate(0,288) scale(1.12, 1.12)">
		<g transform="">
			<g>
				<path class="st1" d="M70.3,19.5H38.6c-4.1,0-7.9,1.3-11,3.4c-2.4,1.7-4.4,3.9-5.8,6.4c-1.5,2.7-2.3,5.7-2.3,8.9v32.5
					c0,10.3,8.6,18.8,19.1,18.8l15.9,0l15.9,0c10.6,0,19.1-8.4,19.1-18.8V38.2C89.5,27.9,80.9,19.5,70.3,19.5z"/>
				<path d="M70.3,4.5H38.6l0,0c-15.5,0-28.6,10.2-32.7,24.2c-0.4,1.4-0.8,2.9-1,4.4c-0.3,1.7-0.4,3.4-0.4,5.1v32.5
					c0,18.6,15.3,33.8,34.1,33.8l15.9,0l15.9,0c18.8,0,34.1-15.1,34.1-33.8V38.2C104.5,19.6,89.1,4.5,70.3,4.5z M89.5,70.7
					c0,10.3-8.6,18.8-19.1,18.8l-15.9,0l-15.9,0c-10.6,0-19.1-8.4-19.1-18.8V38.2c0-3.2,0.8-6.3,2.3-8.9c1.4-2.6,3.4-4.8,5.8-6.4
					c3.1-2.1,6.9-3.4,11-3.4h31.7c10.6,0,19.1,8.4,19.1,18.8V70.7z"/>
			</g>
		</g>
	</g>
	<g transform="translate(32,32) scale(0.48, 0.48)">
		<g transform="">
			<rect x="10.4" y="10.4" width="100" height="100"/>
		</g>
	</g>
	<g transform="translate(320,32) scale(0.48, 0.48)">
		<g transform="">
			<rect x="10.4" y="10.4" width="100" height="100"/>
		</g>
	</g>
	<g transform="translate(32,320) scale(0.48, 0.48)">
		<g transform="">
			<rect x="10.4" y="10.4" width="100" height="100"/>
		</g>
	</g>
</g>
</svg>
