<?xml version="1.0" encoding="utf-8"?>
<!-- Generator: Adobe Illustrator 19.2.0, SVG Export Plug-In . SVG Version: 6.00 Build 0)  -->
<svg version="1.1" id="Layer_1" xmlns="http://www.w3.org/2000/svg" xmlns:xlink="http://www.w3.org/1999/xlink" x="0px" y="0px"
	 viewBox="0 0 320.8 29.5" enable-background="new 0 0 320.8 29.5" xml:space="preserve">
<g>
	<g>
		<g>
			<path fill="#34495E" stroke="#000000" stroke-width="0.2" stroke-miterlimit="10" d="M174.7,1.75h-3.2v8.6h-0.8v-8.6h-3.2v-0.7
				h7.1v0.7H174.7z"/>
			<path fill="#34495E" stroke="#000000" stroke-width="0.2" stroke-miterlimit="10" d="M177.5,3.95c-0.5,0-1,0.2-1.3,0.5
				s-0.5,0.7-0.5,1.2H175c0-0.4,0.1-0.8,0.3-1.1s0.5-0.6,1-0.8c0.4-0.2,0.8-0.3,1.3-0.3c0.8,0,1.5,0.3,2.1,0.9
				c0.5,0.6,0.8,1.4,0.9,2.3v0.5c0,0.7-0.1,1.3-0.4,1.8s-0.6,0.9-1,1.2s-1,0.4-1.5,0.4c-0.8,0-1.4-0.2-1.9-0.7s-0.7-1-0.7-1.8h0.7
				c0,0.5,0.2,1,0.5,1.3s0.8,0.5,1.3,0.5c0.6,0,1.1-0.2,1.5-0.7s0.6-1.1,0.6-1.9h-3.1v-0.6h3.1c0-0.8-0.2-1.4-0.6-1.9
				C178.7,4.15,178.2,3.95,177.5,3.95z"/>
			<path fill="#34495E" stroke="#000000" stroke-width="0.2" stroke-miterlimit="10" d="M184.5,3.95c-0.5,0-1,0.2-1.3,0.5
				c-0.4,0.3-0.5,0.7-0.5,1.2H182c0-0.4,0.1-0.8,0.3-1.1s0.5-0.6,1-0.8c0.4-0.2,0.8-0.3,1.3-0.3c0.8,0,1.5,0.3,2.1,0.9
				c0.5,0.6,0.8,1.4,0.9,2.3v0.5c0,0.7-0.1,1.3-0.4,1.8c-0.2,0.5-0.6,0.9-1,1.2s-1,0.4-1.5,0.4c-0.8,0-1.4-0.2-1.9-0.7
				s-0.7-1-0.7-1.8h0.7c0,0.5,0.2,1,0.5,1.3c0.4,0.3,0.8,0.5,1.3,0.5c0.6,0,1.1-0.2,1.5-0.7s0.6-1.1,0.6-1.9h-3.1v-0.6h3.1
				c0-0.8-0.2-1.4-0.6-1.9C185.6,4.15,185.1,3.95,184.5,3.95z"/>
			<path fill="#34495E" stroke="#000000" stroke-width="0.2" stroke-miterlimit="10" d="M189.2,10.35v-6.9h2.5c0.9,0,1.5,0.2,2,0.5
				s0.7,0.8,0.7,1.4c0,0.3-0.1,0.6-0.3,0.9c-0.2,0.3-0.5,0.5-0.9,0.6c0.5,0.1,0.8,0.3,1.1,0.6s0.4,0.7,0.4,1.1
				c0,0.6-0.2,1.1-0.7,1.4c-0.4,0.3-1.1,0.5-1.9,0.5h-2.9V10.35z M190,6.55h1.9c1.2,0,1.8-0.4,1.8-1.2c0-0.4-0.2-0.7-0.5-0.9
				s-0.8-0.3-1.5-0.3h-1.8L190,6.55L190,6.55z M190,7.15v2.5h2.2c0.6,0,1-0.1,1.3-0.3s0.5-0.5,0.5-1c0-0.4-0.2-0.7-0.5-0.9
				s-0.8-0.3-1.3-0.3H190L190,7.15z"/>
			<path fill="#34495E" stroke="#000000" stroke-width="0.2" stroke-miterlimit="10" d="M202,6.95c0,1.1-0.2,1.9-0.7,2.6
				c-0.5,0.6-1.1,0.9-1.9,0.9c-0.9,0-1.7-0.3-2.2-1v3.5h-0.8v-9.5h0.7v1c0.5-0.7,1.2-1.1,2.2-1.1c0.8,0,1.5,0.3,1.9,0.9
				c0.5,0.6,0.7,1.5,0.7,2.6L202,6.95L202,6.95L202,6.95z M201.2,6.85c0-0.9-0.2-1.6-0.5-2.1c-0.4-0.5-0.9-0.8-1.5-0.8
				c-0.5,0-0.9,0.1-1.2,0.3s-0.6,0.6-0.8,1v3.3c0.2,0.4,0.4,0.7,0.8,0.9s0.7,0.3,1.2,0.3c0.6,0,1.1-0.3,1.5-0.8
				C201.1,8.55,201.2,7.75,201.2,6.85z"/>
			<path fill="#34495E" stroke="#000000" stroke-width="0.2" stroke-miterlimit="10" d="M208.2,3.45h0.8v6.9h-0.8v-5.7l-3.7,5.7
				h-0.8v-6.9h0.8v5.7L208.2,3.45z"/>
			<path fill="#34495E" stroke="#000000" stroke-width="0.2" stroke-miterlimit="10" d="M215.5,3.45h0.8v6.9h-0.8v-5.7l-3.7,5.7H211
				v-6.9h0.8v5.7L215.5,3.45z M215.5,0.95c0,0.5-0.2,0.9-0.5,1.2s-0.8,0.5-1.3,0.5c-0.6,0-1-0.1-1.3-0.4c-0.3-0.3-0.5-0.7-0.5-1.2
				h0.6c0,0.4,0.1,0.6,0.3,0.8s0.5,0.3,0.9,0.3s0.7-0.1,0.9-0.3s0.3-0.5,0.3-0.8L215.5,0.95L215.5,0.95z"/>
			<path fill="#34495E" stroke="#000000" stroke-width="0.2" stroke-miterlimit="10" d="M223.6,10.35h-0.8v-3.2h-3.7v3.2h-0.8v-6.9
				h0.8v3.1h3.7v-3.1h0.8V10.35z"/>
			<path fill="#34495E" stroke="#000000" stroke-width="0.2" stroke-miterlimit="10" d="M231,6.25l1.9-2.8h0.9l-2.3,3.4l2.4,3.5H233
				l-2-2.9l-2,2.9h-0.9l2.4-3.5l-2.3-3.4h0.9L231,6.25z"/>
			<path fill="#34495E" stroke="#000000" stroke-width="0.2" stroke-miterlimit="10" d="M237.5,3.95c-0.5,0-1,0.2-1.3,0.5
				c-0.4,0.3-0.5,0.7-0.5,1.2H235c0-0.4,0.1-0.8,0.3-1.1s0.5-0.6,1-0.8c0.4-0.2,0.8-0.3,1.3-0.3c0.8,0,1.5,0.3,2.1,0.9
				c0.5,0.6,0.8,1.4,0.9,2.3v0.5c0,0.7-0.1,1.3-0.4,1.8s-0.6,0.9-1,1.2s-1,0.4-1.5,0.4c-0.8,0-1.4-0.2-1.9-0.7s-0.7-1-0.7-1.8h0.7
				c0,0.5,0.2,1,0.5,1.3c0.4,0.3,0.8,0.5,1.3,0.5c0.6,0,1.1-0.2,1.5-0.7s0.6-1.1,0.6-1.9h-3.1v-0.6h3.1c0-0.8-0.2-1.4-0.6-1.9
				C238.6,4.15,238.1,3.95,237.5,3.95z"/>
			<path fill="#34495E" stroke="#000000" stroke-width="0.2" stroke-miterlimit="10" d="M247.7,6.95c0,1.1-0.2,1.9-0.7,2.6
				c-0.5,0.6-1.1,0.9-1.9,0.9c-0.9,0-1.7-0.3-2.2-1v3.5h-0.8v-9.5h0.7v1c0.5-0.7,1.2-1.1,2.2-1.1c0.8,0,1.5,0.3,1.9,0.9
				c0.5,0.6,0.7,1.5,0.7,2.6L247.7,6.95L247.7,6.95z M246.9,6.85c0-0.9-0.2-1.6-0.5-2.1c-0.4-0.5-0.9-0.8-1.5-0.8
				c-0.5,0-0.9,0.1-1.2,0.3s-0.6,0.6-0.8,1v3.3c0.2,0.4,0.4,0.7,0.8,0.9s0.7,0.3,1.2,0.3c0.6,0,1.1-0.3,1.5-0.8
				C246.8,8.55,246.9,7.75,246.9,6.85z"/>
			<path fill="#34495E" stroke="#000000" stroke-width="0.2" stroke-miterlimit="10" d="M251.7,3.95c-0.5,0-1,0.2-1.3,0.5
				c-0.4,0.3-0.5,0.7-0.5,1.2h-0.7c0-0.4,0.1-0.8,0.3-1.1s0.5-0.6,1-0.8c0.4-0.2,0.8-0.3,1.3-0.3c0.8,0,1.5,0.3,2.1,0.9
				c0.5,0.6,0.8,1.4,0.9,2.3v0.5c0,0.7-0.1,1.3-0.4,1.8s-0.6,0.9-1,1.2s-1,0.4-1.5,0.4c-0.8,0-1.4-0.2-1.9-0.7s-0.7-1-0.7-1.8h0.7
				c0,0.5,0.2,1,0.5,1.3c0.4,0.3,0.8,0.5,1.3,0.5c0.6,0,1.1-0.2,1.5-0.7s0.6-1.1,0.6-1.9h-3.1v-0.6h3.1c0-0.8-0.2-1.4-0.6-1.9
				C252.9,4.15,252.3,3.95,251.7,3.95z"/>
			<path fill="#34495E" stroke="#000000" stroke-width="0.2" stroke-miterlimit="10" d="M260.7,4.15h-3.5v6.2h-0.8v-6.9h4.2v0.7
				H260.7z"/>
			<path fill="#34495E" stroke="#000000" stroke-width="0.2" stroke-miterlimit="10" d="M264.3,9.85c0.5,0,1-0.1,1.3-0.4
				c0.4-0.3,0.6-0.7,0.6-1.2h0.7c0,0.4-0.2,0.8-0.4,1.2c-0.2,0.3-0.6,0.6-1,0.8s-0.8,0.3-1.3,0.3c-0.9,0-1.6-0.3-2.1-0.9
				c-0.5-0.6-0.8-1.5-0.8-2.5v-0.2c0-0.7,0.1-1.3,0.4-1.8c0.2-0.5,0.6-0.9,1-1.2s1-0.4,1.6-0.4c0.8,0,1.4,0.2,1.9,0.7s0.8,1,0.8,1.8
				h-0.7c0-0.5-0.2-1-0.6-1.3s-0.8-0.5-1.3-0.5c-0.7,0-1.2,0.2-1.6,0.7s-0.6,1.2-0.6,2.1v0.2c0,0.9,0.2,1.6,0.6,2.1
				C263.1,9.55,263.6,9.85,264.3,9.85z"/>
			<path fill="#34495E" stroke="#000000" stroke-width="0.2" stroke-miterlimit="10" d="M273.8,3.45v6.9H273v-6.2h-2.8l-0.1,2.6
				c-0.1,1-0.1,1.7-0.3,2.2c-0.1,0.5-0.3,0.9-0.6,1.1c-0.3,0.2-0.6,0.4-1.1,0.4h-0.3v-0.7h0.2c0.4,0,0.8-0.2,0.9-0.6
				s0.3-1.2,0.4-2.2l0.1-3.3h4.4V3.45z"/>
			<path fill="#34495E" stroke="#000000" stroke-width="0.2" stroke-miterlimit="10" d="M280.3,3.45h0.8v6.9h-0.8v-5.7l-3.7,5.7
				h-0.8v-6.9h0.8v5.7L280.3,3.45z"/>
			<path fill="#34495E" stroke="#000000" stroke-width="0.2" stroke-miterlimit="10" d="M287.7,3.45h0.8v6.9h-0.8v-5.7l-3.7,5.7
				h-0.8v-6.9h0.8v5.7L287.7,3.45z M287.6,0.95c0,0.5-0.2,0.9-0.5,1.2s-0.8,0.5-1.3,0.5c-0.6,0-1-0.1-1.3-0.4
				c-0.3-0.3-0.5-0.7-0.5-1.2h0.6c0,0.4,0.1,0.6,0.3,0.8c0.2,0.2,0.5,0.3,0.9,0.3s0.7-0.1,0.9-0.3c0.2-0.2,0.3-0.5,0.3-0.8
				L287.6,0.95L287.6,0.95z"/>
			<path fill="#34495E" stroke="#000000" stroke-width="0.2" stroke-miterlimit="10" d="M295.8,10.35H295v-3.2h-3.7v3.2h-0.8v-6.9
				h0.8v3.1h3.7v-3.1h0.8V10.35z"/>
			<path fill="#34495E" stroke="#000000" stroke-width="0.2" stroke-miterlimit="10" d="M173.5,25.95h-0.7v-3.2h-3.7v3.2h-0.8v-6.9
				h0.8v3.1h3.7v-3.1h0.8v6.9H173.5z"/>
			<path fill="#34495E" stroke="#000000" stroke-width="0.2" stroke-miterlimit="10" d="M177.9,19.65c-0.5,0-1,0.2-1.3,0.5
				c-0.4,0.3-0.5,0.7-0.5,1.2h-0.7c0-0.4,0.1-0.8,0.3-1.1c0.2-0.3,0.5-0.6,1-0.8c0.4-0.2,0.8-0.3,1.3-0.3c0.8,0,1.5,0.3,2.1,0.9
				c0.5,0.6,0.8,1.4,0.9,2.3v0.5c0,0.7-0.1,1.3-0.4,1.8c-0.2,0.5-0.6,0.9-1,1.2c-0.4,0.3-1,0.4-1.5,0.4c-0.8,0-1.4-0.2-1.9-0.7
				s-0.7-1-0.7-1.8h0.7c0,0.5,0.2,1,0.5,1.3c0.4,0.3,0.8,0.5,1.3,0.5c0.6,0,1.1-0.2,1.5-0.7s0.6-1.1,0.6-1.9H177v-0.8h3.1
				c0-0.8-0.2-1.4-0.6-1.9C179,19.85,178.5,19.65,177.9,19.65z"/>
			<path fill="#34495E" stroke="#000000" stroke-width="0.2" stroke-miterlimit="10" d="M186.8,19.75h-3.5v6.2h-0.8v-6.9h4.2v0.7
				H186.8z"/>
			<path fill="#34495E" stroke="#000000" stroke-width="0.2" stroke-miterlimit="10" d="M187.5,25.35l0.3-0.4
				c0.5-0.7,0.8-1.8,0.9-3.2l0.1-2.6h4.1v6.2h0.7v2.7h-0.8v-2h-5v2h-0.7v-2.7H187.5z M188.4,25.35h3.8v-5.5h-2.6l-0.1,1.8
				C189.5,23.25,189.1,24.45,188.4,25.35z"/>
			<path fill="#34495E" stroke="#000000" stroke-width="0.2" stroke-miterlimit="10" d="M197.7,25.45c0.5,0,1-0.1,1.3-0.4
				c0.4-0.3,0.6-0.7,0.6-1.2h0.7c0,0.4-0.2,0.8-0.4,1.1c-0.2,0.3-0.6,0.6-1,0.8c-0.4,0.2-0.8,0.3-1.3,0.3c-0.9,0-1.6-0.3-2.1-0.9
				s-0.8-1.5-0.8-2.5v-0.2c0-0.7,0.1-1.3,0.4-1.8c0.2-0.5,0.6-0.9,1-1.2c0.4-0.3,1-0.4,1.6-0.4c0.8,0,1.4,0.2,1.9,0.7
				c0.5,0.4,0.8,1,0.8,1.8h-0.7c0-0.5-0.2-1-0.6-1.3c-0.4-0.3-0.8-0.5-1.3-0.5c-0.7,0-1.2,0.2-1.6,0.7c-0.4,0.5-0.6,1.2-0.6,2.1v0.2
				c0,0.9,0.2,1.6,0.6,2.1C196.5,25.25,197,25.45,197.7,25.45z"/>
			<path fill="#34495E" stroke="#000000" stroke-width="0.2" stroke-miterlimit="10" d="M204.2,19.65c-0.5,0-1,0.2-1.3,0.5
				c-0.4,0.3-0.5,0.7-0.5,1.2h-0.7c0-0.4,0.1-0.8,0.3-1.1c0.2-0.3,0.5-0.6,1-0.8c0.4-0.2,0.8-0.3,1.3-0.3c0.8,0,1.5,0.3,2.1,0.9
				s0.8,1.4,0.9,2.3v0.5c0,0.7-0.1,1.3-0.4,1.8c-0.2,0.5-0.6,0.9-1,1.2c-0.4,0.3-1,0.4-1.5,0.4c-0.8,0-1.4-0.2-1.9-0.7
				s-0.7-1-0.7-1.8h0.7c0,0.5,0.2,1,0.5,1.3c0.4,0.3,0.8,0.5,1.3,0.5c0.6,0,1.1-0.2,1.5-0.7s0.6-1.1,0.6-1.9h-3.1v-0.8h3.1
				c0-0.8-0.2-1.4-0.6-1.9C205.3,19.85,204.8,19.65,204.2,19.65z"/>
			<path fill="#34495E" stroke="#000000" stroke-width="0.2" stroke-miterlimit="10" d="M214.2,25.95h-0.8v-3.2h-3.7v3.2h-0.8v-6.9
				h0.8v3.1h3.7v-3.1h0.8V25.95z"/>
			<path fill="#34495E" stroke="#000000" stroke-width="0.2" stroke-miterlimit="10" d="M219.4,19.05h0.8v6.2h3.7v-6.2h0.8v6.2h0.7
				l-0.1,2.7h-0.7v-2h-5.2V19.05L219.4,19.05z"/>
			<path fill="#34495E" stroke="#000000" stroke-width="0.2" stroke-miterlimit="10" d="M231.1,25.95c-0.1-0.2-0.1-0.5-0.1-1
				c-0.3,0.3-0.6,0.6-1,0.8s-0.9,0.3-1.3,0.3c-0.7,0-1.2-0.2-1.6-0.6c-0.4-0.4-0.6-0.8-0.6-1.4c0-0.7,0.3-1.2,0.8-1.6
				c0.6-0.4,1.3-0.6,2.3-0.6h1.4v-0.7c0-0.5-0.2-0.9-0.5-1.2c-0.3-0.3-0.7-0.4-1.3-0.4c-0.5,0-1,0.1-1.3,0.4s-0.5,0.6-0.5,1h-0.8
				c0-0.5,0.3-1,0.8-1.4s1.1-0.6,1.9-0.6c0.8,0,1.4,0.2,1.8,0.6s0.7,0.9,0.7,1.6v3.3c0,0.7,0.1,1.2,0.2,1.5v0.1L231.1,25.95
				L231.1,25.95z M228.8,25.45c0.5,0,1-0.1,1.4-0.4c0.4-0.2,0.7-0.6,0.9-1v-1.5h-1.4c-0.8,0-1.4,0.1-1.8,0.4
				c-0.4,0.3-0.6,0.6-0.6,1.1c0,0.4,0.1,0.7,0.4,1C227.9,25.35,228.3,25.45,228.8,25.45z"/>
			<path fill="#34495E" stroke="#000000" stroke-width="0.2" stroke-miterlimit="10" d="M235.9,21.85l1.9-2.8h0.9l-2.3,3.4l2.4,3.5
				h-0.9l-2-2.9l-2,2.9H233l2.4-3.5l-2.3-3.4h0.9L235.9,21.85z"/>
			<path fill="#34495E" stroke="#000000" stroke-width="0.2" stroke-miterlimit="10" d="M244.7,19.05h0.8v6.9h-0.8v-5.7l-3.7,5.7
				h-0.8v-6.9h0.8v5.7L244.7,19.05z"/>
			<path fill="#34495E" stroke="#000000" stroke-width="0.2" stroke-miterlimit="10" d="M251.3,24.95l2.7-5.9h0.9v6.9h-0.8v-5.7
				l-2.6,5.7H251l-2.7-5.8v5.8h-0.8v-6.9h1L251.3,24.95z"/>
			<path fill="#34495E" stroke="#000000" stroke-width="0.2" stroke-miterlimit="10" d="M264.5,19.05h0.8l-2.5,6.7v2.8H262v-2.8
				l-2.5-6.7h0.8l2,5.4l0.1,0.6l0.2-0.6L264.5,19.05z"/>
			<path fill="#34495E" stroke="#000000" stroke-width="0.2" stroke-miterlimit="10" d="M271.1,19.05h0.8v6.9h-0.8v-5.7l-3.7,5.7
				h-0.8v-6.9h0.8v5.7L271.1,19.05z M271,16.65c0,0.5-0.2,0.9-0.5,1.2s-0.8,0.5-1.3,0.5c-0.6,0-1-0.2-1.3-0.4
				c-0.3-0.3-0.5-0.7-0.5-1.2h0.6c0,0.4,0.1,0.6,0.3,0.8c0.2,0.2,0.5,0.3,0.9,0.3s0.7-0.1,0.9-0.3c0.2-0.2,0.3-0.5,0.3-0.8
				L271,16.65L271,16.65z"/>
			<path fill="#34495E" stroke="#000000" stroke-width="0.2" stroke-miterlimit="10" d="M279.2,19.05v6.9h-0.8v-6.2h-2.8l-0.1,2.6
				c-0.1,1-0.1,1.7-0.3,2.2s-0.3,0.9-0.6,1.1c-0.3,0.2-0.6,0.4-1.1,0.4h-0.3v-0.7h0.2c0.4,0,0.8-0.2,0.9-0.6s0.3-1.2,0.4-2.2
				l0.1-3.3L279.2,19.05L279.2,19.05z"/>
			<path fill="#34495E" stroke="#000000" stroke-width="0.2" stroke-miterlimit="10" d="M286.1,25.95h-0.8v-2.9
				c-0.6,0.2-1.2,0.3-1.8,0.3c-0.9,0-1.6-0.2-2-0.6s-0.6-1-0.6-1.9v-1.9h0.8v1.8c0,0.7,0.2,1.1,0.4,1.4c0.3,0.3,0.8,0.4,1.4,0.4
				s1.2-0.1,1.8-0.3v-3.4h0.8L286.1,25.95L286.1,25.95z"/>
			<path fill="#34495E" stroke="#000000" stroke-width="0.2" stroke-miterlimit="10" d="M292.7,19.05h0.8v6.9h-0.8v-5.7l-3.7,5.7
				h-0.8v-6.9h0.8v5.7L292.7,19.05z"/>
			<path fill="#34495E" stroke="#000000" stroke-width="0.2" stroke-miterlimit="10" d="M300.8,19.05v6.9H300v-6.2h-2.8l-0.1,2.6
				c-0.1,1-0.1,1.7-0.3,2.2s-0.3,0.9-0.6,1.1c-0.3,0.2-0.6,0.4-1.1,0.4h-0.3v-0.7h0.2c0.4,0,0.8-0.2,0.9-0.6
				c0.2-0.4,0.3-1.2,0.4-2.2l0.1-3.3L300.8,19.05L300.8,19.05z"/>
			<path fill="#34495E" stroke="#000000" stroke-width="0.2" stroke-miterlimit="10" d="M307.1,19.75h-3.5v6.2h-0.8v-6.9h4.2
				L307.1,19.75L307.1,19.75z"/>
			<path fill="#34495E" stroke="#000000" stroke-width="0.2" stroke-miterlimit="10" d="M310.6,19.65c-0.5,0-1,0.2-1.3,0.5
				c-0.4,0.3-0.5,0.7-0.5,1.2h-0.7c0-0.4,0.1-0.8,0.3-1.1c0.2-0.3,0.5-0.6,1-0.8c0.4-0.2,0.8-0.3,1.3-0.3c0.8,0,1.5,0.3,2.1,0.9
				s0.8,1.4,0.9,2.3v0.5c0,0.7-0.1,1.3-0.4,1.8c-0.2,0.5-0.6,0.9-1,1.2c-0.4,0.3-1,0.4-1.5,0.4c-0.8,0-1.4-0.2-1.9-0.7
				s-0.7-1-0.7-1.8h0.7c0,0.5,0.2,1,0.5,1.3c0.4,0.3,0.8,0.5,1.3,0.5c0.6,0,1.1-0.2,1.5-0.7s0.6-1.1,0.6-1.9h-3.1v-0.8h3.1
				c0-0.8-0.2-1.4-0.6-1.9C311.8,19.85,311.3,19.65,310.6,19.65z"/>
			<path fill="#34495E" stroke="#000000" stroke-width="0.2" stroke-miterlimit="10" d="M317.6,19.65c-0.5,0-1,0.2-1.3,0.5
				c-0.4,0.3-0.5,0.7-0.5,1.2h-0.7c0-0.4,0.1-0.8,0.3-1.1c0.2-0.3,0.5-0.6,1-0.8c0.4-0.2,0.8-0.3,1.3-0.3c0.8,0,1.5,0.3,2.1,0.9
				s0.8,1.4,0.9,2.3v0.5c0,0.7-0.1,1.3-0.4,1.8c-0.2,0.5-0.6,0.9-1,1.2c-0.4,0.3-1,0.4-1.5,0.4c-0.8,0-1.4-0.2-1.9-0.7
				s-0.7-1-0.7-1.8h0.7c0,0.5,0.2,1,0.5,1.3c0.4,0.3,0.8,0.5,1.3,0.5c0.6,0,1.1-0.2,1.5-0.7s0.6-1.1,0.6-1.9h-3.1v-0.8h3.1
				c0-0.8-0.2-1.4-0.6-1.9C318.8,19.85,318.3,19.65,317.6,19.65z"/>
		</g>
	</g>
	<g>
		<g>
			<path fill="#34495E" d="M1,19.4c1.4,0.7,3.7,1.5,5.9,1.5c2.5,0,3.8-1,3.8-2.6c0-1.5-1.1-2.3-4-3.3c-3.9-1.4-6.5-3.6-6.5-7
				c0-4,3.4-7.1,9-7.1c2.7,0,4.6,0.6,6.1,1.2l-1.2,4.3c-0.9-0.5-2.6-1.1-5-1.1S5.7,6.4,5.7,7.6c0,1.5,1.3,2.2,4.4,3.3
				c4.2,1.5,6.2,3.7,6.2,7.1c0,4-3.1,7.4-9.6,7.4C4,25.4,1.3,24.7,0,24L1,19.4z"/>
			<path fill="#34495E" d="M19.6,13.2c0-2.1-0.1-4-0.1-5.5H24l0.2,2.3h0.1c0.7-1.1,2.3-2.7,5.2-2.7c2.2,0,4,1.1,4.7,2.9h0.1
				c0.6-0.9,1.4-1.6,2.2-2.1c1-0.6,2-0.8,3.3-0.8c3.3,0,5.8,2.3,5.8,7.5v10.1h-5.2v-9.4c0-2.5-0.8-3.9-2.5-3.9
				c-1.2,0-2.1,0.8-2.5,1.9c-0.1,0.4-0.2,1-0.2,1.4V25H30v-9.6c0-2.2-0.8-3.7-2.5-3.7c-1.4,0-2.2,1.1-2.5,1.9
				c-0.2,0.4-0.2,0.9-0.2,1.3v10h-5.2L19.6,13.2L19.6,13.2z"/>
			<path fill="#34495E" d="M59.7,24.9l-0.3-1.7h-0.1c-1.1,1.4-2.9,2.1-4.9,2.1c-3.5,0-5.6-2.5-5.6-5.3c0-4.5,4-6.6,10.1-6.6v-0.2
				c0-0.9-0.5-2.2-3.1-2.2c-1.8,0-3.6,0.6-4.8,1.3l-1-3.4c1.2-0.7,3.6-1.5,6.7-1.5c5.7,0,7.6,3.4,7.6,7.4v6c0,1.7,0.1,3.2,0.2,4.2
				L59.7,24.9L59.7,24.9z M59,16.8c-2.8,0-5,0.6-5,2.7c0,1.4,0.9,2,2.1,2c1.3,0,2.4-0.9,2.8-2c0.1-0.3,0.1-0.6,0.1-0.9L59,16.8
				L59,16.8z"/>
			<path fill="#34495E" d="M68.5,13.4c0-2.5-0.1-4.2-0.1-5.7H73l0.2,3.2h0.1c0.9-2.5,3-3.6,4.6-3.6c0.5,0,0.7,0,1.1,0.1v5
				c-0.4-0.1-0.8-0.1-1.4-0.1c-2,0-3.3,1.1-3.7,2.7c-0.1,0.3-0.1,0.7-0.1,1.2v8.7h-5.3V13.4L68.5,13.4z"/>
			<path fill="#34495E" d="M88.5,2.8v4.9h3.8v3.9h-3.8v6.2c0,2.1,0.5,3,2.1,3c0.7,0,1.2-0.1,1.6-0.1v4c-0.7,0.3-2,0.5-3.5,0.5
				c-1.7,0-3.2-0.6-4-1.5c-1-1-1.5-2.7-1.5-5.1v-7h-2.3V7.7h2.3V4L88.5,2.8z"/>
		</g>
		<g>
			<path fill="#139BD7" d="M149.7,16.5c0,7.2-5.8,13-13,13H108c-7.2,0-13-5.8-13-13V13c0-7.2,5.8-13,13-13h28.7c7.2,0,13,5.8,13,13
				V16.5L149.7,16.5z"/>
			<g>
				<path fill="#FFFFFF" d="M113.4,23.7c-1,0.4-2.7,0.8-4.8,0.8c-5.6,0-9.1-3.4-9.1-8.8c0-5,3.4-9.1,9.9-9.1c1.4,0,3,0.2,4.1,0.7
					l-0.8,4c-0.6-0.3-1.6-0.5-3-0.5c-2.8,0-4.6,2-4.6,4.8c0,3.2,2.1,4.8,4.7,4.8c1.3,0,2.3-0.2,3.1-0.5L113.4,23.7z"/>
				<path fill="#FFFFFF" d="M126.3,24.1l-0.3-1.7h-0.1c-1.1,1.4-2.9,2.1-4.9,2.1c-3.5,0-5.6-2.5-5.6-5.3c0-4.5,4-6.6,10.1-6.6v-0.2
					c0-0.9-0.5-2.2-3.1-2.2c-1.8,0-3.6,0.6-4.8,1.3l-1-3.4c1.2-0.7,3.6-1.5,6.7-1.5c5.7,0,7.6,3.4,7.6,7.4v6c0,1.7,0.1,3.2,0.2,4.2
					L126.3,24.1L126.3,24.1L126.3,24.1z M125.7,16c-2.8,0-5,0.6-5,2.7c0,1.4,0.9,2,2.1,2c1.3,0,2.4-0.9,2.8-2
					c0.1-0.3,0.1-0.6,0.1-0.9V16L125.7,16z"/>
				<path fill="#FFFFFF" d="M135.1,12.5c0-2.5-0.1-4.2-0.1-5.7h4.6l0.2,3.2h0.1c0.9-2.5,3-3.6,4.6-3.6c0.5,0,0.7,0,1.1,0.1v5
					c-0.4-0.1-0.8-0.1-1.4-0.1c-2,0-3.3,1.1-3.7,2.7c-0.1,0.4-0.1,0.8-0.1,1.2V24h-5.3L135.1,12.5L135.1,12.5z"/>
			</g>
		</g>
	</g>
	<line fill="none" stroke="#34495E" stroke-width="0.5" stroke-miterlimit="10" x1="158.7" y1="0" x2="158.7" y2="29.5"/>
</g>
</svg>
