<?xml version="1.0" encoding="utf-8"?>
<!-- Generator: Adobe Illustrator 19.2.0, SVG Export Plug-In . SVG Version: 6.00 Build 0)  -->
<svg version="1.1" id="Layer_1" xmlns="http://www.w3.org/2000/svg" xmlns:xlink="http://www.w3.org/1999/xlink" x="0px" y="0px"
	 viewBox="0 0 50 50" enable-background="new 0 0 50 50" xml:space="preserve">
<g>
	<g>
		<path fill="#1890FF" d="M10.292,35.266c-3.138,0-5.692-2.553-5.692-5.692s2.553-5.692,5.692-5.692
			c3.139,0,5.693,2.553,5.693,5.692S13.431,35.266,10.292,35.266z M10.292,25.452c-2.273,0-4.123,1.849-4.123,4.123
			s1.849,4.123,4.123,4.123c2.274,0,4.124-1.849,4.124-4.123S12.566,25.452,10.292,25.452z"/>
	</g>
	<g>
		<path fill="#1890FF" d="M16.812,30.359c-0.433,0-0.785-0.351-0.785-0.785c0-3.163-2.573-5.736-5.735-5.736
			c-1.389,0-2.729,0.503-3.774,1.417c-0.327,0.285-0.822,0.252-1.107-0.074c-0.285-0.326-0.252-0.822,0.074-1.107
			c1.331-1.165,3.038-1.806,4.807-1.806c4.028,0,7.304,3.277,7.304,7.305C17.596,30.008,17.245,30.359,16.812,30.359z"/>
	</g>
	<g>
		<path fill="#1890FF" d="M10.292,32.558c-1.645,0-2.983-1.339-2.983-2.984c0-1.645,1.338-2.984,2.983-2.984
			s2.983,1.339,2.983,2.984C13.275,31.22,11.937,32.558,10.292,32.558z M10.292,28.16c-0.78,0-1.414,0.635-1.414,1.415
			c0,0.78,0.634,1.414,1.414,1.414c0.78,0,1.414-0.634,1.414-1.414C11.706,28.795,11.072,28.16,10.292,28.16z"/>
	</g>
	<g>
		<path fill="#1890FF" d="M39.707,35.266c-3.138,0-5.692-2.553-5.692-5.692s2.553-5.692,5.692-5.692
			c3.139,0,5.693,2.553,5.693,5.692S42.846,35.266,39.707,35.266z M39.707,25.452c-2.273,0-4.123,1.849-4.123,4.123
			s1.849,4.123,4.123,4.123c2.274,0,4.123-1.849,4.123-4.123S41.981,25.452,39.707,25.452z"/>
	</g>
	<g>
		<path fill="#1890FF" d="M39.707,32.681c-1.712,0-3.105-1.393-3.105-3.106c0-1.713,1.393-3.107,3.105-3.107
			c1.713,0,3.107,1.394,3.107,3.107C42.814,31.288,41.42,32.681,39.707,32.681z M39.707,28.037c-0.847,0-1.536,0.69-1.536,1.537
			c0,0.847,0.689,1.537,1.536,1.537c0.848,0,1.537-0.69,1.537-1.537C41.244,28.727,40.555,28.037,39.707,28.037z"/>
	</g>
	<g>
		<path fill="#1890FF" d="M10.291,30.359c-0.164,0-0.329-0.051-0.47-0.157c-0.347-0.26-0.417-0.752-0.157-1.098l8.771-11.695
			c0.148-0.197,0.38-0.314,0.628-0.314h4.257c0.433,0,0.785,0.351,0.785,0.785c0,0.433-0.351,0.785-0.785,0.785h-3.865L10.92,30.045
			C10.766,30.251,10.53,30.359,10.291,30.359z"/>
	</g>
	<g>
		<path fill="#1890FF" d="M26.126,25.452h-5.611c-1.822,0-3.305-1.483-3.305-3.306c0-1.822,1.483-3.304,3.305-3.304h5.611
			c1.822,0,3.304,1.482,3.304,3.304C29.43,23.969,27.948,25.452,26.126,25.452z M20.515,20.412c-0.957,0-1.736,0.778-1.736,1.735
			c0,0.958,0.779,1.737,1.736,1.737h5.611c0.957,0,1.735-0.779,1.735-1.737c0-0.957-0.778-1.735-1.735-1.735H20.515z"/>
	</g>
	<g>
		<path fill="#1890FF" d="M37.411,25.452H26.126c-0.433,0-0.785-0.351-0.785-0.785c0-0.433,0.351-0.785,0.785-0.785h11.285
			c0.262,0,0.475-0.214,0.475-0.477c0-0.262-0.213-0.475-0.475-0.475h-8.765c-0.433,0-0.785-0.351-0.785-0.785
			s0.351-0.785,0.785-0.785h8.765c1.127,0,2.044,0.917,2.044,2.045C39.455,24.534,38.538,25.452,37.411,25.452z"/>
	</g>
	<g>
		<path fill="#1890FF" d="M35.103,32.918H25.04c-3.273,0-5.742-2.289-5.742-5.323c0-0.433,0.351-0.785,0.785-0.785
			s0.785,0.351,0.785,0.785c0,2.14,1.794,3.754,4.172,3.754h10.063c0.433,0,0.785,0.351,0.785,0.785
			C35.887,32.566,35.536,32.918,35.103,32.918z"/>
	</g>
	<g>
		<path fill="#1890FF" d="M20.083,28.379c-0.433,0-0.785-0.351-0.785-0.785v-2.927c0-0.433,0.351-0.785,0.785-0.785
			s0.785,0.351,0.785,0.785v2.927C20.867,28.028,20.516,28.379,20.083,28.379z"/>
	</g>
	<g>
		<path fill="#1890FF" d="M31.657,27.984h-7.936c-0.433,0-0.785-0.351-0.785-0.785c0-0.433,0.351-0.785,0.785-0.785h7.936
			c0.433,0,0.785,0.351,0.785,0.785C32.441,27.632,32.09,27.984,31.657,27.984z"/>
	</g>
	<g>
		<path fill="#1890FF" d="M31.657,30.359h-7.936c-0.433,0-0.785-0.351-0.785-0.785s0.351-0.785,0.785-0.785h7.936
			c0.433,0,0.785,0.351,0.785,0.785S32.09,30.359,31.657,30.359z"/>
	</g>
	<g>
		<path fill="#1890FF" d="M17.001,21.413h-1.8c-0.433,0-0.785-0.351-0.785-0.785v-3.515c0-0.433,0.351-0.785,0.785-0.785
			c2.503,0,3.561,1.638,3.771,2.504c0.102,0.421-0.157,0.845-0.578,0.947c-0.416,0.104-0.839-0.152-0.945-0.568
			c-0.033-0.12-0.306-0.959-1.463-1.23v1.862h1.016c0.433,0,0.785,0.351,0.785,0.785S17.434,21.413,17.001,21.413z"/>
	</g>
</g>
</svg>
