<?xml version="1.0" encoding="utf-8"?>
<!-- Generator: Adobe Illustrator 19.2.0, SVG Export Plug-In . SVG Version: 6.00 Build 0)  -->
<svg version="1.1" id="Layer_1" xmlns="http://www.w3.org/2000/svg" xmlns:xlink="http://www.w3.org/1999/xlink" x="0px" y="0px"
	 viewBox="0 0 100 100" enable-background="new 0 0 100 100" xml:space="preserve">
<g>
	<g>
		<path fill="#5F8FC9" d="M61.14,71.956c0,1.65-1.35,3-3,3H41.86c-1.65,0-3-1.35-3-3V28.044c0-1.65,1.35-3,3-3h16.28
			c1.65,0,3,1.35,3,3V71.956z"/>
		<path fill="none" stroke="#4E6B8D" stroke-linecap="round" stroke-linejoin="round" stroke-miterlimit="10" d="M61.14,71.956
			c0,1.65-1.35,3-3,3H41.86c-1.65,0-3-1.35-3-3V28.044c0-1.65,1.35-3,3-3h16.28c1.65,0,3,1.35,3,3V71.956z"/>
	</g>
	
		<circle fill="#F9B235" stroke="#4E6B8D" stroke-linecap="round" stroke-linejoin="round" stroke-miterlimit="10" cx="50" cy="34.682" r="6.096"/>
	<path fill="#7AB8F4" stroke="#4E6B8D" stroke-linecap="round" stroke-linejoin="round" stroke-miterlimit="10" d="M50,31.087
		c2.938,0,5.389,2.079,5.966,4.846c0.084-0.405,0.131-0.823,0.131-1.251c0-3.368-2.729-6.096-6.096-6.096
		c-3.367,0-6.096,2.728-6.096,6.096c0,0.427,0.047,0.845,0.131,1.251C44.611,33.165,47.062,31.087,50,31.087z"/>
	<circle fill="#D15E5E" stroke="#4E6B8D" stroke-miterlimit="10" cx="50" cy="50.001" r="6.096"/>
	<circle fill="#31BC6C" stroke="#4E6B8D" stroke-miterlimit="10" cx="50" cy="65.32" r="6.096"/>
	<path fill="#7AB8F4" stroke="#4E6B8D" stroke-linecap="round" stroke-linejoin="round" stroke-miterlimit="10" d="M50,46.406
		c2.938,0,5.389,2.079,5.966,4.846c0.084-0.405,0.131-0.823,0.131-1.251c0-3.368-2.729-6.096-6.096-6.096
		c-3.367,0-6.096,2.728-6.096,6.096c0,0.427,0.047,0.845,0.131,1.251C44.611,48.484,47.062,46.406,50,46.406z"/>
	<path fill="#7AB8F4" stroke="#4E6B8D" stroke-linecap="round" stroke-linejoin="round" stroke-miterlimit="10" d="M50,61.725
		c2.938,0,5.389,2.079,5.966,4.846c0.084-0.405,0.131-0.823,0.131-1.251c0-3.368-2.729-6.096-6.096-6.096
		c-3.367,0-6.096,2.728-6.096,6.096c0,0.427,0.047,0.845,0.131,1.251C44.611,63.804,47.062,61.725,50,61.725z"/>
	<polyline fill="none" stroke="#00FF67" stroke-linecap="round" stroke-miterlimit="10" points="47.538,65.32 49.296,67.431 
		52.462,64.304 	"/>
	<g>
		
			<line fill="none" stroke="#FF5F5F" stroke-linecap="round" stroke-miterlimit="10" x1="47.833" y1="48.399" x2="52.167" y2="52.737"/>
		
			<line fill="none" stroke="#FF5F5F" stroke-linecap="round" stroke-miterlimit="10" x1="47.833" y1="52.734" x2="52.167" y2="48.399"/>
	</g>
	<g>
		<path fill="#F7D237" d="M50.5,32.547l-0.268,3.646c-0.009,0.128-0.121,0.225-0.249,0.215c-0.117-0.009-0.207-0.102-0.215-0.215
			L49.5,32.547c-0.02-0.276,0.187-0.517,0.463-0.537c0.276-0.02,0.516,0.187,0.537,0.463C50.501,32.498,50.501,32.524,50.5,32.547z"
			/>
	</g>
	<circle fill="#F7D237" cx="50" cy="37.779" r="0.674"/>
</g>
</svg>
