<?xml version="1.0" encoding="utf-8"?>
<!-- Generator: Adobe Illustrator 19.2.0, SVG Export Plug-In . SVG Version: 6.00 Build 0)  -->
<svg version="1.1" id="Layer_1" xmlns="http://www.w3.org/2000/svg" xmlns:xlink="http://www.w3.org/1999/xlink" x="0px" y="0px"
	 viewBox="0 0 100 100" enable-background="new 0 0 100 100" xml:space="preserve">
<g>
	<rect x="47.761" y="56.17" fill="#BCDCF7" stroke="#4E6B8D" stroke-miterlimit="10" width="4.477" height="20.11"/>
	<g>
		<path fill="#5F8FC9" d="M66.962,53.17c0,1.65-1.35,3-3,3H36.038c-1.65,0-3-1.35-3-3V26.72c0-1.65,1.35-3,3-3h27.924
			c1.65,0,3,1.35,3,3V53.17z"/>
		<path fill="none" stroke="#4E6B8D" stroke-linecap="round" stroke-linejoin="round" stroke-miterlimit="10" d="M66.962,53.17
			c0,1.65-1.35,3-3,3H36.038c-1.65,0-3-1.35-3-3V26.72c0-1.65,1.35-3,3-3h27.924c1.65,0,3,1.35,3,3V53.17z"/>
	</g>
	<g>
		<path fill="#FFFFFF" d="M47.947,42.832v6.744h-4.791V29.699h7.932c1.518,0,2.864,0.28,4.033,0.839
			c1.169,0.561,2.074,1.355,2.717,2.389c0.642,1.032,0.962,2.205,0.962,3.516c0,1.938-0.693,3.488-2.082,4.647
			c-1.388,1.161-3.294,1.742-5.714,1.742H47.947z M47.947,39.132h3.14c0.927,0,1.635-0.23,2.123-0.696
			c0.486-0.464,0.728-1.119,0.728-1.965c0-0.93-0.248-1.67-0.75-2.226c-0.499-0.556-1.183-0.837-2.047-0.845h-3.195V39.132z"/>
	</g>
</g>
</svg>
