<?xml version="1.0" encoding="utf-8"?>
<!-- Generator: Adobe Illustrator 19.2.0, SVG Export Plug-In . SVG Version: 6.00 Build 0)  -->
<svg version="1.1" id="Layer_1" xmlns="http://www.w3.org/2000/svg" xmlns:xlink="http://www.w3.org/1999/xlink" x="0px" y="0px"
	 viewBox="0 0 100 100" enable-background="new 0 0 100 100" xml:space="preserve">
<g>
	<g>
		<g>
			<path fill="#DBDBDB" d="M77.098,71.165c0,1.65-1.35,3-3,3h-21.2c-1.65,0-3-1.35-3-3v-42.33c0-1.65,1.35-3,3-3h21.2
				c1.65,0,3,1.35,3,3V71.165z"/>
			<path fill="none" stroke="#4E6B8D" stroke-linecap="round" stroke-linejoin="round" stroke-miterlimit="10" d="M77.098,71.165
				c0,1.65-1.35,3-3,3h-21.2c-1.65,0-3-1.35-3-3v-42.33c0-1.65,1.35-3,3-3h21.2c1.65,0,3,1.35,3,3V71.165z"/>
		</g>
		
			<line fill="#DBDBDB" stroke="#4E6B8D" stroke-linecap="round" stroke-linejoin="round" stroke-miterlimit="10" x1="55.565" y1="32.467" x2="72.304" y2="32.467"/>
		
			<line fill="#DBDBDB" stroke="#4E6B8D" stroke-linecap="round" stroke-linejoin="round" stroke-miterlimit="10" x1="55.565" y1="36.616" x2="72.304" y2="36.616"/>
		
			<line fill="#DBDBDB" stroke="#4E6B8D" stroke-linecap="round" stroke-linejoin="round" stroke-miterlimit="10" x1="55.565" y1="40.765" x2="72.304" y2="40.765"/>
		
			<line fill="#DBDBDB" stroke="#4E6B8D" stroke-linecap="round" stroke-linejoin="round" stroke-miterlimit="10" x1="55.565" y1="44.914" x2="72.304" y2="44.914"/>
		
			<line fill="#DBDBDB" stroke="#4E6B8D" stroke-linecap="round" stroke-linejoin="round" stroke-miterlimit="10" x1="55.565" y1="49.064" x2="72.304" y2="49.064"/>
		
			<line fill="#DBDBDB" stroke="#4E6B8D" stroke-linecap="round" stroke-linejoin="round" stroke-miterlimit="10" x1="55.565" y1="53.213" x2="72.304" y2="53.213"/>
		
			<line fill="#DBDBDB" stroke="#4E6B8D" stroke-linecap="round" stroke-linejoin="round" stroke-miterlimit="10" x1="55.565" y1="57.362" x2="72.304" y2="57.362"/>
		
			<line fill="#DBDBDB" stroke="#4E6B8D" stroke-linecap="round" stroke-linejoin="round" stroke-miterlimit="10" x1="55.565" y1="61.511" x2="72.304" y2="61.511"/>
		
			<line fill="#DBDBDB" stroke="#4E6B8D" stroke-linecap="round" stroke-linejoin="round" stroke-miterlimit="10" x1="55.565" y1="65.66" x2="72.304" y2="65.66"/>
	</g>
	<g>
		<g>
			<path fill="#BCDCF7" d="M64.017,66.843c0,1.65-1.35,3-3,3H25.903c-1.65,0-3-1.35-3-3V45.16c0-1.65,1.35-3,3-3h35.114
				c1.65,0,3,1.35,3,3V66.843z"/>
			<path fill="none" stroke="#4E6B8D" stroke-miterlimit="10" d="M64.017,66.843c0,1.65-1.35,3-3,3H25.903c-1.65,0-3-1.35-3-3V45.16
				c0-1.65,1.35-3,3-3h35.114c1.65,0,3,1.35,3,3V66.843z"/>
		</g>
		
			<rect x="22.903" y="48.541" fill="#5F8FC9" stroke="#4E6B8D" stroke-linecap="round" stroke-linejoin="round" stroke-miterlimit="10" width="41.114" height="7.459"/>
		<path fill="#F9B235" stroke="#4E6B8D" stroke-linecap="round" stroke-linejoin="round" stroke-miterlimit="10" d="M34.855,59.611
			c-0.987,0-1.868,0.425-2.491,1.095c-0.623-0.669-1.504-1.095-2.491-1.095c-1.884,0-3.411,1.527-3.411,3.411
			c0,1.884,1.527,3.411,3.411,3.411c0.987,0,1.868-0.425,2.491-1.095c0.623,0.669,1.504,1.095,2.491,1.095
			c1.884,0,3.411-1.527,3.411-3.411C38.265,61.138,36.738,59.611,34.855,59.611z"/>
		
			<line fill="#F9B235" stroke="#4E6B8D" stroke-linecap="round" stroke-linejoin="round" stroke-miterlimit="10" x1="44.09" y1="60.914" x2="60.338" y2="60.914"/>
		
			<line fill="#F9B235" stroke="#4E6B8D" stroke-linecap="round" stroke-linejoin="round" stroke-miterlimit="10" x1="44.09" y1="63.673" x2="56.506" y2="63.673"/>
	</g>
</g>
</svg>
