<?xml version="1.0" encoding="utf-8"?>
<!-- Generator: Adobe Illustrator 19.2.0, SVG Export Plug-In . SVG Version: 6.00 Build 0)  -->
<svg version="1.1" id="Layer_1" xmlns="http://www.w3.org/2000/svg" xmlns:xlink="http://www.w3.org/1999/xlink" x="0px" y="0px"
	 viewBox="0 0 100 100" enable-background="new 0 0 100 100" xml:space="preserve">
<g>
	<g>
		<path fill="#5F8FC9" stroke="#4E6B8D" stroke-linecap="round" stroke-linejoin="round" stroke-miterlimit="10" d="M54.03,49.935
			l-2.576-0.262c-0.263-0.891-0.611-1.744-1.048-2.546l1.633-2.001c0.547-0.672,0.494-1.72-0.118-2.334l-2.412-2.412
			c-0.613-0.611-1.662-0.666-2.334-0.118l-2.001,1.632c-0.8-0.436-1.655-0.785-2.546-1.048l-0.262-2.574
			c-0.088-0.862-0.868-1.568-1.734-1.568h-3.412c-0.866,0-1.646,0.705-1.734,1.568l-0.262,2.574
			c-0.892,0.263-1.744,0.612-2.545,1.048l-2.001-1.632c-0.672-0.548-1.721-0.493-2.334,0.118l-2.412,2.412
			c-0.612,0.613-0.665,1.662-0.119,2.334l1.633,2.001c-0.437,0.802-0.785,1.655-1.048,2.546l-2.575,0.262
			c-0.862,0.087-1.567,0.867-1.567,1.733v3.412c0,0.866,0.705,1.645,1.567,1.733l2.575,0.262c0.263,0.89,0.611,1.745,1.048,2.544
			l-1.632,2.002c-0.547,0.671-0.494,1.721,0.119,2.332l2.412,2.412c0.613,0.612,1.662,0.666,2.334,0.119l2.001-1.633
			c0.801,0.436,1.654,0.785,2.546,1.048l0.262,2.576c0.088,0.862,0.868,1.566,1.734,1.566h3.412c0.866,0,1.646-0.704,1.734-1.566
			l0.262-2.576c0.891-0.263,1.745-0.612,2.546-1.048l2.001,1.633c0.671,0.547,1.721,0.493,2.334-0.119l2.412-2.412
			c0.612-0.612,0.665-1.662,0.118-2.334l-1.633-2.001c0.436-0.799,0.785-1.655,1.048-2.544l2.576-0.262
			c0.861-0.088,1.567-0.867,1.567-1.733v-3.412C55.597,50.803,54.892,50.022,54.03,49.935z M38.926,63.4
			c-5.537,0-10.025-4.489-10.025-10.026c0-5.538,4.488-10.026,10.025-10.026s10.025,4.487,10.025,10.026
			C48.951,58.911,44.463,63.4,38.926,63.4z"/>
		<circle fill="#BCDCF7" stroke="#4E6B8D" stroke-miterlimit="10" cx="38.926" cy="53.374" r="7.532"/>
	</g>
	<g>
		
			<rect x="66.14" y="55.944" transform="matrix(0.8435 -0.5372 0.5372 0.8435 -21.8636 45.9077)" fill="#F9B235" stroke="#4E6B8D" stroke-linecap="round" stroke-linejoin="round" stroke-miterlimit="10" width="3.409" height="9.054"/>
		
			<rect x="69.633" y="63.577" transform="matrix(0.8431 -0.5378 0.5378 0.8431 -25.2158 49.7933)" fill="#5F8FC9" stroke="#4E6B8D" stroke-linecap="round" stroke-linejoin="round" stroke-miterlimit="10" width="6.16" height="9.053"/>
		
			<ellipse transform="matrix(0.8431 -0.5377 0.5377 0.8431 -14.3874 37.4158)" fill="#F9B235" stroke="#4E6B8D" stroke-linecap="round" stroke-linejoin="round" stroke-miterlimit="10" cx="56.936" cy="43.367" rx="16.941" ry="16.941"/>
		
			<ellipse transform="matrix(0.8431 -0.5377 0.5377 0.8431 -14.3871 37.4181)" fill="#BCDCF7" stroke="#4E6B8D" stroke-miterlimit="10" cx="56.936" cy="43.366" rx="13.214" ry="13.215"/>
		<path fill="#FFFFFF" d="M49.831,32.225c-1.359,0.867-2.493,1.95-3.414,3.163c4.116,5.435,11.776,6.891,17.624,3.163
			c1.359-0.866,2.493-1.95,3.413-3.164C63.339,29.953,55.678,28.497,49.831,32.225z"/>
		
			<ellipse transform="matrix(0.8431 -0.5377 0.5377 0.8431 -14.3871 37.4181)" fill="none" stroke="#4E6B8D" stroke-miterlimit="10" cx="56.936" cy="43.366" rx="13.214" ry="13.215"/>
	</g>
</g>
</svg>
