<?xml version="1.0" encoding="utf-8"?>
<!-- Generator: Adobe Illustrator 19.2.0, SVG Export Plug-In . SVG Version: 6.00 Build 0)  -->
<svg version="1.1" id="Layer_1" xmlns="http://www.w3.org/2000/svg" xmlns:xlink="http://www.w3.org/1999/xlink" x="0px" y="0px"
	 viewBox="0 0 100 100" enable-background="new 0 0 100 100" xml:space="preserve">
<g>
	<path fill="#5F8FC9" stroke="#4E6B8D" stroke-linecap="round" stroke-linejoin="round" stroke-miterlimit="10" d="M50,25.505
		c-13.528,0-24.494,10.967-24.494,24.496c0,13.527,10.966,24.494,24.494,24.494s24.495-10.967,24.495-24.494
		C74.494,36.472,63.528,25.505,50,25.505z M44.496,68.392c-7.686-2.299-13.331-9.279-13.659-17.632
		C31.326,50.87,45,54.036,44.496,68.392z M36.962,43.645c-5.145,0-3.314-3.963-2.446-4.957c3.488-4.778,9.115-7.89,15.484-7.89
		c6.369,0,11.997,3.112,15.484,7.89c0.428,0.493,2.699,4.957-2.445,4.957H50H36.962z M55.542,68.392
		C55.039,54.036,68.712,50.87,69.202,50.76C68.873,59.113,63.229,66.092,55.542,68.392z"/>
	<path fill="#86BBEF" d="M50,27.775c13.147,0,23.873,10.358,24.466,23.36c0.017-0.375,0.029-0.753,0.029-1.134
		c0-13.529-10.967-24.496-24.495-24.496S25.506,36.472,25.506,50.001c0,0.38,0.011,0.758,0.029,1.134
		C26.127,38.133,36.853,27.775,50,27.775z"/>
	<path fill="#4F74B7" d="M50,72.225c13.147,0,23.873-10.358,24.466-23.36c0.017,0.376,0.029,0.754,0.029,1.134
		c0,13.529-10.967,24.496-24.495,24.496S25.506,63.528,25.506,49.999c0-0.38,0.011-0.758,0.029-1.134
		C26.127,61.867,36.853,72.225,50,72.225z"/>
	<path fill="#4F74B7" d="M30.837,50.76C31.326,50.87,45,54.036,44.496,68.392c0,0,3.089-8.491-1.788-13.765
		C37.83,49.351,30.837,50.76,30.837,50.76z"/>
	<path fill="#86BBEF" d="M62.566,43.645H50H37.433c0,0-3.157,0.206-3.819-1.524c0,0,0.429,3.092,4.534,3.092
		c4.104,0,11.851,0,11.851,0s7.746,0,11.851,0c4.105,0,4.534-3.092,4.534-3.092C65.723,43.851,62.566,43.645,62.566,43.645z"/>
	<path fill="#4F74B7" d="M69.128,50.76c-0.489,0.11-14.162,3.276-13.658,17.632c0,0-3.09-8.491,1.788-13.765
		C62.135,49.351,69.128,50.76,69.128,50.76z"/>
	<path fill="none" stroke="#4E6B8D" stroke-linecap="round" stroke-linejoin="round" stroke-miterlimit="10" d="M50,25.505
		c-13.528,0-24.494,10.967-24.494,24.496c0,13.527,10.966,24.494,24.494,24.494s24.495-10.967,24.495-24.494
		C74.494,36.472,63.528,25.505,50,25.505z M44.496,68.392c-7.686-2.299-13.331-9.279-13.659-17.632
		C31.326,50.87,45,54.036,44.496,68.392z M36.962,43.645c-5.145,0-3.314-3.963-2.446-4.957c3.488-4.778,9.115-7.89,15.484-7.89
		c6.369,0,11.997,3.112,15.484,7.89c0.428,0.493,2.699,4.957-2.445,4.957H50H36.962z M55.542,68.392
		C55.039,54.036,68.712,50.87,69.202,50.76C68.873,59.113,63.229,66.092,55.542,68.392z"/>
	<ellipse opacity="0.2" fill="#86BBEF" cx="50" cy="50.77" rx="5.444" ry="3.346"/>
	<path fill="#86BBEF" d="M50,53.653c-2.879,0-5.231-1.377-5.425-3.117c-0.009,0.079-0.019,0.155-0.019,0.233
		c0,1.848,2.438,3.347,5.444,3.347c3.006,0,5.444-1.499,5.444-3.347c0-0.079-0.01-0.155-0.019-0.233
		C55.231,52.276,52.879,53.653,50,53.653z"/>
	<path fill="#4F74B7" d="M50,48.048c2.836,0,5.162,1.332,5.419,3.033c0.015-0.103,0.026-0.206,0.026-0.312
		c0-1.848-2.438-3.345-5.444-3.345c-3.006,0-5.444,1.497-5.444,3.345c0,0.106,0.01,0.209,0.026,0.312
		C44.837,49.38,47.164,48.048,50,48.048z"/>
</g>
</svg>
