<?xml version="1.0" encoding="utf-8"?>
<!-- Generator: Adobe Illustrator 19.2.0, SVG Export Plug-In . SVG Version: 6.00 Build 0)  -->
<svg version="1.1" id="Layer_1" xmlns="http://www.w3.org/2000/svg" xmlns:xlink="http://www.w3.org/1999/xlink" x="0px" y="0px"
	 viewBox="0 0 100 100" enable-background="new 0 0 100 100" xml:space="preserve">
<g>
	<g>
		
			<polyline fill="none" stroke="#31BC6C" stroke-width="3" stroke-linecap="round" stroke-linejoin="round" stroke-miterlimit="10" points="
			60.34,38.961 64.789,44.495 76.239,31.941 		"/>
		
			<circle fill="none" stroke="#31BC6C" stroke-width="3" stroke-linecap="round" stroke-linejoin="round" stroke-miterlimit="10" cx="68.29" cy="38.219" r="17.721"/>
	</g>
	<g>
		<g>
			<path fill="#4E6B8D" d="M26.17,77.759c0,0.962-0.782,1.744-1.745,1.744h-4.947c-0.965,0-1.746-0.783-1.746-1.744V66.457
				c0-0.965,0.781-1.744,1.746-1.744h4.947c0.963,0,1.745,0.779,1.745,1.744V77.759z"/>
			<path fill="#4E6B8D" d="M62.274,77.759c0,0.962-0.784,1.744-1.746,1.744H55.58c-0.963,0-1.744-0.783-1.744-1.744V66.457
				c0-0.965,0.781-1.744,1.744-1.744h4.948c0.963,0,1.746,0.779,1.746,1.744V77.759z"/>
		</g>
		<g>
			<linearGradient id="SVGID_2_" gradientUnits="userSpaceOnUse" x1="19.0164" y1="56.3822" x2="61.0152" y2="56.3822">
				<stop  offset="0" style="stop-color:#A2C4E5"/>
				<stop  offset="0.5419" style="stop-color:#E9FFFF"/>
				<stop  offset="1" style="stop-color:#A2C4E5"/>
			</linearGradient>
			<path fill="url(#SVGID_2_)" d="M60.979,67.669c0.209,1.08-0.519,1.963-1.619,1.963H20.647c-1.1,0-1.815-0.881-1.589-1.957
				l4.738-22.586c0.226-1.077,1.311-1.957,2.411-1.957h28.018c1.1,0,2.171,0.884,2.381,1.963L60.979,67.669z"/>
			<path fill="none" stroke="#4E6B8D" stroke-miterlimit="10" d="M60.979,67.669c0.209,1.08-0.519,1.963-1.619,1.963H20.647
				c-1.1,0-1.815-0.881-1.589-1.957l4.738-22.586c0.226-1.077,1.311-1.957,2.411-1.957h28.018c1.1,0,2.171,0.884,2.381,1.963
				L60.979,67.669z"/>
		</g>
		<g>
			<g>
				<path fill="#2E9D60" d="M66.018,55.033c0,0.55-0.45,1-1,1h-5.676c-0.55,0-1-0.45-1-1v-1.945c0-0.55,0.45-1,1-1h5.676
					c0.55,0,1,0.45,1,1V55.033z"/>
				<path fill="none" stroke="#4E6B8D" stroke-miterlimit="10" d="M66.018,55.033c0,0.55-0.45,1-1,1h-5.676c-0.55,0-1-0.45-1-1
					v-1.945c0-0.55,0.45-1,1-1h5.676c0.55,0,1,0.45,1,1V55.033z"/>
			</g>
			<g>
				<path fill="#2E9D60" d="M21.666,55.033c0,0.55-0.45,1-1,1h-5.677c-0.55,0-1-0.45-1-1v-1.945c0-0.55,0.45-1,1-1h5.677
					c0.55,0,1,0.45,1,1V55.033z"/>
				<path fill="none" stroke="#4E6B8D" stroke-miterlimit="10" d="M21.666,55.033c0,0.55-0.45,1-1,1h-5.677c-0.55,0-1-0.45-1-1
					v-1.945c0-0.55,0.45-1,1-1h5.677c0.55,0,1,0.45,1,1V55.033z"/>
			</g>
		</g>
		<g>
			<path fill="#2E9D60" d="M61.573,70.691c0,1.1-0.9,2-2,2H20.434c-1.1,0-2-0.9-2-2V57.277c0-1.1,0.9-2,2-2h39.139c1.1,0,2,0.9,2,2
				V70.691z"/>
			<path fill="none" stroke="#4E6B8D" stroke-miterlimit="10" d="M61.573,70.691c0,1.1-0.9,2-2,2H20.434c-1.1,0-2-0.9-2-2V57.277
				c0-1.1,0.9-2,2-2h39.139c1.1,0,2,0.9,2,2V70.691z"/>
		</g>
		<g>
			<path fill="#31BC6C" d="M61.573,57.406c0,1.1-0.9,2-2,2H20.434c-1.1,0-2-0.9-2-2v-0.129c0-1.1,0.9-2,2-2h39.139c1.1,0,2,0.9,2,2
				V57.406z"/>
			<path fill="none" stroke="#4E6B8D" stroke-miterlimit="10" d="M61.573,57.406c0,1.1-0.9,2-2,2H20.434c-1.1,0-2-0.9-2-2v-0.129
				c0-1.1,0.9-2,2-2h39.139c1.1,0,2,0.9,2,2V57.406z"/>
		</g>
		<g>
			<g>
				<g>
					<g>
						<path fill="#B8FFD6" d="M31.215,66.417c0,0.55-0.45,1-1,1H22.24c-0.55,0-1-0.45-1-1v-3.406c0-0.55,0.45-1,1-1h7.975
							c0.55,0,1,0.45,1,1V66.417z"/>
						<path fill="none" stroke="#4E6B8D" stroke-miterlimit="10" d="M31.215,66.417c0,0.55-0.45,1-1,1H22.24c-0.55,0-1-0.45-1-1
							v-3.406c0-0.55,0.45-1,1-1h7.975c0.55,0,1,0.45,1,1V66.417z"/>
					</g>
				</g>
				<g>
					<g>
						<path fill="#B8FFD6" d="M58.766,66.417c0,0.55-0.45,1-1,1h-7.975c-0.55,0-1-0.45-1-1v-3.406c0-0.55,0.45-1,1-1h7.975
							c0.55,0,1,0.45,1,1V66.417z"/>
						<path fill="none" stroke="#4E6B8D" stroke-miterlimit="10" d="M58.766,66.417c0,0.55-0.45,1-1,1h-7.975c-0.55,0-1-0.45-1-1
							v-3.406c0-0.55,0.45-1,1-1h7.975c0.55,0,1,0.45,1,1V66.417z"/>
					</g>
				</g>
			</g>
			<g>
				<g>
					<g>
						<path fill="#FF9100" d="M23.024,66.417c0,0.55-0.45,1-1,1h-2.339c-0.55,0-1-0.45-1-1v-3.406c0-0.55,0.45-1,1-1h2.339
							c0.55,0,1,0.45,1,1V66.417z"/>
						<path fill="none" stroke="#4E6B8D" stroke-miterlimit="10" d="M23.024,66.417c0,0.55-0.45,1-1,1h-2.339c-0.55,0-1-0.45-1-1
							v-3.406c0-0.55,0.45-1,1-1h2.339c0.55,0,1,0.45,1,1V66.417z"/>
					</g>
				</g>
				<g>
					<g>
						<path fill="#FF9100" d="M61.321,66.417c0,0.55-0.45,1-1,1h-2.336c-0.55,0-1-0.45-1-1v-3.406c0-0.55,0.45-1,1-1h2.336
							c0.55,0,1,0.45,1,1V66.417z"/>
						<path fill="none" stroke="#4E6B8D" stroke-miterlimit="10" d="M61.321,66.417c0,0.55-0.45,1-1,1h-2.336c-0.55,0-1-0.45-1-1
							v-3.406c0-0.55,0.45-1,1-1h2.336c0.55,0,1,0.45,1,1V66.417z"/>
					</g>
				</g>
			</g>
		</g>
		<g>
			
				<line fill="none" stroke="#4E6B8D" stroke-linecap="round" stroke-linejoin="round" stroke-miterlimit="10" x1="34.877" y1="63.473" x2="45.13" y2="63.473"/>
			
				<line fill="none" stroke="#4E6B8D" stroke-linecap="round" stroke-linejoin="round" stroke-miterlimit="10" x1="34.877" y1="65.955" x2="45.13" y2="65.955"/>
		</g>
	</g>
</g>
</svg>
