<?xml version="1.0" encoding="utf-8"?>
<!-- Generator: Adobe Illustrator 19.2.0, SVG Export Plug-In . SVG Version: 6.00 Build 0)  -->
<svg version="1.1" id="Layer_1" xmlns="http://www.w3.org/2000/svg" xmlns:xlink="http://www.w3.org/1999/xlink" x="0px" y="0px"
	 viewBox="0 0 100 100" enable-background="new 0 0 100 100" xml:space="preserve">
<g>
	<rect x="25.352" y="62.671" fill="#BCDCF7" stroke="#4E6B8D" stroke-miterlimit="10" width="3.19" height="4.78"/>
	<rect x="24.456" y="67.451" fill="#BCDCF7" stroke="#4E6B8D" stroke-miterlimit="10" width="4.981" height="5.16"/>
	<rect x="67.028" y="62.671" fill="#BCDCF7" stroke="#4E6B8D" stroke-miterlimit="10" width="3.19" height="4.78"/>
	<rect x="66.132" y="67.451" fill="#BCDCF7" stroke="#4E6B8D" stroke-miterlimit="10" width="4.982" height="5.16"/>
	<g>
		<g>
			<path fill="#F9F9F9" d="M79.884,42.31c0,1.65-1.346,2.891-2.99,2.758l-39.635-3.203c-1.645-0.133-2.207-1.341-1.249-2.685
				l6.661-9.348c0.957-1.344,3.091-2.443,4.741-2.443h29.473c1.65,0,3,1.35,3,3V42.31z"/>
			<path fill="none" stroke="#4E6B8D" stroke-linecap="round" stroke-linejoin="round" stroke-miterlimit="10" d="M79.884,42.31
				c0,1.65-1.346,2.891-2.99,2.758l-39.635-3.203c-1.645-0.133-2.207-1.341-1.249-2.685l6.661-9.348
				c0.957-1.344,3.091-2.443,4.741-2.443h29.473c1.65,0,3,1.35,3,3V42.31z"/>
		</g>
		<g>
			<linearGradient id="SVGID_2_" gradientUnits="userSpaceOnUse" x1="34.7392" y1="34.5066" x2="70.9446" y2="34.5066">
				<stop  offset="0" style="stop-color:#A2C4E5"/>
				<stop  offset="0.5419" style="stop-color:#E9FFFF"/>
				<stop  offset="1" style="stop-color:#A2C4E5"/>
			</linearGradient>
			<path fill="url(#SVGID_2_)" d="M70.945,38.624c0,1.65-1.35,3-3,3H36.593c-1.65,0-2.327-1.17-1.504-2.6l5.198-9.034
				c0.823-1.43,2.846-2.6,4.496-2.6h23.16c1.65,0,3,1.35,3,3V38.624z"/>
			<path fill="none" stroke="#4E6B8D" stroke-miterlimit="10" d="M70.945,38.624c0,1.65-1.35,3-3,3H36.593
				c-1.65,0-2.327-1.17-1.504-2.6l5.198-9.034c0.823-1.43,2.846-2.6,4.496-2.6h23.16c1.65,0,3,1.35,3,3V38.624z"/>
		</g>
		
			<rect x="54.54" y="27.389" fill="#DBDBDB" stroke="#4E6B8D" stroke-linecap="round" stroke-linejoin="round" stroke-miterlimit="10" width="1.562" height="11.469"/>
		<polygon fill="#405972" points="18.899,56.186 76.479,56.186 76.668,46.489 63.619,46.259 19.358,45.528 		"/>
		<g>
			<ellipse fill="#4E6B8D" cx="26.514" cy="55.787" rx="5.917" ry="5.999"/>
			<ellipse fill="#9DAEC2" cx="26.514" cy="55.787" rx="3.432" ry="3.479"/>
		</g>
		<g>
			<ellipse fill="#4E6B8D" cx="68.623" cy="55.787" rx="5.917" ry="5.999"/>
			<ellipse fill="#9DAEC2" cx="68.623" cy="55.787" rx="3.432" ry="3.479"/>
		</g>
		<path fill="#DBDBDB" stroke="#4E6B8D" stroke-linecap="round" stroke-linejoin="round" stroke-miterlimit="10" d="M80.636,50.474
			h-0.752v-8.476c0-1.728-1.414-3.14-3.14-3.14H39.879c-1.726,0-4.532,0.244-6.232,0.54l-14.795,1.283
			c-1.7,0.297-3.093,1.952-3.093,3.68v6.112h-1.242c-0.424,0-0.768,0.344-0.768,0.768v3.777c0,0.425,0.344,0.768,0.768,0.768h4.894
			c-0.093-0.47-0.143-0.954-0.143-1.451c0-4.055,3.243-7.345,7.245-7.345s7.245,3.29,7.245,7.345c0,0.497-0.05,0.981-0.143,1.451
			h27.902c-0.092-0.47-0.142-0.954-0.142-1.451c0-4.055,3.243-7.345,7.245-7.345c4.003,0,7.245,3.29,7.245,7.345
			c0,0.497-0.05,0.981-0.143,1.451h4.911c0.424,0,0.769-0.343,0.769-0.768v-3.777C81.404,50.818,81.06,50.474,80.636,50.474z"/>
		
			<line fill="none" stroke="#4E6B8D" stroke-linecap="round" stroke-linejoin="round" stroke-miterlimit="10" x1="33.763" y1="50.474" x2="61.39" y2="50.474"/>
		<path fill="#F9F9F9" stroke="#4E6B8D" stroke-linecap="round" stroke-linejoin="round" stroke-miterlimit="10" d="M79.884,38.858
			H39.879c-1.726,0-4.532,0.244-6.232,0.54l-14.795,1.283c-0.49,0.085-0.948,0.293-1.36,0.573h62.393V38.858z"/>
		
			<line fill="none" stroke="#4E6B8D" stroke-linecap="round" stroke-linejoin="round" stroke-miterlimit="10" x1="55.32" y1="39.107" x2="55.32" y2="52.961"/>
		
			<line fill="none" stroke="#4E6B8D" stroke-linecap="round" stroke-linejoin="round" stroke-miterlimit="10" x1="36.739" y1="39.107" x2="36.739" y2="52.149"/>
		
			<rect x="66.301" y="42.885" fill="none" stroke="#4E6B8D" stroke-linecap="round" stroke-linejoin="round" stroke-miterlimit="10" width="4.644" height="1.336"/>
		
			<rect x="48.116" y="42.885" fill="none" stroke="#4E6B8D" stroke-linecap="round" stroke-linejoin="round" stroke-miterlimit="10" width="4.644" height="1.336"/>
		<g>
			<path fill="#DBDBDB" d="M40.194,38.906c0,0.55-0.441,0.909-0.979,0.797l-0.767-0.159c-0.539-0.112-0.979-0.653-0.979-1.203
				v-1.091c0-0.55,0.431-1.13,0.958-1.288l0.81-0.244c0.527-0.159,0.958,0.162,0.958,0.712V38.906z"/>
			<path fill="none" stroke="#4E6B8D" stroke-linecap="round" stroke-linejoin="round" stroke-miterlimit="10" d="M40.194,38.906
				c0,0.55-0.441,0.909-0.979,0.797l-0.767-0.159c-0.539-0.112-0.979-0.653-0.979-1.203v-1.091c0-0.55,0.431-1.13,0.958-1.288
				l0.81-0.244c0.527-0.159,0.958,0.162,0.958,0.712V38.906z"/>
		</g>
		
			<line fill="none" stroke="#4E6B8D" stroke-linecap="round" stroke-linejoin="round" stroke-miterlimit="10" x1="35.042" y1="39.107" x2="18.852" y2="30.614"/>
		<g>
			<path fill="#DBDBDB" d="M86.251,47.343c0,0.55-0.45,1-1,1h-4.366c-0.55,0-1-0.45-1-1V35.904c0-0.55,0.45-1,1-1h4.366
				c0.55,0,1,0.45,1,1V47.343z"/>
			<path fill="none" stroke="#4E6B8D" stroke-linecap="round" stroke-linejoin="round" stroke-miterlimit="10" d="M86.251,47.343
				c0,0.55-0.45,1-1,1h-4.366c-0.55,0-1-0.45-1-1V35.904c0-0.55,0.45-1,1-1h4.366c0.55,0,1,0.45,1,1V47.343z"/>
		</g>
		
			<line fill="#DBDBDB" stroke="#4E6B8D" stroke-linecap="round" stroke-linejoin="round" stroke-miterlimit="10" x1="15.759" y1="50.474" x2="20.235" y2="50.474"/>
		
			<line fill="#DBDBDB" stroke="#4E6B8D" stroke-linecap="round" stroke-linejoin="round" stroke-miterlimit="10" x1="74.783" y1="50.474" x2="79.884" y2="50.474"/>
	</g>
	<rect x="13.75" y="61.786" fill="#BCDCF7" stroke="#4E6B8D" stroke-miterlimit="10" width="67.655" height="1.769"/>
</g>
</svg>
