<?xml version="1.0" encoding="utf-8"?>
<!-- Generator: Adobe Illustrator 19.2.0, SVG Export Plug-In . SVG Version: 6.00 Build 0)  -->
<svg version="1.1" id="Layer_1" xmlns="http://www.w3.org/2000/svg" xmlns:xlink="http://www.w3.org/1999/xlink" x="0px" y="0px"
	 viewBox="0 0 100 100" enable-background="new 0 0 100 100" xml:space="preserve">
<g>
	<g>
		<g>
			<path fill="#DBDBDB" d="M74.451,67.946c0,1.65-1.35,3-3,3H50.298c-1.65,0-3-1.35-3-3V25.698c0-1.65,1.35-3,3-3h21.153
				c1.65,0,3,1.35,3,3V67.946z"/>
			<path fill="none" stroke="#4E6B8D" stroke-linecap="round" stroke-linejoin="round" stroke-miterlimit="10" d="M74.451,67.946
				c0,1.65-1.35,3-3,3H50.298c-1.65,0-3-1.35-3-3V25.698c0-1.65,1.35-3,3-3h21.153c1.65,0,3,1.35,3,3V67.946z"/>
		</g>
		
			<line fill="#DBDBDB" stroke="#4E6B8D" stroke-linecap="round" stroke-linejoin="round" stroke-miterlimit="10" x1="52.955" y1="29.319" x2="69.667" y2="29.319"/>
		
			<line fill="#DBDBDB" stroke="#4E6B8D" stroke-linecap="round" stroke-linejoin="round" stroke-miterlimit="10" x1="52.955" y1="33.461" x2="69.667" y2="33.461"/>
		
			<line fill="#DBDBDB" stroke="#4E6B8D" stroke-linecap="round" stroke-linejoin="round" stroke-miterlimit="10" x1="52.955" y1="37.602" x2="69.667" y2="37.602"/>
		
			<line fill="#DBDBDB" stroke="#4E6B8D" stroke-linecap="round" stroke-linejoin="round" stroke-miterlimit="10" x1="52.955" y1="41.745" x2="69.667" y2="41.745"/>
		
			<line fill="#DBDBDB" stroke="#4E6B8D" stroke-linecap="round" stroke-linejoin="round" stroke-miterlimit="10" x1="52.955" y1="45.887" x2="69.667" y2="45.887"/>
		
			<line fill="#DBDBDB" stroke="#4E6B8D" stroke-linecap="round" stroke-linejoin="round" stroke-miterlimit="10" x1="52.955" y1="50.029" x2="69.667" y2="50.029"/>
		
			<line fill="#DBDBDB" stroke="#4E6B8D" stroke-linecap="round" stroke-linejoin="round" stroke-miterlimit="10" x1="52.955" y1="54.172" x2="69.667" y2="54.172"/>
		
			<line fill="#DBDBDB" stroke="#4E6B8D" stroke-linecap="round" stroke-linejoin="round" stroke-miterlimit="10" x1="52.955" y1="58.313" x2="69.667" y2="58.313"/>
		
			<line fill="#DBDBDB" stroke="#4E6B8D" stroke-linecap="round" stroke-linejoin="round" stroke-miterlimit="10" x1="52.955" y1="62.455" x2="69.667" y2="62.455"/>
	</g>
	<path fill="#5F8FC9" stroke="#4E6B8D" stroke-linecap="round" stroke-linejoin="round" stroke-miterlimit="10" d="M56.94,66.649
		c0,8.67-7.027,10.653-15.697,10.653c-8.667,0-15.694-1.983-15.694-10.653c0-8.667,7.027-15.696,15.694-15.696
		C49.913,50.953,56.94,57.982,56.94,66.649z"/>
	<path fill="#3A648E" d="M48.426,52.704c3.403,2.879,5.571,7.175,5.571,11.982c0,8.67-7.027,10.654-15.697,10.654
		c-3.885,0-7.435-0.406-10.176-1.627c2.805,2.786,7.63,3.589,13.119,3.589c8.67,0,15.697-1.983,15.697-10.653
		C56.94,60.571,53.479,55.312,48.426,52.704z"/>
	<path fill="none" stroke="#4E6B8D" stroke-linecap="round" stroke-linejoin="round" stroke-miterlimit="10" d="M56.94,66.649
		c0,8.67-7.027,10.653-15.697,10.653c-8.667,0-15.694-1.983-15.694-10.653c0-8.667,7.027-15.696,15.694-15.696
		C49.913,50.953,56.94,57.982,56.94,66.649z"/>
	<path fill="#5F8FC9" stroke="#4E6B8D" stroke-linecap="round" stroke-linejoin="round" stroke-miterlimit="10" d="M52.491,35.3
		c0,2.084-1.69,3.774-3.775,3.774H33.771c-2.085,0-3.774-1.69-3.774-3.774l0,0c0-2.085,1.689-3.775,3.774-3.775h14.945
		C50.801,31.524,52.491,33.215,52.491,35.3L52.491,35.3z"/>
	
		<circle fill="#FCC097" stroke="#4E6B8D" stroke-linecap="round" stroke-linejoin="round" stroke-miterlimit="10" cx="41.244" cy="44.835" r="8.589"/>
	<path fill="#5F8FC9" stroke="#4E6B8D" stroke-linecap="round" stroke-linejoin="round" stroke-miterlimit="10" d="M33.703,40.72
		c0,0,2.01,1.772,7.541,1.772c5.533,0,7.54-1.772,7.54-1.772H33.703z"/>
	
		<rect x="33.703" y="36.247" fill="#5F8FC9" stroke="#4E6B8D" stroke-linecap="round" stroke-linejoin="round" stroke-miterlimit="10" width="15.081" height="4.474"/>
	
		<circle fill="#F9B235" stroke="#4E6B8D" stroke-linecap="round" stroke-linejoin="round" stroke-miterlimit="10" cx="41.243" cy="37.718" r="2.392"/>
	
		<rect x="28.124" y="63.354" fill="#F9B235" stroke="#4E6B8D" stroke-linecap="round" stroke-linejoin="round" stroke-miterlimit="10" width="8.655" height="1.649"/>
</g>
</svg>
