<?xml version="1.0" encoding="utf-8"?>
<!-- Generator: Adobe Illustrator 19.2.0, SVG Export Plug-In . SVG Version: 6.00 Build 0)  -->
<svg version="1.1" id="Layer_1" xmlns="http://www.w3.org/2000/svg" xmlns:xlink="http://www.w3.org/1999/xlink" x="0px" y="0px"
	 viewBox="0 0 100 100" enable-background="new 0 0 100 100" xml:space="preserve">
<g>
	<g>
		<polygon fill="#405972" points="22.908,51.53 86.269,63.776 88.889,58.57 86.268,53.051 72.403,50.119 30.543,41.217 
			25.187,41.985 		"/>
		<g>
			<path fill="#EF7F7F" d="M86.272,49.93c0.839,1.421,0.2,2.327-1.421,2.014l-40.505-7.828c-1.62-0.313-1.726-1.148-0.235-1.856
				l14.092-6.69c1.491-0.708,4.036-1.03,5.656-0.717l12.309,2.379c1.62,0.313,3.632,1.732,4.47,3.153L86.272,49.93z"/>
			<path fill="none" stroke="#4E6B8D" stroke-linecap="round" stroke-linejoin="round" stroke-miterlimit="10" d="M86.272,49.93
				c0.839,1.421,0.2,2.327-1.421,2.014l-40.505-7.828c-1.62-0.313-1.726-1.148-0.235-1.856l14.092-6.69
				c1.491-0.708,4.036-1.03,5.656-0.717l12.309,2.379c1.62,0.313,3.632,1.732,4.47,3.153L86.272,49.93z"/>
		</g>
		<g>
			
				<linearGradient id="SVGID_2_" gradientUnits="userSpaceOnUse" x1="103.5826" y1="-281.42" x2="143.8731" y2="-281.42" gradientTransform="matrix(0.9818 0.1898 -0.1898 0.9818 -114.7486 293.4659)">
				<stop  offset="0" style="stop-color:#A2C4E5"/>
				<stop  offset="0.5419" style="stop-color:#E9FFFF"/>
				<stop  offset="1" style="stop-color:#A2C4E5"/>
			</linearGradient>
			<path fill="url(#SVGID_2_)" d="M78.736,48.246c0.66,1.512-0.125,2.493-1.745,2.18l-36.438-7.044
				c-1.62-0.313-1.726-1.148-0.235-1.856l14.092-6.689c1.491-0.708,4.036-1.03,5.656-0.717l10.708,2.069
				c1.62,0.313,3.486,1.806,4.146,3.318L78.736,48.246z"/>
			<path fill="none" stroke="#4E6B8D" stroke-miterlimit="10" d="M78.736,48.246c0.66,1.512-0.125,2.493-1.745,2.18l-36.438-7.044
				c-1.62-0.313-1.726-1.148-0.235-1.856l14.092-6.689c1.491-0.708,4.036-1.03,5.656-0.717l10.708,2.069
				c1.62,0.313,3.486,1.806,4.146,3.318L78.736,48.246z"/>
		</g>
		
			<ellipse transform="matrix(0.1898 -0.9818 0.9818 0.1898 -24.6541 72.6196)" fill="#4E6B8D" cx="31.674" cy="51.248" rx="5.967" ry="5.888"/>
		
			<ellipse transform="matrix(0.1898 -0.9818 0.9818 0.1898 4.8791 126.8108)" fill="#4E6B8D" cx="79.275" cy="60.449" rx="5.967" ry="5.888"/>
		
			<ellipse transform="matrix(0.1901 -0.9818 0.9818 0.1901 4.8616 126.7902)" fill="#9DAEC2" cx="79.275" cy="60.449" rx="3.462" ry="3.416"/>
		
			<ellipse transform="matrix(0.1897 -0.9818 0.9818 0.1897 -24.6544 72.623)" fill="#9DAEC2" cx="31.673" cy="51.249" rx="3.462" ry="3.415"/>
		<path fill="#D15E5E" stroke="#4E6B8D" stroke-miterlimit="10" d="M88.977,49.801l-6.514-1.751
			c-1.81-0.488-4.797-1.176-6.639-1.534l-29.556-5.713c-1.841-0.355-4.875-0.783-6.741-0.954l-14.189-1.287
			c-1.868-0.169-3.729,1.189-4.137,3.021l-1.191,5.337c-0.408,1.831,0.763,3.618,2.604,3.975l1.657,0.32
			c0.004-0.453,0.043-0.91,0.133-1.372c0.787-4.068,4.677-6.738,8.692-5.963c4.015,0.777,6.63,4.705,5.845,8.773
			c-0.089,0.462-0.223,0.901-0.387,1.323l33.319,6.438c0.004-0.45,0.044-0.91,0.133-1.369c0.787-4.068,4.678-6.74,8.692-5.963
			c4.015,0.777,6.631,4.705,5.845,8.773c-0.089,0.459-0.223,0.899-0.387,1.32l0.221,0.044c1.84,0.355,3.638-0.861,3.994-2.701
			l1.253-6.483C91.978,52.194,90.788,50.29,88.977,49.801z"/>
		
			<line fill="none" stroke="#4E6B8D" stroke-linecap="round" stroke-linejoin="round" stroke-miterlimit="10" x1="43.808" y1="50.676" x2="69.793" y2="55.698"/>
		<path fill="#EF7F7F" stroke="#4E6B8D" stroke-linecap="round" stroke-linejoin="round" stroke-miterlimit="10" d="M88.977,49.801
			l-6.514-1.751c-1.81-0.488-4.797-1.176-6.639-1.534l-29.556-5.713c-1.841-0.355-4.875-0.783-6.741-0.954l-14.189-1.287
			c-0.518-0.047-1.032,0.033-1.517,0.197l67.492,13.045C90.861,50.856,90.03,50.085,88.977,49.801z"/>
		
			<line fill="none" stroke="#4E6B8D" stroke-linecap="round" stroke-linejoin="round" stroke-miterlimit="10" x1="78.181" y1="46.974" x2="76.973" y2="53.224"/>
		
			<line fill="none" stroke="#4E6B8D" stroke-linecap="round" stroke-linejoin="round" stroke-miterlimit="10" x1="42.763" y1="40.367" x2="40.077" y2="54.271"/>
		
			<rect x="71.602" y="47.995" transform="matrix(0.1897 -0.9818 0.9818 0.1897 9.006 111.9448)" fill="none" stroke="#4E6B8D" stroke-linecap="round" stroke-linejoin="round" stroke-miterlimit="10" width="1.449" height="5.042"/>
		<path fill="#FF5F5F" stroke="#4E6B8D" stroke-miterlimit="10" d="M88.977,49.801l-1.567-0.419l-0.365,1.889
			c-0.355,1.842,0.86,3.637,2.701,3.992l1.579,0.306l0.297-1.534C91.978,52.194,90.788,50.29,88.977,49.801z"/>
		<path fill="#B8FFD6" stroke="#4E6B8D" stroke-linecap="round" stroke-linejoin="round" stroke-miterlimit="10" d="M25.338,38.563
			c-1.868-0.169-3.729,1.189-4.137,3.021l-0.093,0.415l2.404,0.464c1.841,0.357,3.639-0.857,3.995-2.699l0.19-0.985L25.338,38.563z"
			/>
		<path fill="#FF9100" stroke="#4E6B8D" stroke-miterlimit="10" d="M24.659,42.473c1.387-0.209,2.567-1.258,2.847-2.71l0.19-0.985
			l-2.283-0.209L24.659,42.473z"/>
		<g>
			<path fill="#D15E5E" d="M49.18,40.974c-0.104,0.54-0.605,0.809-1.113,0.597l-0.944-0.393c-0.508-0.212-0.838-0.827-0.733-1.367
				l0.258-1.334c0.104-0.54,0.638-1.027,1.185-1.082l1.084-0.11c0.547-0.055,0.91,0.341,0.805,0.881L49.18,40.974z"/>
			<path fill="none" stroke="#4E6B8D" stroke-miterlimit="10" d="M49.18,40.974c-0.104,0.54-0.605,0.809-1.113,0.597l-0.944-0.393
				c-0.508-0.212-0.838-0.827-0.733-1.367l0.258-1.334c0.104-0.54,0.638-1.027,1.185-1.082l1.084-0.11
				c0.547-0.055,0.91,0.341,0.805,0.881L49.18,40.974z"/>
		</g>
	</g>
	<rect x="8.314" y="57.798" fill="#D15E5E" stroke="#4E6B8D" stroke-miterlimit="10" width="36.819" height="1.538"/>
	<g>
		<ellipse fill="#4E6B8D" cx="20.63" cy="58.609" rx="7.734" ry="7.84"/>
		<ellipse fill="#9DAEC2" cx="20.63" cy="58.61" rx="4.486" ry="4.547"/>
	</g>
</g>
</svg>
