<?xml version="1.0" encoding="utf-8"?>
<!-- Generator: Adobe Illustrator 19.2.0, SVG Export Plug-In . SVG Version: 6.00 Build 0)  -->
<svg version="1.1" id="Layer_1" xmlns="http://www.w3.org/2000/svg" xmlns:xlink="http://www.w3.org/1999/xlink" x="0px" y="0px"
	 viewBox="0 0 100 100" enable-background="new 0 0 100 100" xml:space="preserve">
<g>
	<g>
		<path fill="#C3B092" d="M71.867,31.747c-0.006-0.646-0.247-1.26-0.661-1.681c-0.414-0.42-0.957-0.607-1.503-0.52
			c-2.348,0.397-4.574,0.598-6.615,0.598c-8.753,0-11.614-3.689-11.617-3.69c-0.35-0.511-0.887-0.796-1.444-0.811
			c-0.521,0.009-1.104,0.28-1.472,0.774c-0.028,0.037-2.891,3.727-11.643,3.727c-2.041,0-4.266-0.201-6.615-0.598
			c-0.544-0.09-1.089,0.1-1.503,0.52c-0.414,0.422-0.655,1.035-0.661,1.681c-0.003,0.387-0.049,9.59,2.466,19.415
			c3.442,13.453,10.048,21.464,19.103,23.166c0.098,0.02,0.198,0.028,0.297,0.028s0.198-0.009,0.297-0.028
			c9.054-1.702,15.66-9.713,19.103-23.166C71.915,41.337,71.869,32.134,71.867,31.747z"/>
		<path fill="#B2A086" d="M71.206,30.066c-0.414-0.42-0.957-0.607-1.503-0.52c-2.348,0.397-4.574,0.598-6.615,0.598
			c-8.753,0-11.614-3.689-11.617-3.69c-0.35-0.511-0.887-0.796-1.444-0.811c-0.009,0-0.018,0.002-0.027,0.004v48.709
			c0.1,0,0.198-0.009,0.297-0.028c9.054-1.702,15.66-9.713,19.103-23.166c2.514-9.826,2.469-19.028,2.466-19.415
			C71.861,31.101,71.62,30.488,71.206,30.066z"/>
		<path fill="none" stroke="#4E6B8D" stroke-miterlimit="10" d="M71.867,31.747c-0.006-0.646-0.247-1.26-0.661-1.681
			c-0.414-0.42-0.957-0.607-1.503-0.52c-2.348,0.397-4.574,0.598-6.615,0.598c-8.753,0-11.614-3.689-11.617-3.69
			c-0.35-0.511-0.887-0.796-1.444-0.811c-0.521,0.009-1.104,0.28-1.472,0.774c-0.028,0.037-2.891,3.727-11.643,3.727
			c-2.041,0-4.266-0.201-6.615-0.598c-0.544-0.09-1.089,0.1-1.503,0.52c-0.414,0.422-0.655,1.035-0.661,1.681
			c-0.003,0.387-0.049,9.59,2.466,19.415c3.442,13.453,10.048,21.464,19.103,23.166c0.098,0.02,0.198,0.028,0.297,0.028
			s0.198-0.009,0.297-0.028c9.054-1.702,15.66-9.713,19.103-23.166C71.915,41.337,71.869,32.134,71.867,31.747z"/>
	</g>
	
		<line fill="#DBDBDB" stroke="#4E6B8D" stroke-linecap="round" stroke-linejoin="round" stroke-miterlimit="10" x1="38.389" y1="39.814" x2="61.611" y2="39.814"/>
	
		<line fill="#DBDBDB" stroke="#4E6B8D" stroke-linecap="round" stroke-linejoin="round" stroke-miterlimit="10" x1="38.389" y1="47.298" x2="61.611" y2="47.298"/>
	
		<line fill="#DBDBDB" stroke="#4E6B8D" stroke-linecap="round" stroke-linejoin="round" stroke-miterlimit="10" x1="38.389" y1="54.781" x2="52.812" y2="54.781"/>
</g>
</svg>
