<?xml version="1.0" encoding="utf-8"?>
<!-- Generator: Adobe Illustrator 19.2.0, SVG Export Plug-In . SVG Version: 6.00 Build 0)  -->
<svg version="1.1" id="Layer_1" xmlns="http://www.w3.org/2000/svg" xmlns:xlink="http://www.w3.org/1999/xlink" x="0px" y="0px"
	 viewBox="0 0 100 100" enable-background="new 0 0 100 100" xml:space="preserve">
<g>
	<polygon fill="#405972" points="79.746,62.915 20.252,62.915 21.541,57.732 22.998,53.644 35.338,54.301 53.661,54.301 
		68.772,54.447 78.408,54.447 	"/>
	<circle fill="#4E6B8D" cx="72.605" cy="62.423" r="4.636"/>
	<circle fill="#9DAEC2" cx="72.605" cy="62.423" r="2.753"/>
	<g>
		<circle fill="#4E6B8D" cx="27.345" cy="62.423" r="4.347"/>
		<circle fill="#9DAEC2" cx="27.345" cy="62.423" r="2.753"/>
	</g>
	<path fill="#F9B235" stroke="#4E6B8D" stroke-linecap="round" stroke-linejoin="round" stroke-miterlimit="10" d="M81.255,34.597
		H18.745c-1.928,0-3.504,1.576-3.504,3.504v20.738c0,1.928,1.576,3.504,3.504,3.504h2.367c0.043-3.409,2.814-6.162,6.234-6.162
		c3.42,0,6.189,2.752,6.234,6.162h32.793c0.043-3.409,2.814-6.162,6.234-6.162c3.42,0,6.189,2.752,6.234,6.162h2.417
		c1.927,0,3.504-1.576,3.504-3.504V38.101C84.759,36.173,83.182,34.597,81.255,34.597z"/>
	<linearGradient id="SVGID_2_" gradientUnits="userSpaceOnUse" x1="81.8885" y1="44.3317" x2="84.7595" y2="44.3317">
		<stop  offset="0" style="stop-color:#A2C4E5"/>
		<stop  offset="0.5419" style="stop-color:#E9FFFF"/>
		<stop  offset="1" style="stop-color:#A2C4E5"/>
	</linearGradient>
	<rect x="81.889" y="39.173" fill="url(#SVGID_2_)" stroke="#4E6B8D" stroke-miterlimit="10" width="2.871" height="10.317"/>
	<linearGradient id="SVGID_3_" gradientUnits="userSpaceOnUse" x1="15.2405" y1="44.3317" x2="18.1115" y2="44.3317">
		<stop  offset="0" style="stop-color:#A2C4E5"/>
		<stop  offset="0.5419" style="stop-color:#E9FFFF"/>
		<stop  offset="1" style="stop-color:#A2C4E5"/>
	</linearGradient>
	<rect x="15.241" y="39.173" fill="url(#SVGID_3_)" stroke="#4E6B8D" stroke-miterlimit="10" width="2.871" height="10.317"/>
	
		<rect x="39.647" y="39.173" fill="#F9B235" stroke="#4E6B8D" stroke-linecap="round" stroke-linejoin="round" stroke-miterlimit="10" width="10.025" height="21.388"/>
	<g>
		<linearGradient id="SVGID_5_" gradientUnits="userSpaceOnUse" x1="20.2524" y1="44.3317" x2="79.7464" y2="44.3317">
			<stop  offset="0" style="stop-color:#A2C4E5"/>
			<stop  offset="0.5419" style="stop-color:#E9FFFF"/>
			<stop  offset="1" style="stop-color:#A2C4E5"/>
		</linearGradient>
		<rect x="20.252" y="39.173" fill="url(#SVGID_5_)" stroke="#4E6B8D" stroke-miterlimit="10" width="59.494" height="10.317"/>
		<linearGradient id="SVGID_7_" gradientUnits="userSpaceOnUse" x1="29.6215" y1="44.3317" x2="29.6215" y2="44.3317">
			<stop  offset="0" style="stop-color:#A2C4E5"/>
			<stop  offset="0.5419" style="stop-color:#E9FFFF"/>
			<stop  offset="1" style="stop-color:#A2C4E5"/>
		</linearGradient>
		<line fill="url(#SVGID_7_)" stroke="#4E6B8D" stroke-miterlimit="10" x1="29.622" y1="39.173" x2="29.622" y2="49.49"/>
		<linearGradient id="SVGID_9_" gradientUnits="userSpaceOnUse" x1="39.6465" y1="44.3317" x2="39.6465" y2="44.3317">
			<stop  offset="0" style="stop-color:#A2C4E5"/>
			<stop  offset="0.5419" style="stop-color:#E9FFFF"/>
			<stop  offset="1" style="stop-color:#A2C4E5"/>
		</linearGradient>
		<line fill="url(#SVGID_9_)" stroke="#4E6B8D" stroke-miterlimit="10" x1="39.647" y1="39.173" x2="39.647" y2="49.49"/>
		<linearGradient id="SVGID_11_" gradientUnits="userSpaceOnUse" x1="49.6715" y1="44.3317" x2="49.6715" y2="44.3317">
			<stop  offset="0" style="stop-color:#A2C4E5"/>
			<stop  offset="0.5419" style="stop-color:#E9FFFF"/>
			<stop  offset="1" style="stop-color:#A2C4E5"/>
		</linearGradient>
		<line fill="url(#SVGID_11_)" stroke="#4E6B8D" stroke-miterlimit="10" x1="49.671" y1="39.173" x2="49.671" y2="49.49"/>
		<linearGradient id="SVGID_13_" gradientUnits="userSpaceOnUse" x1="59.6965" y1="44.3317" x2="59.6965" y2="44.3317">
			<stop  offset="0" style="stop-color:#A2C4E5"/>
			<stop  offset="0.5419" style="stop-color:#E9FFFF"/>
			<stop  offset="1" style="stop-color:#A2C4E5"/>
		</linearGradient>
		<line fill="url(#SVGID_13_)" stroke="#4E6B8D" stroke-miterlimit="10" x1="59.696" y1="39.173" x2="59.696" y2="49.49"/>
		<linearGradient id="SVGID_14_" gradientUnits="userSpaceOnUse" x1="69.7215" y1="44.3317" x2="69.7215" y2="44.3317">
			<stop  offset="0" style="stop-color:#A2C4E5"/>
			<stop  offset="0.5419" style="stop-color:#E9FFFF"/>
			<stop  offset="1" style="stop-color:#A2C4E5"/>
		</linearGradient>
		<line fill="url(#SVGID_14_)" stroke="#4E6B8D" stroke-miterlimit="10" x1="69.721" y1="39.173" x2="69.721" y2="49.49"/>
	</g>
	
		<line fill="#DBDBDB" stroke="#4E6B8D" stroke-linecap="round" stroke-linejoin="round" stroke-miterlimit="10" x1="20.252" y1="52.605" x2="79.746" y2="52.605"/>
	
		<rect x="22.998" y="32.942" fill="#DBDBDB" stroke="#4E6B8D" stroke-linecap="round" stroke-linejoin="round" stroke-miterlimit="10" width="22.876" height="1.655"/>
	<path fill="#F9B235" stroke="#4E6B8D" stroke-linecap="round" stroke-linejoin="round" stroke-miterlimit="10" d="M15.241,58.839
		c0,0.015,0.005,0.03,0.005,0.044h2.866v-6.278h-2.871V58.839z"/>
	<path fill="#D15E5E" stroke="#4E6B8D" stroke-miterlimit="10" d="M82.569,58.839c0,0.015,0.003,0.03,0.003,0.044h2.187v-6.278
		h-2.19V58.839z"/>
</g>
</svg>
