<?xml version="1.0" encoding="utf-8"?>
<!-- Generator: Adobe Illustrator 19.2.0, SVG Export Plug-In . SVG Version: 6.00 Build 0)  -->
<svg version="1.1" id="Layer_1" xmlns="http://www.w3.org/2000/svg" xmlns:xlink="http://www.w3.org/1999/xlink" x="0px" y="0px"
	 viewBox="0 0 100 100" enable-background="new 0 0 100 100" xml:space="preserve">
<g>
	<path fill="#F9B235" stroke="#4E6B8D" stroke-linecap="round" stroke-linejoin="round" stroke-miterlimit="10" d="M56.023,66.649
		c0,8.67-7.027,10.653-15.696,10.653c-8.668,0-15.695-1.983-15.695-10.653c0-8.667,7.027-15.696,15.695-15.696
		C48.996,50.953,56.023,57.982,56.023,66.649z"/>
	<path fill="#F79237" d="M47.509,52.704c3.404,2.879,5.571,7.175,5.571,11.982c0,8.67-7.027,10.654-15.696,10.654
		c-3.886,0-7.435-0.406-10.177-1.627c2.805,2.786,7.63,3.589,13.12,3.589c8.669,0,15.696-1.983,15.696-10.653
		C56.023,60.571,52.562,55.312,47.509,52.704z"/>
	<path fill="none" stroke="#4E6B8D" stroke-linecap="round" stroke-linejoin="round" stroke-miterlimit="10" d="M56.023,66.649
		c0,8.67-7.027,10.653-15.696,10.653c-8.668,0-15.695-1.983-15.695-10.653c0-8.667,7.027-15.696,15.695-15.696
		C48.996,50.953,56.023,57.982,56.023,66.649z"/>
	
		<circle fill="#FCC097" stroke="#4E6B8D" stroke-linecap="round" stroke-linejoin="round" stroke-miterlimit="10" cx="40.327" cy="44.835" r="8.589"/>
	<g>
		<path fill="#BCDCF7" stroke="#4E6B8D" stroke-linecap="round" stroke-linejoin="round" stroke-miterlimit="10" d="M71.696,22.698
			H56.791c-2.02,0-3.673,1.652-3.673,3.673v8.189c0,2.02,1.653,3.673,3.673,3.673h5.156c-1.478,7.344-8.828,8.419-8.828,8.419
			c9.529,0,12.464-5.136,13.369-8.419h5.209c2.02,0,3.673-1.652,3.673-3.673v-8.189C75.368,24.35,73.716,22.698,71.696,22.698z"/>
		<circle fill="#4E6B8D" cx="60.117" cy="30.405" r="1.122"/>
		<circle fill="#4E6B8D" cx="64.244" cy="30.405" r="1.122"/>
		<circle fill="#4E6B8D" cx="68.37" cy="30.405" r="1.122"/>
	</g>
</g>
</svg>
