<?xml version="1.0" encoding="utf-8"?>
<!-- Generator: Adobe Illustrator 19.2.0, SVG Export Plug-In . SVG Version: 6.00 Build 0)  -->
<svg version="1.1" id="Layer_1" xmlns="http://www.w3.org/2000/svg" xmlns:xlink="http://www.w3.org/1999/xlink" x="0px" y="0px"
	 viewBox="0 0 100 100" enable-background="new 0 0 100 100" xml:space="preserve">
<g>
	
		<rect x="19.285" y="60.983" fill="#5F8FC9" stroke="#4E6B8D" stroke-linecap="round" stroke-linejoin="round" stroke-miterlimit="10" width="59.025" height="1.855"/>
	<polygon fill="#405972" points="76.145,61.532 49.606,61.532 49.904,56.007 57.37,52.275 68.456,52.051 78.907,52.051 	"/>
	<g>
		<circle fill="#4E6B8D" cx="58.463" cy="60.983" r="4.445"/>
		<circle fill="#9DAEC2" cx="58.463" cy="60.983" r="2.816"/>
	</g>
	<g>
		<circle fill="#4E6B8D" cx="68.914" cy="60.983" r="4.445"/>
		<circle fill="#9DAEC2" cx="68.914" cy="60.983" r="2.816"/>
	</g>
	<path fill="#BCDCF7" stroke="#4E6B8D" stroke-miterlimit="10" d="M77.132,34.571H34.988c-1.971,0-3.583,1.612-3.583,3.583V57.4
		c0,1.971,1.612,3.583,3.583,3.583h17.044v-2.725c0-1.971,1.613-3.583,3.583-3.583H71.74c1.971,0,3.583,1.612,3.583,3.583v2.725
		h1.808c1.971,0,3.583-1.612,3.583-3.583V38.155C80.715,36.183,79.103,34.571,77.132,34.571z"/>
	
		<line fill="#DBDBDB" stroke="#4E6B8D" stroke-linecap="round" stroke-linejoin="round" stroke-miterlimit="10" x1="31.404" y1="52.536" x2="80.715" y2="52.536"/>
	<g>
		
			<line fill="#DBDBDB" stroke="#4E6B8D" stroke-linecap="round" stroke-linejoin="round" stroke-miterlimit="10" x1="36.131" y1="52.536" x2="36.131" y2="34.571"/>
		
			<line fill="#DBDBDB" stroke="#4E6B8D" stroke-linecap="round" stroke-linejoin="round" stroke-miterlimit="10" x1="40.237" y1="52.536" x2="40.237" y2="34.571"/>
		
			<line fill="#DBDBDB" stroke="#4E6B8D" stroke-linecap="round" stroke-linejoin="round" stroke-miterlimit="10" x1="44.343" y1="52.536" x2="44.343" y2="34.571"/>
		
			<line fill="#DBDBDB" stroke="#4E6B8D" stroke-linecap="round" stroke-linejoin="round" stroke-miterlimit="10" x1="48.449" y1="52.536" x2="48.449" y2="34.571"/>
		
			<line fill="#DBDBDB" stroke="#4E6B8D" stroke-linecap="round" stroke-linejoin="round" stroke-miterlimit="10" x1="52.555" y1="52.536" x2="52.555" y2="34.571"/>
		
			<line fill="#DBDBDB" stroke="#4E6B8D" stroke-linecap="round" stroke-linejoin="round" stroke-miterlimit="10" x1="56.661" y1="52.536" x2="56.661" y2="34.571"/>
		
			<line fill="#DBDBDB" stroke="#4E6B8D" stroke-linecap="round" stroke-linejoin="round" stroke-miterlimit="10" x1="60.766" y1="52.536" x2="60.766" y2="34.571"/>
		
			<line fill="#DBDBDB" stroke="#4E6B8D" stroke-linecap="round" stroke-linejoin="round" stroke-miterlimit="10" x1="64.872" y1="52.536" x2="64.872" y2="34.571"/>
		
			<line fill="#DBDBDB" stroke="#4E6B8D" stroke-linecap="round" stroke-linejoin="round" stroke-miterlimit="10" x1="68.978" y1="52.536" x2="68.978" y2="34.571"/>
		
			<line fill="#DBDBDB" stroke="#4E6B8D" stroke-linecap="round" stroke-linejoin="round" stroke-miterlimit="10" x1="73.084" y1="52.536" x2="73.084" y2="34.571"/>
		
			<line fill="#DBDBDB" stroke="#4E6B8D" stroke-linecap="round" stroke-linejoin="round" stroke-miterlimit="10" x1="77.19" y1="52.536" x2="77.19" y2="34.571"/>
	</g>
	<path fill="#D15E5E" stroke="#4E6B8D" stroke-miterlimit="10" d="M78.31,53.88v4.89h2.13c0.176-0.422,0.275-0.884,0.275-1.369
		v-3.52H78.31z"/>
</g>
</svg>
