<?xml version="1.0" encoding="utf-8"?>
<!-- Generator: Adobe Illustrator 19.2.0, SVG Export Plug-In . SVG Version: 6.00 Build 0)  -->
<svg version="1.1" id="Layer_1" xmlns="http://www.w3.org/2000/svg" xmlns:xlink="http://www.w3.org/1999/xlink" x="0px" y="0px"
	 viewBox="0 0 100 100" enable-background="new 0 0 100 100" xml:space="preserve">
<g>
	<g>
		
			<circle fill="none" stroke="#D15E5E" stroke-width="3" stroke-linecap="round" stroke-linejoin="round" stroke-miterlimit="10" cx="68.348" cy="37.017" r="17.717"/>
		
			<line fill="none" stroke="#D15E5E" stroke-width="3" stroke-linecap="round" stroke-linejoin="round" stroke-miterlimit="10" x1="61.381" y1="37.015" x2="75.037" y2="37.015"/>
	</g>
	<g>
		<ellipse fill="#405972" cx="40.068" cy="77.608" rx="26.133" ry="3.093"/>
		<g>
			<path fill="#4E6B8D" d="M26.238,76.547c0,0.961-0.782,1.744-1.745,1.744h-4.945c-0.965,0-1.746-0.782-1.746-1.744V65.248
				c0-0.964,0.781-1.744,1.746-1.744h4.945c0.963,0,1.745,0.78,1.745,1.744V76.547z"/>
			<path fill="#4E6B8D" d="M62.333,76.547c0,0.961-0.783,1.744-1.746,1.744h-4.946c-0.963,0-1.744-0.782-1.744-1.744V65.248
				c0-0.964,0.781-1.744,1.744-1.744h4.946c0.963,0,1.746,0.78,1.746,1.744V76.547z"/>
		</g>
		<g>
			<linearGradient id="SVGID_2_" gradientUnits="userSpaceOnUse" x1="19.0862" y1="55.1755" x2="61.075" y2="55.1755">
				<stop  offset="0" style="stop-color:#A2C4E5"/>
				<stop  offset="0.5419" style="stop-color:#E9FFFF"/>
				<stop  offset="1" style="stop-color:#A2C4E5"/>
			</linearGradient>
			<path fill="url(#SVGID_2_)" d="M61.039,66.459c0.209,1.08-0.519,1.963-1.619,1.963H20.717c-1.1,0-1.815-0.881-1.589-1.957
				l4.736-22.579c0.226-1.077,1.311-1.957,2.411-1.957h28.01c1.1,0,2.171,0.884,2.381,1.963L61.039,66.459z"/>
			<path fill="none" stroke="#4E6B8D" stroke-miterlimit="10" d="M61.039,66.459c0.209,1.08-0.519,1.963-1.619,1.963H20.717
				c-1.1,0-1.815-0.881-1.589-1.957l4.736-22.579c0.226-1.077,1.311-1.957,2.411-1.957h28.01c1.1,0,2.171,0.884,2.381,1.963
				L61.039,66.459z"/>
		</g>
		<g>
			<g>
				<path fill="#F9B235" d="M66.077,53.826c0,0.55-0.45,1-1,1h-5.674c-0.55,0-1-0.45-1-1v-1.943c0-0.55,0.45-1,1-1h5.674
					c0.55,0,1,0.45,1,1V53.826z"/>
				<path fill="none" stroke="#4E6B8D" stroke-linecap="round" stroke-linejoin="round" stroke-miterlimit="10" d="M66.077,53.826
					c0,0.55-0.45,1-1,1h-5.674c-0.55,0-1-0.45-1-1v-1.943c0-0.55,0.45-1,1-1h5.674c0.55,0,1,0.45,1,1V53.826z"/>
			</g>
			<g>
				<path fill="#F9B235" d="M21.735,53.826c0,0.55-0.45,1-1,1H15.06c-0.55,0-1-0.45-1-1v-1.943c0-0.55,0.45-1,1-1h5.675
					c0.55,0,1,0.45,1,1V53.826z"/>
				<path fill="none" stroke="#4E6B8D" stroke-linecap="round" stroke-linejoin="round" stroke-miterlimit="10" d="M21.735,53.826
					c0,0.55-0.45,1-1,1H15.06c-0.55,0-1-0.45-1-1v-1.943c0-0.55,0.45-1,1-1h5.675c0.55,0,1,0.45,1,1V53.826z"/>
			</g>
		</g>
		<g>
			<path fill="#F9B235" d="M61.633,69.481c0,1.1-0.9,2-2,2H20.504c-1.1,0-2-0.9-2-2v-13.41c0-1.1,0.9-2,2-2h39.129c1.1,0,2,0.9,2,2
				V69.481z"/>
			<path fill="none" stroke="#4E6B8D" stroke-linecap="round" stroke-linejoin="round" stroke-miterlimit="10" d="M61.633,69.481
				c0,1.1-0.9,2-2,2H20.504c-1.1,0-2-0.9-2-2v-13.41c0-1.1,0.9-2,2-2h39.129c1.1,0,2,0.9,2,2V69.481z"/>
		</g>
		<g>
			<path fill="#F7DB37" d="M61.633,56.198c0,1.1-0.9,2-2,2H20.504c-1.1,0-2-0.9-2-2v-0.127c0-1.1,0.9-2,2-2h39.129c1.1,0,2,0.9,2,2
				V56.198z"/>
			<path fill="none" stroke="#4E6B8D" stroke-linecap="round" stroke-linejoin="round" stroke-miterlimit="10" d="M61.633,56.198
				c0,1.1-0.9,2-2,2H20.504c-1.1,0-2-0.9-2-2v-0.127c0-1.1,0.9-2,2-2h39.129c1.1,0,2,0.9,2,2V56.198z"/>
		</g>
		<g>
			<g>
				<g>
					<g>
						<path fill="#B8FFD6" d="M31.281,65.207c0,0.55-0.45,1-1,1h-7.972c-0.55,0-1-0.45-1-1v-3.403c0-0.55,0.45-1,1-1h7.972
							c0.55,0,1,0.45,1,1V65.207z"/>
						<path fill="none" stroke="#4E6B8D" stroke-miterlimit="10" d="M31.281,65.207c0,0.55-0.45,1-1,1h-7.972c-0.55,0-1-0.45-1-1
							v-3.403c0-0.55,0.45-1,1-1h7.972c0.55,0,1,0.45,1,1V65.207z"/>
					</g>
				</g>
				<g>
					<g>
						<path fill="#B8FFD6" d="M58.827,65.207c0,0.55-0.45,1-1,1h-7.972c-0.55,0-1-0.45-1-1v-3.403c0-0.55,0.45-1,1-1h7.972
							c0.55,0,1,0.45,1,1V65.207z"/>
						<path fill="none" stroke="#4E6B8D" stroke-miterlimit="10" d="M58.827,65.207c0,0.55-0.45,1-1,1h-7.972c-0.55,0-1-0.45-1-1
							v-3.403c0-0.55,0.45-1,1-1h7.972c0.55,0,1,0.45,1,1V65.207z"/>
					</g>
				</g>
			</g>
			<g>
				<g>
					<g>
						<path fill="#FF9100" d="M23.092,65.207c0,0.55-0.45,1-1,1h-2.338c-0.55,0-1-0.45-1-1v-3.403c0-0.55,0.45-1,1-1h2.338
							c0.55,0,1,0.45,1,1V65.207z"/>
						<path fill="none" stroke="#4E6B8D" stroke-miterlimit="10" d="M23.092,65.207c0,0.55-0.45,1-1,1h-2.338c-0.55,0-1-0.45-1-1
							v-3.403c0-0.55,0.45-1,1-1h2.338c0.55,0,1,0.45,1,1V65.207z"/>
					</g>
				</g>
				<g>
					<g>
						<path fill="#FF9100" d="M61.381,65.207c0,0.55-0.45,1-1,1h-2.335c-0.55,0-1-0.45-1-1v-3.403c0-0.55,0.45-1,1-1h2.335
							c0.55,0,1,0.45,1,1V65.207z"/>
						<path fill="none" stroke="#4E6B8D" stroke-miterlimit="10" d="M61.381,65.207c0,0.55-0.45,1-1,1h-2.335c-0.55,0-1-0.45-1-1
							v-3.403c0-0.55,0.45-1,1-1h2.335c0.55,0,1,0.45,1,1V65.207z"/>
					</g>
				</g>
			</g>
		</g>
		<g>
			
				<line fill="none" stroke="#4E6B8D" stroke-linecap="round" stroke-linejoin="round" stroke-miterlimit="10" x1="34.943" y1="62.264" x2="45.194" y2="62.264"/>
			
				<line fill="none" stroke="#4E6B8D" stroke-linecap="round" stroke-linejoin="round" stroke-miterlimit="10" x1="34.943" y1="64.747" x2="45.194" y2="64.747"/>
		</g>
	</g>
</g>
</svg>
